<svg xmlns="http://www.w3.org/2000/svg" xmlns:xlink="http://www.w3.org/1999/xlink" width="500" zoomAndPan="magnify" viewBox="0 0 375 374.999991" height="500" preserveAspectRatio="xMidYMid meet" version="1.0"><defs><clipPath id="6a6c51d23d"><path d="M 9.582031 9.582031 L 365.082031 9.582031 L 365.082031 365.082031 L 9.582031 365.082031 Z M 9.582031 9.582031 " clip-rule="nonzero"/></clipPath></defs><g clip-path="url(#6a6c51d23d)"><path fill="#13a8f2" d="M 300.054688 321.304688 C 299.117188 321.148438 298.199219 320.902344 297.308594 320.570312 C 296.417969 320.234375 295.566406 319.816406 294.757812 319.3125 C 293.949219 318.8125 293.199219 318.234375 292.503906 317.585938 C 291.808594 316.9375 291.183594 316.222656 290.628906 315.453125 C 290.074219 314.679688 289.597656 313.859375 289.203125 312.992188 C 288.8125 312.125 288.503906 311.226562 288.289062 310.300781 C 288.070312 309.375 287.945312 308.4375 287.914062 307.484375 C 287.882812 306.535156 287.941406 305.589844 288.097656 304.648438 C 288.25 303.710938 288.492188 302.792969 288.828125 301.902344 C 289.160156 301.011719 289.578125 300.160156 290.082031 299.351562 C 290.582031 298.542969 291.15625 297.789062 291.808594 297.09375 C 292.457031 296.398438 293.167969 295.773438 293.941406 295.21875 C 294.714844 294.660156 295.53125 294.1875 296.398438 293.792969 C 297.265625 293.398438 298.164062 293.09375 299.089844 292.875 C 300.015625 292.65625 300.953125 292.53125 301.90625 292.496094 C 302.855469 292.464844 303.800781 292.523438 304.742188 292.679688 C 305.679688 292.832031 306.597656 293.074219 307.488281 293.40625 C 308.378906 293.742188 309.230469 294.160156 310.039062 294.660156 C 310.847656 295.160156 311.601562 295.734375 312.296875 296.382812 C 312.996094 297.035156 313.621094 297.746094 314.175781 298.515625 C 314.734375 299.289062 315.207031 300.109375 315.605469 300.972656 C 316 301.839844 316.304688 302.738281 316.523438 303.664062 C 316.742188 304.589844 316.867188 305.527344 316.902344 306.480469 C 316.9375 307.429688 316.875 308.375 316.722656 309.316406 C 316.695312 309.488281 316.664062 309.65625 316.625 309.824219 C 320.5 305.746094 324.171875 301.492188 327.640625 297.0625 C 331.109375 292.632812 334.359375 288.050781 337.390625 283.3125 C 340.425781 278.574219 343.226562 273.703125 345.792969 268.695312 C 348.363281 263.691406 350.6875 258.578125 352.769531 253.351562 C 354.851562 248.125 356.679688 242.808594 358.257812 237.410156 C 359.832031 232.007812 361.148438 226.546875 362.203125 221.019531 C 363.257812 215.496094 364.050781 209.929688 364.578125 204.332031 C 365.101562 198.730469 365.363281 193.117188 365.351562 187.492188 C 365.351562 89.246094 285.710938 9.605469 187.46875 9.605469 C 89.222656 9.605469 9.582031 89.246094 9.582031 187.492188 C 9.582031 251.148438 43.027344 306.988281 93.292969 338.417969 C 93.679688 337.875 94.078125 337.34375 94.492188 336.820312 C 94.90625 336.300781 95.332031 335.792969 95.777344 335.292969 C 96.21875 334.796875 96.675781 334.3125 97.144531 333.839844 C 97.613281 333.367188 98.097656 332.910156 98.59375 332.464844 C 99.085938 332.019531 99.59375 331.589844 100.113281 331.171875 C 100.632812 330.757812 101.164062 330.355469 101.707031 329.96875 C 102.25 329.582031 102.800781 329.210938 103.363281 328.855469 C 103.925781 328.5 104.5 328.160156 105.082031 327.835938 C 105.664062 327.511719 106.253906 327.207031 106.851562 326.914062 C 107.453125 326.625 108.058594 326.351562 108.671875 326.09375 C 109.285156 325.835938 109.90625 325.597656 110.535156 325.375 C 111.164062 325.15625 111.796875 324.949219 112.4375 324.765625 C 113.074219 324.578125 113.71875 324.410156 114.367188 324.261719 C 115.015625 324.109375 115.667969 323.976562 116.324219 323.863281 C 116.980469 323.75 117.640625 323.65625 118.300781 323.578125 C 118.960938 323.5 119.625 323.445312 120.289062 323.402344 C 120.953125 323.363281 121.621094 323.34375 122.285156 323.339844 C 122.949219 323.339844 123.617188 323.355469 124.28125 323.390625 C 124.945312 323.425781 125.609375 323.476562 126.269531 323.550781 C 126.933594 323.621094 127.59375 323.710938 128.25 323.820312 C 128.90625 323.929688 129.558594 324.058594 130.207031 324.203125 C 130.859375 324.347656 131.503906 324.511719 132.144531 324.695312 C 132.785156 324.875 133.417969 325.074219 134.046875 325.292969 C 134.679688 325.511719 135.300781 325.746094 135.917969 325.996094 C 136.53125 326.25 137.140625 326.519531 137.742188 326.804688 C 138.34375 327.089844 138.9375 327.394531 139.519531 327.714844 C 140.105469 328.035156 140.679688 328.371094 141.246094 328.722656 C 141.808594 329.074219 142.363281 329.441406 142.910156 329.824219 C 143.453125 330.207031 143.988281 330.601562 144.511719 331.015625 C 145.03125 331.429688 145.542969 331.855469 146.042969 332.296875 C 146.539062 332.738281 147.027344 333.191406 147.5 333.660156 C 147.972656 334.128906 148.433594 334.613281 148.878906 335.105469 L 194.015625 302.277344 C 193.191406 300.90625 192.492188 299.476562 191.914062 297.984375 C 191.335938 296.496094 190.886719 294.964844 190.570312 293.398438 C 190.253906 291.832031 190.070312 290.25 190.027344 288.652344 C 189.980469 287.054688 190.070312 285.464844 190.296875 283.882812 C 190.523438 282.296875 190.882812 280.746094 191.375 279.226562 C 191.867188 277.703125 192.488281 276.238281 193.230469 274.820312 C 193.972656 273.40625 194.832031 272.066406 195.804688 270.796875 C 196.78125 269.527344 197.855469 268.351562 199.027344 267.269531 L 158.273438 210.109375 C 157.121094 210.570312 155.9375 210.929688 154.726562 211.191406 C 153.511719 211.453125 152.285156 211.609375 151.046875 211.667969 C 149.804688 211.726562 148.570312 211.679688 147.339844 211.53125 C 146.105469 211.382812 144.894531 211.132812 143.703125 210.78125 C 142.515625 210.429688 141.359375 209.984375 140.246094 209.441406 C 139.128906 208.898438 138.066406 208.265625 137.054688 207.546875 C 136.042969 206.828125 135.097656 206.027344 134.222656 205.152344 C 133.34375 204.273438 132.542969 203.332031 131.824219 202.320312 C 131.101562 201.3125 130.472656 200.246094 129.925781 199.132812 C 129.382812 198.015625 128.9375 196.863281 128.585938 195.671875 C 128.234375 194.484375 127.980469 193.273438 127.832031 192.039062 C 127.683594 190.808594 127.636719 189.574219 127.691406 188.332031 C 127.746094 187.09375 127.90625 185.867188 128.167969 184.652344 C 128.425781 183.441406 128.785156 182.257812 129.242188 181.101562 C 129.699219 179.949219 130.25 178.84375 130.890625 177.78125 C 131.535156 176.71875 132.257812 175.714844 133.066406 174.773438 L 97.28125 124.597656 C 96.777344 124.890625 96.265625 125.171875 95.742188 125.4375 C 95.222656 125.699219 94.695312 125.949219 94.160156 126.179688 C 93.621094 126.410156 93.078125 126.625 92.53125 126.820312 C 91.980469 127.019531 91.425781 127.199219 90.863281 127.359375 C 90.304688 127.523438 89.738281 127.667969 89.167969 127.792969 C 88.597656 127.921875 88.027344 128.03125 87.449219 128.121094 C 86.871094 128.214844 86.292969 128.289062 85.710938 128.34375 C 85.132812 128.398438 84.546875 128.433594 83.964844 128.453125 C 83.382812 128.472656 82.796875 128.472656 82.214844 128.457031 C 81.632812 128.441406 81.046875 128.402344 80.46875 128.351562 C 79.886719 128.296875 79.308594 128.226562 78.730469 128.136719 C 78.152344 128.046875 77.578125 127.9375 77.007812 127.8125 C 76.4375 127.6875 75.875 127.542969 75.3125 127.382812 C 74.75 127.222656 74.195312 127.042969 73.644531 126.847656 C 73.09375 126.652344 72.550781 126.4375 72.015625 126.210938 C 71.476562 125.980469 70.949219 125.734375 70.425781 125.472656 C 69.90625 125.210938 69.394531 124.929688 68.890625 124.636719 C 68.386719 124.34375 67.890625 124.03125 67.40625 123.707031 C 66.921875 123.382812 66.445312 123.042969 65.984375 122.6875 C 65.519531 122.332031 65.066406 121.960938 64.625 121.578125 C 64.1875 121.195312 63.757812 120.800781 63.34375 120.390625 C 62.925781 119.980469 62.523438 119.558594 62.132812 119.125 C 61.746094 118.6875 61.371094 118.242188 61.007812 117.785156 C 60.644531 117.324219 60.300781 116.855469 59.964844 116.375 C 59.632812 115.894531 59.316406 115.40625 59.015625 114.90625 C 58.714844 114.40625 58.425781 113.898438 58.15625 113.378906 C 57.886719 112.863281 57.632812 112.335938 57.398438 111.804688 C 57.160156 111.269531 56.9375 110.730469 56.734375 110.183594 C 56.53125 109.636719 56.34375 109.082031 56.175781 108.523438 C 56.007812 107.964844 55.855469 107.402344 55.722656 106.832031 C 55.585938 106.265625 55.472656 105.691406 55.375 105.117188 C 55.273438 104.542969 55.195312 103.964844 55.132812 103.382812 C 55.070312 102.804688 55.027344 102.222656 55 101.636719 C 54.976562 101.054688 54.96875 100.472656 54.976562 99.886719 C 54.988281 99.304688 55.015625 98.722656 55.0625 98.140625 C 55.109375 97.558594 55.175781 96.976562 55.257812 96.398438 C 55.339844 95.820312 55.441406 95.246094 55.5625 94.675781 C 55.679688 94.101562 55.816406 93.535156 55.972656 92.972656 C 56.125 92.410156 56.296875 91.851562 56.484375 91.300781 C 56.675781 90.746094 56.882812 90.203125 57.105469 89.660156 C 57.328125 89.121094 57.566406 88.589844 57.824219 88.066406 C 58.078125 87.542969 58.351562 87.023438 58.640625 86.519531 C 58.929688 86.011719 59.234375 85.511719 59.554688 85.023438 C 59.871094 84.535156 60.207031 84.058594 60.554688 83.589844 C 60.90625 83.121094 61.269531 82.664062 61.648438 82.21875 C 62.023438 81.773438 62.417969 81.34375 62.820312 80.921875 C 63.226562 80.5 63.644531 80.09375 64.074219 79.699219 C 64.503906 79.304688 64.945312 78.921875 65.402344 78.554688 C 65.855469 78.1875 66.320312 77.835938 66.796875 77.5 C 67.273438 77.160156 67.757812 76.835938 68.253906 76.53125 C 68.75 76.222656 69.253906 75.929688 69.769531 75.65625 C 70.285156 75.378906 70.808594 75.117188 71.335938 74.875 C 71.867188 74.632812 72.40625 74.40625 72.949219 74.195312 C 73.496094 73.984375 74.046875 73.792969 74.601562 73.617188 C 75.160156 73.441406 75.722656 73.28125 76.289062 73.140625 C 76.855469 73 77.425781 72.878906 78 72.773438 C 78.574219 72.667969 79.152344 72.582031 79.730469 72.511719 C 80.308594 72.441406 80.890625 72.390625 81.476562 72.359375 C 82.058594 72.328125 82.640625 72.3125 83.226562 72.316406 C 83.808594 72.320312 84.390625 72.339844 84.972656 72.382812 C 85.554688 72.421875 86.136719 72.480469 86.714844 72.554688 C 87.292969 72.632812 87.871094 72.726562 88.445312 72.839844 C 89.015625 72.949219 89.585938 73.082031 90.152344 73.226562 C 90.714844 73.375 91.273438 73.539062 91.828125 73.722656 C 92.382812 73.90625 92.933594 74.105469 93.472656 74.324219 C 94.015625 74.539062 94.550781 74.773438 95.078125 75.023438 C 95.605469 75.273438 96.125 75.539062 96.636719 75.820312 C 97.148438 76.105469 97.648438 76.402344 98.140625 76.714844 C 98.632812 77.03125 99.117188 77.359375 99.585938 77.703125 C 100.058594 78.046875 100.519531 78.40625 100.96875 78.777344 C 101.417969 79.148438 101.855469 79.535156 102.28125 79.9375 C 102.707031 80.335938 103.121094 80.75 103.519531 81.175781 C 103.917969 81.601562 104.304688 82.039062 104.675781 82.488281 C 105.050781 82.9375 105.40625 83.398438 105.75 83.871094 C 106.09375 84.34375 106.421875 84.824219 106.738281 85.316406 C 107.050781 85.808594 107.347656 86.3125 107.628906 86.824219 C 107.910156 87.332031 108.179688 87.851562 108.429688 88.378906 C 108.675781 88.910156 108.910156 89.445312 109.128906 89.984375 C 109.34375 90.527344 109.542969 91.078125 109.726562 91.632812 C 109.90625 92.1875 110.070312 92.746094 110.21875 93.308594 C 110.367188 93.875 110.496094 94.445312 110.609375 95.015625 C 110.71875 95.589844 110.8125 96.167969 110.890625 96.746094 C 110.964844 97.324219 111.023438 97.90625 111.0625 98.488281 C 111.101562 99.070312 111.125 99.652344 111.125 100.238281 C 111.128906 100.820312 111.113281 101.402344 111.082031 101.988281 C 111.046875 102.570312 110.996094 103.152344 110.929688 103.730469 C 110.859375 104.308594 110.769531 104.886719 110.664062 105.460938 C 110.558594 106.035156 110.4375 106.605469 110.296875 107.171875 C 110.15625 107.738281 109.996094 108.300781 109.820312 108.859375 C 109.644531 109.414062 109.453125 109.964844 109.242188 110.507812 C 109.03125 111.054688 108.804688 111.589844 108.558594 112.121094 C 108.316406 112.652344 108.054688 113.175781 107.777344 113.6875 C 107.503906 114.203125 107.210938 114.707031 106.902344 115.203125 C 106.59375 115.699219 106.269531 116.1875 105.933594 116.660156 C 105.59375 117.136719 105.242188 117.601562 104.875 118.054688 C 104.507812 118.511719 104.125 118.953125 103.730469 119.382812 L 139.546875 169.597656 C 141.253906 168.691406 143.050781 168.019531 144.929688 167.582031 C 146.8125 167.140625 148.722656 166.949219 150.652344 167.003906 C 152.585938 167.058594 154.476562 167.359375 156.332031 167.902344 C 158.1875 168.449219 159.941406 169.222656 161.59375 170.222656 L 215.226562 110.070312 C 214.550781 109.363281 213.898438 108.636719 213.265625 107.886719 C 212.636719 107.140625 212.03125 106.371094 211.449219 105.585938 C 210.871094 104.796875 210.3125 103.992188 209.785156 103.171875 C 209.253906 102.347656 208.75 101.511719 208.273438 100.65625 C 207.796875 99.800781 207.347656 98.933594 206.925781 98.050781 C 206.503906 97.167969 206.113281 96.273438 205.75 95.367188 C 205.382812 94.457031 205.046875 93.539062 204.742188 92.609375 C 204.4375 91.679688 204.160156 90.742188 203.914062 89.796875 C 203.667969 88.851562 203.449219 87.894531 203.265625 86.9375 C 203.078125 85.976562 202.925781 85.011719 202.800781 84.039062 C 202.675781 83.070312 202.582031 82.097656 202.519531 81.121094 C 202.457031 80.144531 202.425781 79.167969 202.425781 78.1875 C 202.425781 77.210938 202.457031 76.234375 202.515625 75.257812 C 202.578125 74.28125 202.671875 73.308594 202.796875 72.335938 C 202.917969 71.367188 203.074219 70.402344 203.257812 69.441406 C 203.445312 68.480469 203.660156 67.527344 203.90625 66.582031 C 204.152344 65.632812 204.425781 64.695312 204.730469 63.765625 C 205.035156 62.835938 205.371094 61.917969 205.734375 61.011719 C 206.097656 60.101562 206.492188 59.207031 206.914062 58.324219 C 207.332031 57.441406 207.78125 56.570312 208.257812 55.71875 C 208.734375 54.863281 209.234375 54.023438 209.765625 53.203125 C 210.292969 52.378906 210.851562 51.574219 211.429688 50.785156 C 212.011719 50 212.617188 49.230469 213.246094 48.484375 C 213.875 47.734375 214.527344 47.007812 215.203125 46.296875 C 215.878906 45.589844 216.574219 44.90625 217.296875 44.242188 C 218.015625 43.582031 218.753906 42.941406 219.515625 42.324219 C 220.273438 41.710938 221.054688 41.117188 221.851562 40.550781 C 222.648438 39.984375 223.460938 39.445312 224.292969 38.929688 C 225.125 38.414062 225.972656 37.929688 226.835938 37.46875 C 227.699219 37.007812 228.578125 36.574219 229.464844 36.167969 C 230.355469 35.765625 231.257812 35.386719 232.175781 35.039062 C 233.089844 34.691406 234.011719 34.375 234.949219 34.085938 C 235.882812 33.796875 236.824219 33.539062 237.777344 33.308594 C 238.726562 33.082031 239.683594 32.882812 240.648438 32.714844 C 241.613281 32.546875 242.578125 32.410156 243.550781 32.304688 C 244.523438 32.199219 245.5 32.121094 246.476562 32.078125 C 247.453125 32.035156 248.429688 32.019531 249.410156 32.039062 C 250.386719 32.054688 251.363281 32.105469 252.339844 32.183594 C 253.3125 32.265625 254.285156 32.375 255.253906 32.515625 C 256.21875 32.660156 257.183594 32.832031 258.140625 33.035156 C 259.097656 33.238281 260.046875 33.46875 260.988281 33.734375 C 261.929688 33.996094 262.863281 34.289062 263.785156 34.613281 C 264.710938 34.9375 265.621094 35.289062 266.523438 35.667969 C 267.425781 36.046875 268.3125 36.457031 269.1875 36.894531 C 270.0625 37.332031 270.921875 37.796875 271.769531 38.289062 C 272.613281 38.78125 273.441406 39.296875 274.253906 39.84375 C 275.066406 40.386719 275.863281 40.957031 276.636719 41.550781 C 277.414062 42.148438 278.171875 42.765625 278.910156 43.410156 C 279.644531 44.054688 280.359375 44.71875 281.054688 45.40625 C 281.75 46.097656 282.421875 46.808594 283.070312 47.539062 C 283.722656 48.269531 284.347656 49.019531 284.949219 49.792969 C 285.550781 50.5625 286.125 51.351562 286.679688 52.160156 C 287.230469 52.96875 287.753906 53.792969 288.253906 54.636719 C 288.753906 55.476562 289.222656 56.332031 289.667969 57.203125 C 290.113281 58.074219 290.53125 58.960938 290.917969 59.859375 C 291.304688 60.757812 291.664062 61.664062 291.996094 62.585938 C 292.328125 63.507812 292.628906 64.4375 292.898438 65.375 C 293.167969 66.316406 293.410156 67.265625 293.621094 68.21875 C 293.832031 69.175781 294.011719 70.136719 294.164062 71.101562 C 294.3125 72.066406 294.433594 73.039062 294.519531 74.011719 C 294.609375 74.988281 294.664062 75.964844 294.691406 76.941406 C 294.71875 77.917969 294.710938 78.894531 294.675781 79.875 C 294.640625 80.851562 294.574219 81.828125 294.476562 82.800781 C 294.378906 83.773438 294.25 84.742188 294.089844 85.707031 C 293.929688 86.671875 293.738281 87.632812 293.519531 88.585938 C 293.296875 89.539062 293.046875 90.484375 292.765625 91.417969 C 292.484375 92.355469 292.175781 93.285156 291.835938 94.199219 C 291.496094 95.117188 291.125 96.023438 290.730469 96.917969 C 290.332031 97.8125 289.90625 98.691406 289.453125 99.558594 C 289 100.425781 288.519531 101.277344 288.011719 102.113281 C 287.503906 102.949219 286.96875 103.769531 286.410156 104.570312 C 285.851562 105.371094 285.265625 106.15625 284.65625 106.921875 C 284.046875 107.6875 283.414062 108.429688 282.757812 109.15625 C 282.101562 109.882812 281.421875 110.585938 280.71875 111.265625 C 280.019531 111.949219 279.296875 112.605469 278.550781 113.242188 C 277.808594 113.878906 277.046875 114.488281 276.261719 115.078125 C 275.480469 115.664062 274.679688 116.226562 273.863281 116.761719 C 273.042969 117.296875 272.210938 117.808594 271.359375 118.289062 C 270.507812 118.773438 269.644531 119.230469 268.765625 119.65625 C 267.886719 120.085938 266.992188 120.484375 266.089844 120.855469 C 265.183594 121.230469 264.265625 121.570312 263.339844 121.882812 C 262.414062 122.199219 261.476562 122.480469 260.535156 122.734375 C 259.589844 122.988281 258.636719 123.210938 257.679688 123.40625 C 256.71875 123.597656 255.753906 123.761719 254.785156 123.890625 C 253.816406 124.023438 252.84375 124.125 251.867188 124.195312 C 250.894531 124.265625 249.914062 124.304688 248.9375 124.3125 C 247.960938 124.320312 246.980469 124.296875 246.003906 124.242188 C 245.027344 124.1875 244.054688 124.101562 243.082031 123.988281 C 242.113281 123.871094 241.144531 123.722656 240.183594 123.546875 C 239.222656 123.367188 238.265625 123.160156 237.316406 122.921875 C 236.371094 122.683594 235.429688 122.414062 234.496094 122.117188 C 233.566406 121.816406 232.644531 121.492188 231.734375 121.132812 C 230.824219 120.777344 229.925781 120.390625 229.039062 119.976562 C 228.152344 119.5625 227.28125 119.121094 226.421875 118.652344 C 225.5625 118.183594 224.722656 117.6875 223.894531 117.164062 C 223.066406 116.640625 222.257812 116.089844 221.46875 115.515625 L 167.765625 175.777344 C 168.179688 176.324219 168.570312 176.886719 168.933594 177.464844 C 169.300781 178.046875 169.636719 178.640625 169.945312 179.253906 C 170.257812 179.863281 170.539062 180.488281 170.789062 181.125 C 171.042969 181.761719 171.265625 182.410156 171.457031 183.066406 C 171.648438 183.722656 171.8125 184.390625 171.941406 185.0625 C 172.074219 185.734375 172.175781 186.410156 172.242188 187.09375 C 172.3125 187.773438 172.351562 188.457031 172.355469 189.144531 C 172.363281 189.828125 172.335938 190.511719 172.28125 191.195312 C 172.222656 191.878906 172.132812 192.558594 172.015625 193.230469 C 171.894531 193.90625 171.746094 194.574219 171.566406 195.234375 C 171.382812 195.894531 171.171875 196.546875 170.933594 197.1875 C 170.691406 197.832031 170.421875 198.460938 170.125 199.074219 C 169.824219 199.691406 169.5 200.292969 169.144531 200.878906 C 168.789062 201.46875 168.410156 202.035156 168.003906 202.589844 C 167.597656 203.140625 167.164062 203.671875 166.710938 204.183594 C 166.253906 204.695312 165.777344 205.183594 165.277344 205.652344 L 205.886719 262.574219 C 207.261719 261.90625 208.683594 261.359375 210.148438 260.925781 C 211.613281 260.496094 213.105469 260.183594 214.621094 259.996094 C 216.136719 259.808594 217.660156 259.746094 219.183594 259.804688 C 220.710938 259.863281 222.222656 260.046875 223.71875 260.355469 C 225.214844 260.664062 226.679688 261.089844 228.105469 261.636719 C 229.53125 262.183594 230.90625 262.839844 232.226562 263.609375 C 233.542969 264.382812 234.792969 265.253906 235.96875 266.230469 C 237.144531 267.203125 238.234375 268.265625 239.238281 269.421875 L 297.117188 227.324219 C 296.796875 226.730469 296.511719 226.113281 296.265625 225.484375 C 296.015625 224.851562 295.808594 224.210938 295.636719 223.554688 C 295.464844 222.898438 295.335938 222.234375 295.246094 221.5625 C 295.15625 220.886719 295.105469 220.214844 295.097656 219.535156 C 295.089844 218.859375 295.121094 218.183594 295.195312 217.507812 C 295.265625 216.832031 295.378906 216.167969 295.53125 215.507812 C 295.6875 214.84375 295.878906 214.195312 296.109375 213.558594 C 296.34375 212.921875 296.609375 212.300781 296.917969 211.695312 C 297.222656 211.089844 297.566406 210.507812 297.941406 209.945312 C 298.320312 209.378906 298.730469 208.839844 299.171875 208.328125 C 299.613281 207.8125 300.085938 207.328125 300.585938 206.871094 C 301.085938 206.414062 301.613281 205.988281 302.164062 205.59375 C 302.714844 205.199219 303.289062 204.839844 303.886719 204.515625 C 304.480469 204.191406 305.09375 203.902344 305.722656 203.652344 C 306.351562 203.402344 306.996094 203.191406 307.652344 203.019531 C 308.304688 202.84375 308.96875 202.710938 309.640625 202.617188 C 310.3125 202.523438 310.988281 202.472656 311.664062 202.460938 C 312.34375 202.449219 313.019531 202.480469 313.695312 202.546875 C 314.367188 202.617188 315.035156 202.726562 315.699219 202.878906 C 316.359375 203.027344 317.007812 203.21875 317.644531 203.449219 C 318.285156 203.675781 318.90625 203.941406 319.511719 204.246094 C 320.117188 204.550781 320.703125 204.890625 321.269531 205.265625 C 321.835938 205.640625 322.375 206.046875 322.890625 206.484375 C 323.40625 206.925781 323.894531 207.394531 324.355469 207.894531 C 324.8125 208.390625 325.242188 208.917969 325.636719 209.464844 C 326.035156 210.015625 326.394531 210.589844 326.722656 211.183594 C 327.050781 211.777344 327.339844 212.386719 327.59375 213.015625 C 327.847656 213.644531 328.0625 214.285156 328.238281 214.941406 C 328.414062 215.597656 328.550781 216.257812 328.648438 216.929688 C 328.742188 217.601562 328.796875 218.277344 328.8125 218.953125 C 328.828125 219.632812 328.800781 220.308594 328.734375 220.984375 C 328.667969 221.65625 328.558594 222.324219 328.414062 222.988281 C 328.265625 223.648438 328.078125 224.300781 327.851562 224.9375 C 327.625 225.578125 327.363281 226.203125 327.0625 226.808594 C 326.761719 227.417969 326.421875 228.003906 326.050781 228.570312 C 325.679688 229.136719 325.273438 229.679688 324.835938 230.199219 C 324.398438 230.714844 323.933594 231.207031 323.4375 231.667969 C 322.941406 232.128906 322.417969 232.558594 321.867188 232.957031 C 321.320312 233.355469 320.75 233.71875 320.15625 234.050781 C 319.566406 234.378906 318.957031 234.671875 318.328125 234.929688 C 317.699219 235.183594 317.058594 235.402344 316.40625 235.582031 C 315.75 235.761719 315.089844 235.898438 314.417969 236 C 313.746094 236.097656 313.074219 236.15625 312.394531 236.171875 C 311.71875 236.191406 311.042969 236.167969 310.367188 236.105469 C 309.691406 236.039062 309.023438 235.9375 308.359375 235.789062 C 307.699219 235.644531 307.046875 235.460938 306.40625 235.238281 C 305.765625 235.015625 305.140625 234.753906 304.53125 234.457031 C 303.925781 234.15625 303.335938 233.824219 302.765625 233.453125 L 243.6875 276.398438 C 244.335938 277.855469 244.859375 279.355469 245.253906 280.902344 C 245.648438 282.449219 245.910156 284.019531 246.035156 285.609375 C 246.164062 287.199219 246.15625 288.789062 246.011719 290.378906 C 245.867188 291.96875 245.589844 293.535156 245.175781 295.074219 C 244.765625 296.617188 244.226562 298.113281 243.558594 299.5625 C 242.890625 301.011719 242.105469 302.394531 241.203125 303.710938 C 240.300781 305.027344 239.292969 306.257812 238.179688 307.402344 C 237.066406 308.542969 235.863281 309.585938 234.574219 310.523438 C 233.28125 311.464844 231.921875 312.285156 230.492188 312.992188 C 229.058594 313.699219 227.578125 314.277344 226.050781 314.730469 C 224.519531 315.183594 222.960938 315.507812 221.378906 315.695312 C 219.792969 315.882812 218.203125 315.933594 216.609375 315.851562 C 215.015625 315.765625 213.441406 315.546875 211.882812 315.195312 C 210.328125 314.84375 208.8125 314.363281 207.335938 313.75 C 205.863281 313.140625 204.453125 312.410156 203.101562 311.558594 C 201.753906 310.703125 200.484375 309.746094 199.300781 308.675781 L 153.6875 341.816406 C 155.457031 345.027344 156.699219 348.425781 157.417969 352.019531 C 158.136719 355.613281 158.292969 359.230469 157.886719 362.875 C 167.6875 364.515625 177.554688 365.335938 187.492188 365.339844 C 192.824219 365.347656 198.152344 365.113281 203.464844 364.640625 C 208.777344 364.167969 214.0625 363.453125 219.3125 362.503906 C 224.5625 361.554688 229.757812 360.367188 234.902344 358.949219 C 240.042969 357.527344 245.113281 355.878906 250.105469 354 C 255.101562 352.121094 260 350.023438 264.804688 347.703125 C 269.609375 345.382812 274.296875 342.851562 278.875 340.105469 C 283.449219 337.363281 287.894531 334.417969 292.203125 331.273438 C 296.511719 328.128906 300.671875 324.796875 304.679688 321.273438 C 303.140625 321.53125 301.597656 321.539062 300.054688 321.304688 Z M 137.324219 271.101562 C 137.453125 270.3125 137.65625 269.546875 137.933594 268.796875 C 138.210938 268.050781 138.558594 267.339844 138.976562 266.660156 C 139.394531 265.980469 139.875 265.347656 140.417969 264.765625 C 140.960938 264.179688 141.558594 263.65625 142.203125 263.1875 C 142.851562 262.722656 143.535156 262.324219 144.261719 261.992188 C 144.988281 261.660156 145.738281 261.402344 146.511719 261.21875 C 147.289062 261.035156 148.074219 260.929688 148.871094 260.902344 C 149.667969 260.871094 150.460938 260.921875 151.25 261.050781 C 152.035156 261.175781 152.800781 261.378906 153.550781 261.660156 C 154.296875 261.9375 155.007812 262.285156 155.6875 262.707031 C 156.367188 263.125 156.996094 263.605469 157.582031 264.148438 C 158.164062 264.695312 158.6875 265.289062 159.15625 265.9375 C 159.621094 266.582031 160.019531 267.269531 160.351562 267.996094 C 160.679688 268.71875 160.9375 269.472656 161.121094 270.246094 C 161.304688 271.023438 161.410156 271.808594 161.4375 272.605469 C 161.464844 273.402344 161.414062 274.195312 161.285156 274.984375 C 161.15625 275.769531 160.953125 276.535156 160.671875 277.285156 C 160.394531 278.03125 160.042969 278.742188 159.625 279.421875 C 159.203125 280.097656 158.722656 280.730469 158.179688 281.3125 C 157.632812 281.894531 157.039062 282.417969 156.390625 282.882812 C 155.742188 283.347656 155.058594 283.746094 154.332031 284.078125 C 153.605469 284.40625 152.855469 284.664062 152.078125 284.84375 C 151.300781 285.027344 150.515625 285.132812 149.71875 285.160156 C 148.921875 285.1875 148.128906 285.136719 147.34375 285.003906 C 146.558594 284.878906 145.792969 284.671875 145.046875 284.394531 C 144.304688 284.113281 143.59375 283.765625 142.917969 283.347656 C 142.242188 282.929688 141.613281 282.449219 141.03125 281.90625 C 140.449219 281.363281 139.925781 280.769531 139.460938 280.125 C 138.996094 279.476562 138.597656 278.792969 138.265625 278.070312 C 137.9375 277.347656 137.679688 276.597656 137.496094 275.824219 C 137.3125 275.050781 137.207031 274.265625 137.179688 273.46875 C 137.148438 272.675781 137.199219 271.886719 137.324219 271.101562 Z M 90.648438 284.824219 C 90.5625 285.355469 90.421875 285.871094 90.234375 286.375 C 90.046875 286.878906 89.8125 287.359375 89.527344 287.816406 C 89.246094 288.277344 88.921875 288.699219 88.554688 289.09375 C 88.1875 289.488281 87.785156 289.839844 87.347656 290.15625 C 86.910156 290.46875 86.449219 290.738281 85.960938 290.960938 C 85.46875 291.183594 84.964844 291.359375 84.441406 291.480469 C 83.917969 291.605469 83.386719 291.675781 82.847656 291.695312 C 82.308594 291.714844 81.777344 291.679688 81.246094 291.59375 C 80.714844 291.507812 80.195312 291.371094 79.691406 291.183594 C 79.1875 290.992188 78.707031 290.757812 78.25 290.472656 C 77.792969 290.191406 77.367188 289.867188 76.976562 289.5 C 76.582031 289.132812 76.226562 288.730469 75.914062 288.292969 C 75.597656 287.859375 75.332031 287.394531 75.105469 286.90625 C 74.882812 286.417969 74.710938 285.910156 74.585938 285.386719 C 74.464844 284.863281 74.394531 284.332031 74.375 283.792969 C 74.355469 283.257812 74.390625 282.722656 74.476562 282.191406 C 74.5625 281.660156 74.699219 281.144531 74.886719 280.640625 C 75.078125 280.136719 75.3125 279.65625 75.59375 279.199219 C 75.878906 278.738281 76.203125 278.316406 76.570312 277.921875 C 76.9375 277.527344 77.339844 277.175781 77.773438 276.859375 C 78.210938 276.546875 78.675781 276.277344 79.164062 276.054688 C 79.652344 275.832031 80.160156 275.65625 80.683594 275.535156 C 81.207031 275.410156 81.738281 275.339844 82.277344 275.320312 C 82.8125 275.300781 83.347656 275.335938 83.878906 275.421875 C 84.410156 275.507812 84.925781 275.648438 85.429688 275.835938 C 85.933594 276.023438 86.414062 276.261719 86.871094 276.542969 C 87.328125 276.828125 87.753906 277.152344 88.144531 277.519531 C 88.539062 277.886719 88.890625 278.285156 89.207031 278.722656 C 89.519531 279.160156 89.789062 279.621094 90.011719 280.113281 C 90.234375 280.601562 90.40625 281.109375 90.527344 281.632812 C 90.652344 282.15625 90.722656 282.683594 90.738281 283.222656 C 90.757812 283.757812 90.722656 284.292969 90.636719 284.824219 Z M 73.246094 187.6875 C 73.351562 187.039062 73.519531 186.410156 73.746094 185.796875 C 73.976562 185.1875 74.261719 184.601562 74.605469 184.046875 C 74.953125 183.488281 75.347656 182.972656 75.792969 182.492188 C 76.238281 182.015625 76.726562 181.585938 77.257812 181.203125 C 77.789062 180.820312 78.351562 180.492188 78.949219 180.222656 C 79.542969 179.953125 80.160156 179.742188 80.796875 179.589844 C 81.433594 179.441406 82.078125 179.355469 82.734375 179.332031 C 83.386719 179.308594 84.035156 179.351562 84.683594 179.457031 C 85.328125 179.5625 85.957031 179.730469 86.570312 179.960938 C 87.183594 180.1875 87.765625 180.476562 88.324219 180.820312 C 88.878906 181.164062 89.394531 181.558594 89.875 182.007812 C 90.351562 182.453125 90.78125 182.941406 91.164062 183.472656 C 91.546875 184.003906 91.871094 184.566406 92.144531 185.164062 C 92.414062 185.757812 92.625 186.375 92.773438 187.011719 C 92.925781 187.648438 93.011719 188.292969 93.03125 188.945312 C 93.054688 189.601562 93.011719 190.25 92.90625 190.894531 C 92.800781 191.542969 92.632812 192.171875 92.40625 192.785156 C 92.175781 193.394531 91.886719 193.980469 91.542969 194.535156 C 91.199219 195.09375 90.804688 195.609375 90.355469 196.085938 C 89.910156 196.566406 89.421875 196.996094 88.890625 197.378906 C 88.359375 197.757812 87.796875 198.085938 87.199219 198.355469 C 86.605469 198.625 85.988281 198.835938 85.351562 198.984375 C 84.714844 199.136719 84.070312 199.222656 83.414062 199.242188 C 82.761719 199.265625 82.109375 199.222656 81.464844 199.117188 C 80.820312 199.011719 80.191406 198.84375 79.578125 198.617188 C 78.964844 198.386719 78.382812 198.101562 77.824219 197.757812 C 77.269531 197.414062 76.753906 197.015625 76.273438 196.570312 C 75.796875 196.125 75.367188 195.636719 74.984375 195.105469 C 74.601562 194.574219 74.273438 194.011719 74.003906 193.417969 C 73.734375 192.824219 73.523438 192.207031 73.371094 191.570312 C 73.222656 190.933594 73.136719 190.289062 73.113281 189.636719 C 73.089844 188.980469 73.132812 188.332031 73.234375 187.6875 Z M 176.507812 94.652344 C 176.351562 95.609375 176.105469 96.539062 175.769531 97.445312 C 175.429688 98.355469 175.007812 99.21875 174.5 100.042969 C 173.992188 100.867188 173.40625 101.632812 172.746094 102.34375 C 172.089844 103.050781 171.367188 103.691406 170.582031 104.257812 C 169.796875 104.824219 168.964844 105.308594 168.082031 105.710938 C 167.203125 106.113281 166.289062 106.425781 165.347656 106.648438 C 164.40625 106.871094 163.453125 107 162.484375 107.035156 C 161.515625 107.070312 160.554688 107.011719 159.597656 106.855469 C 158.644531 106.699219 157.710938 106.453125 156.804688 106.117188 C 155.898438 105.777344 155.03125 105.355469 154.207031 104.84375 C 153.382812 104.335938 152.617188 103.753906 151.910156 103.09375 C 151.199219 102.433594 150.5625 101.710938 149.996094 100.925781 C 149.429688 100.140625 148.945312 99.304688 148.542969 98.425781 C 148.140625 97.542969 147.832031 96.632812 147.609375 95.691406 C 147.386719 94.75 147.257812 93.792969 147.222656 92.828125 C 147.1875 91.859375 147.25 90.898438 147.402344 89.941406 C 147.558594 88.984375 147.804688 88.054688 148.144531 87.148438 C 148.484375 86.238281 148.90625 85.375 149.417969 84.550781 C 149.925781 83.726562 150.511719 82.960938 151.171875 82.253906 C 151.832031 81.546875 152.554688 80.910156 153.339844 80.34375 C 154.125 79.777344 154.957031 79.292969 155.839844 78.890625 C 156.71875 78.488281 157.632812 78.175781 158.574219 77.957031 C 159.515625 77.734375 160.472656 77.605469 161.4375 77.570312 C 162.40625 77.539062 163.367188 77.597656 164.324219 77.753906 C 165.277344 77.910156 166.207031 78.15625 167.113281 78.496094 C 168.019531 78.832031 168.882812 79.257812 169.707031 79.765625 C 170.527344 80.273438 171.292969 80.859375 172 81.515625 C 172.710938 82.175781 173.347656 82.898438 173.910156 83.683594 C 174.476562 84.46875 174.960938 85.300781 175.363281 86.179688 C 175.765625 87.058594 176.078125 87.96875 176.300781 88.910156 C 176.523438 89.851562 176.652344 90.804688 176.6875 91.769531 C 176.71875 92.738281 176.660156 93.699219 176.507812 94.652344 Z M 231.652344 215.269531 C 231.546875 215.914062 231.378906 216.542969 231.152344 217.15625 C 230.921875 217.769531 230.636719 218.351562 230.292969 218.910156 C 229.949219 219.464844 229.554688 219.984375 229.105469 220.460938 C 228.660156 220.941406 228.171875 221.371094 227.640625 221.753906 C 227.113281 222.132812 226.546875 222.460938 225.953125 222.734375 C 225.359375 223.003906 224.742188 223.214844 224.105469 223.363281 C 223.46875 223.515625 222.824219 223.601562 222.171875 223.625 C 221.515625 223.648438 220.867188 223.605469 220.222656 223.5 C 219.578125 223.394531 218.945312 223.230469 218.335938 223 C 217.722656 222.773438 217.136719 222.484375 216.582031 222.140625 C 216.023438 221.796875 215.507812 221.402344 215.027344 220.957031 C 214.550781 220.511719 214.121094 220.023438 213.738281 219.492188 C 213.355469 218.960938 213.027344 218.398438 212.757812 217.800781 C 212.484375 217.207031 212.277344 216.589844 212.125 215.953125 C 211.976562 215.320312 211.890625 214.671875 211.867188 214.019531 C 211.84375 213.367188 211.882812 212.714844 211.988281 212.070312 C 212.09375 211.425781 212.261719 210.796875 212.488281 210.183594 C 212.71875 209.570312 213.003906 208.984375 213.347656 208.429688 C 213.691406 207.875 214.085938 207.355469 214.535156 206.878906 C 214.980469 206.398438 215.46875 205.96875 216 205.585938 C 216.527344 205.203125 217.09375 204.878906 217.6875 204.605469 C 218.28125 204.335938 218.898438 204.125 219.535156 203.972656 C 220.171875 203.824219 220.816406 203.738281 221.46875 203.714844 C 222.125 203.691406 222.773438 203.730469 223.417969 203.835938 C 224.0625 203.941406 224.695312 204.109375 225.304688 204.335938 C 225.917969 204.566406 226.503906 204.851562 227.058594 205.195312 C 227.617188 205.542969 228.132812 205.9375 228.613281 206.382812 C 229.089844 206.828125 229.519531 207.316406 229.902344 207.847656 C 230.285156 208.378906 230.613281 208.941406 230.882812 209.535156 C 231.15625 210.132812 231.367188 210.746094 231.515625 211.382812 C 231.667969 212.019531 231.753906 212.664062 231.777344 213.320312 C 231.796875 213.972656 231.757812 214.621094 231.652344 215.269531 Z M 304.859375 143.472656 C 304.75 144.132812 304.582031 144.777344 304.347656 145.402344 C 304.113281 146.03125 303.820312 146.628906 303.472656 147.195312 C 303.121094 147.765625 302.714844 148.296875 302.261719 148.785156 C 301.804688 149.273438 301.304688 149.714844 300.761719 150.105469 C 300.222656 150.496094 299.644531 150.832031 299.035156 151.109375 C 298.429688 151.386719 297.800781 151.605469 297.148438 151.757812 C 296.496094 151.910156 295.835938 152 295.167969 152.023438 C 294.5 152.046875 293.835938 152.003906 293.175781 151.898438 C 292.515625 151.792969 291.871094 151.621094 291.246094 151.386719 C 290.621094 151.152344 290.023438 150.859375 289.453125 150.507812 C 288.882812 150.15625 288.355469 149.753906 287.867188 149.296875 C 287.375 148.839844 286.9375 148.339844 286.546875 147.796875 C 286.15625 147.253906 285.820312 146.679688 285.542969 146.070312 C 285.265625 145.460938 285.050781 144.832031 284.898438 144.179688 C 284.746094 143.53125 284.65625 142.871094 284.632812 142.203125 C 284.609375 141.535156 284.652344 140.871094 284.761719 140.210938 C 284.867188 139.550781 285.039062 138.90625 285.273438 138.28125 C 285.507812 137.652344 285.800781 137.054688 286.152344 136.488281 C 286.507812 135.917969 286.910156 135.390625 287.367188 134.902344 C 287.824219 134.414062 288.324219 133.972656 288.867188 133.582031 C 289.410156 133.191406 289.984375 132.859375 290.59375 132.582031 C 291.203125 132.304688 291.832031 132.089844 292.484375 131.9375 C 293.136719 131.785156 293.796875 131.699219 294.464844 131.675781 C 295.132812 131.652344 295.796875 131.695312 296.457031 131.804688 C 297.113281 131.910156 297.757812 132.082031 298.382812 132.316406 C 299.007812 132.550781 299.601562 132.84375 300.167969 133.195312 C 300.738281 133.546875 301.265625 133.949219 301.753906 134.40625 C 302.242188 134.859375 302.679688 135.359375 303.070312 135.902344 C 303.460938 136.441406 303.792969 137.015625 304.070312 137.625 C 304.347656 138.230469 304.5625 138.859375 304.714844 139.507812 C 304.871094 140.160156 304.957031 140.816406 304.980469 141.484375 C 305.003906 142.152344 304.964844 142.8125 304.859375 143.472656 Z M 304.859375 143.472656 " fill-opacity="1" fill-rule="nonzero"/><path fill="#13a8f2" d="M 300.054688 321.304688 C 299.117188 321.148438 298.199219 320.902344 297.308594 320.570312 C 296.417969 320.234375 295.566406 319.816406 294.757812 319.3125 C 293.949219 318.8125 293.199219 318.234375 292.503906 317.585938 C 291.808594 316.9375 291.183594 316.222656 290.628906 315.453125 C 290.074219 314.679688 289.597656 313.859375 289.203125 312.992188 C 288.8125 312.125 288.503906 311.226562 288.289062 310.300781 C 288.070312 309.375 287.945312 308.4375 287.914062 307.484375 C 287.882812 306.535156 287.941406 305.589844 288.097656 304.648438 C 288.25 303.710938 288.492188 302.792969 288.828125 301.902344 C 289.160156 301.011719 289.578125 300.160156 290.082031 299.351562 C 290.582031 298.542969 291.15625 297.789062 291.808594 297.09375 C 292.457031 296.398438 293.167969 295.773438 293.941406 295.21875 C 294.714844 294.660156 295.53125 294.1875 296.398438 293.792969 C 297.265625 293.398438 298.164062 293.09375 299.089844 292.875 C 300.015625 292.65625 300.953125 292.53125 301.90625 292.496094 C 302.855469 292.464844 303.800781 292.523438 304.742188 292.679688 C 305.679688 292.832031 306.597656 293.074219 307.488281 293.40625 C 308.378906 293.742188 309.230469 294.160156 310.039062 294.660156 C 310.847656 295.160156 311.601562 295.734375 312.296875 296.382812 C 312.996094 297.035156 313.621094 297.746094 314.175781 298.515625 C 314.734375 299.289062 315.207031 300.109375 315.605469 300.972656 C 316 301.839844 316.304688 302.738281 316.523438 303.664062 C 316.742188 304.589844 316.867188 305.527344 316.902344 306.480469 C 316.9375 307.429688 316.875 308.375 316.722656 309.316406 C 316.695312 309.488281 316.664062 309.65625 316.625 309.824219 C 320.5 305.746094 324.171875 301.492188 327.640625 297.0625 C 331.109375 292.632812 334.359375 288.050781 337.390625 283.3125 C 340.425781 278.574219 343.226562 273.703125 345.792969 268.695312 C 348.363281 263.691406 350.6875 258.578125 352.769531 253.351562 C 354.851562 248.125 356.679688 242.808594 358.257812 237.410156 C 359.832031 232.007812 361.148438 226.546875 362.203125 221.019531 C 363.257812 215.496094 364.050781 209.929688 364.578125 204.332031 C 365.101562 198.730469 365.363281 193.117188 365.351562 187.492188 C 365.351562 89.246094 285.710938 9.605469 187.46875 9.605469 C 89.222656 9.605469 9.582031 89.246094 9.582031 187.492188 C 9.582031 251.148438 43.027344 306.988281 93.292969 338.417969 C 93.679688 337.875 94.078125 337.34375 94.492188 336.820312 C 94.90625 336.300781 95.332031 335.792969 95.777344 335.292969 C 96.21875 334.796875 96.675781 334.3125 97.144531 333.839844 C 97.613281 333.367188 98.097656 332.910156 98.59375 332.464844 C 99.085938 332.019531 99.59375 331.589844 100.113281 331.171875 C 100.632812 330.757812 101.164062 330.355469 101.707031 329.96875 C 102.25 329.582031 102.800781 329.210938 103.363281 328.855469 C 103.925781 328.5 104.5 328.160156 105.082031 327.835938 C 105.664062 327.511719 106.253906 327.207031 106.851562 326.914062 C 107.453125 326.625 108.058594 326.351562 108.671875 326.09375 C 109.285156 325.835938 109.90625 325.597656 110.535156 325.375 C 111.164062 325.15625 111.796875 324.949219 112.4375 324.765625 C 113.074219 324.578125 113.71875 324.410156 114.367188 324.261719 C 115.015625 324.109375 115.667969 323.976562 116.324219 323.863281 C 116.980469 323.75 117.640625 323.65625 118.300781 323.578125 C 118.960938 323.5 119.625 323.445312 120.289062 323.402344 C 120.953125 323.363281 121.621094 323.34375 122.285156 323.339844 C 122.949219 323.339844 123.617188 323.355469 124.28125 323.390625 C 124.945312 323.425781 125.609375 323.476562 126.269531 323.550781 C 126.933594 323.621094 127.59375 323.710938 128.25 323.820312 C 128.90625 323.929688 129.558594 324.058594 130.207031 324.203125 C 130.859375 324.347656 131.503906 324.511719 132.144531 324.695312 C 132.785156 324.875 133.417969 325.074219 134.046875 325.292969 C 134.679688 325.511719 135.300781 325.746094 135.917969 325.996094 C 136.53125 326.25 137.140625 326.519531 137.742188 326.804688 C 138.34375 327.089844 138.9375 327.394531 139.519531 327.714844 C 140.105469 328.035156 140.679688 328.371094 141.246094 328.722656 C 141.808594 329.074219 142.363281 329.441406 142.910156 329.824219 C 143.453125 330.207031 143.988281 330.601562 144.511719 331.015625 C 145.03125 331.429688 145.542969 331.855469 146.042969 332.296875 C 146.539062 332.738281 147.027344 333.191406 147.5 333.660156 C 147.972656 334.128906 148.433594 334.613281 148.878906 335.105469 L 194.015625 302.277344 C 193.191406 300.90625 192.492188 299.476562 191.914062 297.984375 C 191.335938 296.496094 190.886719 294.964844 190.570312 293.398438 C 190.253906 291.832031 190.070312 290.25 190.027344 288.652344 C 189.980469 287.054688 190.070312 285.464844 190.296875 283.882812 C 190.523438 282.296875 190.882812 280.746094 191.375 279.226562 C 191.867188 277.703125 192.488281 276.238281 193.230469 274.820312 C 193.972656 273.40625 194.832031 272.066406 195.804688 270.796875 C 196.78125 269.527344 197.855469 268.351562 199.027344 267.269531 L 158.273438 210.109375 C 157.121094 210.570312 155.9375 210.929688 154.726562 211.191406 C 153.511719 211.453125 152.285156 211.609375 151.046875 211.667969 C 149.804688 211.726562 148.570312 211.679688 147.339844 211.53125 C 146.105469 211.382812 144.894531 211.132812 143.703125 210.78125 C 142.515625 210.429688 141.359375 209.984375 140.246094 209.441406 C 139.128906 208.898438 138.066406 208.265625 137.054688 207.546875 C 136.042969 206.828125 135.097656 206.027344 134.222656 205.152344 C 133.34375 204.273438 132.542969 203.332031 131.824219 202.320312 C 131.101562 201.3125 130.472656 200.246094 129.925781 199.132812 C 129.382812 198.015625 128.9375 196.863281 128.585938 195.671875 C 128.234375 194.484375 127.980469 193.273438 127.832031 192.039062 C 127.683594 190.808594 127.636719 189.574219 127.691406 188.332031 C 127.746094 187.09375 127.90625 185.867188 128.167969 184.652344 C 128.425781 183.441406 128.785156 182.257812 129.242188 181.101562 C 129.699219 179.949219 130.25 178.84375 130.890625 177.78125 C 131.535156 176.71875 132.257812 175.714844 133.066406 174.773438 L 97.28125 124.597656 C 96.777344 124.890625 96.265625 125.171875 95.742188 125.4375 C 95.222656 125.699219 94.695312 125.949219 94.160156 126.179688 C 93.621094 126.410156 93.078125 126.625 92.53125 126.820312 C 91.980469 127.019531 91.425781 127.199219 90.863281 127.359375 C 90.304688 127.523438 89.738281 127.667969 89.167969 127.792969 C 88.597656 127.921875 88.027344 128.03125 87.449219 128.121094 C 86.871094 128.214844 86.292969 128.289062 85.710938 128.34375 C 85.132812 128.398438 84.546875 128.433594 83.964844 128.453125 C 83.382812 128.472656 82.796875 128.472656 82.214844 128.457031 C 81.632812 128.441406 81.046875 128.402344 80.46875 128.351562 C 79.886719 128.296875 79.308594 128.226562 78.730469 128.136719 C 78.152344 128.046875 77.578125 127.9375 77.007812 127.8125 C 76.4375 127.6875 75.875 127.542969 75.3125 127.382812 C 74.75 127.222656 74.195312 127.042969 73.644531 126.847656 C 73.09375 126.652344 72.550781 126.4375 72.015625 126.210938 C 71.476562 125.980469 70.949219 125.734375 70.425781 125.472656 C 69.90625 125.210938 69.394531 124.929688 68.890625 124.636719 C 68.386719 124.34375 67.890625 124.03125 67.40625 123.707031 C 66.921875 123.382812 66.445312 123.042969 65.984375 122.6875 C 65.519531 122.332031 65.066406 121.960938 64.625 121.578125 C 64.1875 121.195312 63.757812 120.800781 63.34375 120.390625 C 62.925781 119.980469 62.523438 119.558594 62.132812 119.125 C 61.746094 118.6875 61.371094 118.242188 61.007812 117.785156 C 60.644531 117.324219 60.300781 116.855469 59.964844 116.375 C 59.632812 115.894531 59.316406 115.40625 59.015625 114.90625 C 58.714844 114.40625 58.425781 113.898438 58.15625 113.378906 C 57.886719 112.863281 57.632812 112.335938 57.398438 111.804688 C 57.160156 111.269531 56.9375 110.730469 56.734375 110.183594 C 56.53125 109.636719 56.34375 109.082031 56.175781 108.523438 C 56.007812 107.964844 55.855469 107.402344 55.722656 106.832031 C 55.585938 106.265625 55.472656 105.691406 55.375 105.117188 C 55.273438 104.542969 55.195312 103.964844 55.132812 103.382812 C 55.070312 102.804688 55.027344 102.222656 55 101.636719 C 54.976562 101.054688 54.96875 100.472656 54.976562 99.886719 C 54.988281 99.304688 55.015625 98.722656 55.0625 98.140625 C 55.109375 97.558594 55.175781 96.976562 55.257812 96.398438 C 55.339844 95.820312 55.441406 95.246094 55.5625 94.675781 C 55.679688 94.101562 55.816406 93.535156 55.972656 92.972656 C 56.125 92.410156 56.296875 91.851562 56.484375 91.300781 C 56.675781 90.746094 56.882812 90.203125 57.105469 89.660156 C 57.328125 89.121094 57.566406 88.589844 57.824219 88.066406 C 58.078125 87.542969 58.351562 87.023438 58.640625 86.519531 C 58.929688 86.011719 59.234375 85.511719 59.554688 85.023438 C 59.871094 84.535156 60.207031 84.058594 60.554688 83.589844 C 60.90625 83.121094 61.269531 82.664062 61.648438 82.21875 C 62.023438 81.773438 62.417969 81.34375 62.820312 80.921875 C 63.226562 80.5 63.644531 80.09375 64.074219 79.699219 C 64.503906 79.304688 64.945312 78.921875 65.402344 78.554688 C 65.855469 78.1875 66.320312 77.835938 66.796875 77.5 C 67.273438 77.160156 67.757812 76.835938 68.253906 76.53125 C 68.75 76.222656 69.253906 75.929688 69.769531 75.65625 C 70.285156 75.378906 70.808594 75.117188 71.335938 74.875 C 71.867188 74.632812 72.40625 74.40625 72.949219 74.195312 C 73.496094 73.984375 74.046875 73.792969 74.601562 73.617188 C 75.160156 73.441406 75.722656 73.28125 76.289062 73.140625 C 76.855469 73 77.425781 72.878906 78 72.773438 C 78.574219 72.667969 79.152344 72.582031 79.730469 72.511719 C 80.308594 72.441406 80.890625 72.390625 81.476562 72.359375 C 82.058594 72.328125 82.640625 72.3125 83.226562 72.316406 C 83.808594 72.320312 84.390625 72.339844 84.972656 72.382812 C 85.554688 72.421875 86.136719 72.480469 86.714844 72.554688 C 87.292969 72.632812 87.871094 72.726562 88.445312 72.839844 C 89.015625 72.949219 89.585938 73.082031 90.152344 73.226562 C 90.714844 73.375 91.273438 73.539062 91.828125 73.722656 C 92.382812 73.90625 92.933594 74.105469 93.472656 74.324219 C 94.015625 74.539062 94.550781 74.773438 95.078125 75.023438 C 95.605469 75.273438 96.125 75.539062 96.636719 75.820312 C 97.148438 76.105469 97.648438 76.402344 98.140625 76.714844 C 98.632812 77.03125 99.117188 77.359375 99.585938 77.703125 C 100.058594 78.046875 100.519531 78.40625 100.96875 78.777344 C 101.417969 79.148438 101.855469 79.535156 102.28125 79.9375 C 102.707031 80.335938 103.121094 80.75 103.519531 81.175781 C 103.917969 81.601562 104.304688 82.039062 104.675781 82.488281 C 105.050781 82.9375 105.40625 83.398438 105.75 83.871094 C 106.09375 84.34375 106.421875 84.824219 106.738281 85.316406 C 107.050781 85.808594 107.347656 86.3125 107.628906 86.824219 C 107.910156 87.332031 108.179688 87.851562 108.429688 88.378906 C 108.675781 88.910156 108.910156 89.445312 109.128906 89.984375 C 109.34375 90.527344 109.542969 91.078125 109.726562 91.632812 C 109.90625 92.1875 110.070312 92.746094 110.21875 93.308594 C 110.367188 93.875 110.496094 94.445312 110.609375 95.015625 C 110.71875 95.589844 110.8125 96.167969 110.890625 96.746094 C 110.964844 97.324219 111.023438 97.90625 111.0625 98.488281 C 111.101562 99.070312 111.125 99.652344 111.125 100.238281 C 111.128906 100.820312 111.113281 101.402344 111.082031 101.988281 C 111.046875 102.570312 110.996094 103.152344 110.929688 103.730469 C 110.859375 104.308594 110.769531 104.886719 110.664062 105.460938 C 110.558594 106.035156 110.4375 106.605469 110.296875 107.171875 C 110.15625 107.738281 109.996094 108.300781 109.820312 108.859375 C 109.644531 109.414062 109.453125 109.964844 109.242188 110.507812 C 109.03125 111.054688 108.804688 111.589844 108.558594 112.121094 C 108.316406 112.652344 108.054688 113.175781 107.777344 113.6875 C 107.503906 114.203125 107.210938 114.707031 106.902344 115.203125 C 106.59375 115.699219 106.269531 116.1875 105.933594 116.660156 C 105.59375 117.136719 105.242188 117.601562 104.875 118.054688 C 104.507812 118.511719 104.125 118.953125 103.730469 119.382812 L 139.546875 169.597656 C 141.253906 168.691406 143.050781 168.019531 144.929688 167.582031 C 146.8125 167.140625 148.722656 166.949219 150.652344 167.003906 C 152.585938 167.058594 154.476562 167.359375 156.332031 167.902344 C 158.1875 168.449219 159.941406 169.222656 161.59375 170.222656 L 215.226562 110.070312 C 214.550781 109.363281 213.898438 108.636719 213.265625 107.886719 C 212.636719 107.140625 212.03125 106.371094 211.449219 105.585938 C 210.871094 104.796875 210.3125 103.992188 209.785156 103.171875 C 209.253906 102.347656 208.75 101.511719 208.273438 100.65625 C 207.796875 99.800781 207.347656 98.933594 206.925781 98.050781 C 206.503906 97.167969 206.113281 96.273438 205.75 95.367188 C 205.382812 94.457031 205.046875 93.539062 204.742188 92.609375 C 204.4375 91.679688 204.160156 90.742188 203.914062 89.796875 C 203.667969 88.851562 203.449219 87.894531 203.265625 86.9375 C 203.078125 85.976562 202.925781 85.011719 202.800781 84.039062 C 202.675781 83.070312 202.582031 82.097656 202.519531 81.121094 C 202.457031 80.144531 202.425781 79.167969 202.425781 78.1875 C 202.425781 77.210938 202.457031 76.234375 202.515625 75.257812 C 202.578125 74.28125 202.671875 73.308594 202.796875 72.335938 C 202.917969 71.367188 203.074219 70.402344 203.257812 69.441406 C 203.445312 68.480469 203.660156 67.527344 203.90625 66.582031 C 204.152344 65.632812 204.425781 64.695312 204.730469 63.765625 C 205.035156 62.835938 205.371094 61.917969 205.734375 61.011719 C 206.097656 60.101562 206.492188 59.207031 206.914062 58.324219 C 207.332031 57.441406 207.78125 56.570312 208.257812 55.71875 C 208.734375 54.863281 209.234375 54.023438 209.765625 53.203125 C 210.292969 52.378906 210.851562 51.574219 211.429688 50.785156 C 212.011719 50 212.617188 49.230469 213.246094 48.484375 C 213.875 47.734375 214.527344 47.007812 215.203125 46.296875 C 215.878906 45.589844 216.574219 44.90625 217.296875 44.242188 C 218.015625 43.582031 218.753906 42.941406 219.515625 42.324219 C 220.273438 41.710938 221.054688 41.117188 221.851562 40.550781 C 222.648438 39.984375 223.460938 39.445312 224.292969 38.929688 C 225.125 38.414062 225.972656 37.929688 226.835938 37.46875 C 227.699219 37.007812 228.578125 36.574219 229.464844 36.167969 C 230.355469 35.765625 231.257812 35.386719 232.175781 35.039062 C 233.089844 34.691406 234.011719 34.375 234.949219 34.085938 C 235.882812 33.796875 236.824219 33.539062 237.777344 33.308594 C 238.726562 33.082031 239.683594 32.882812 240.648438 32.714844 C 241.613281 32.546875 242.578125 32.410156 243.550781 32.304688 C 244.523438 32.199219 245.5 32.121094 246.476562 32.078125 C 247.453125 32.035156 248.429688 32.019531 249.410156 32.039062 C 250.386719 32.054688 251.363281 32.105469 252.339844 32.183594 C 253.3125 32.265625 254.285156 32.375 255.253906 32.515625 C 256.21875 32.660156 257.183594 32.832031 258.140625 33.035156 C 259.097656 33.238281 260.046875 33.46875 260.988281 33.734375 C 261.929688 33.996094 262.863281 34.289062 263.785156 34.613281 C 264.710938 34.9375 265.621094 35.289062 266.523438 35.667969 C 267.425781 36.046875 268.3125 36.457031 269.1875 36.894531 C 270.0625 37.332031 270.921875 37.796875 271.769531 38.289062 C 272.613281 38.78125 273.441406 39.296875 274.253906 39.84375 C 275.066406 40.386719 275.863281 40.957031 276.636719 41.550781 C 277.414062 42.148438 278.171875 42.765625 278.910156 43.410156 C 279.644531 44.054688 280.359375 44.71875 281.054688 45.40625 C 281.75 46.097656 282.421875 46.808594 283.070312 47.539062 C 283.722656 48.269531 284.347656 49.019531 284.949219 49.792969 C 285.550781 50.5625 286.125 51.351562 286.679688 52.160156 C 287.230469 52.96875 287.753906 53.792969 288.253906 54.636719 C 288.753906 55.476562 289.222656 56.332031 289.667969 57.203125 C 290.113281 58.074219 290.53125 58.960938 290.917969 59.859375 C 291.304688 60.757812 291.664062 61.664062 291.996094 62.585938 C 292.328125 63.507812 292.628906 64.4375 292.898438 65.375 C 293.167969 66.316406 293.410156 67.265625 293.621094 68.21875 C 293.832031 69.175781 294.011719 70.136719 294.164062 71.101562 C 294.3125 72.066406 294.433594 73.039062 294.519531 74.011719 C 294.609375 74.988281 294.664062 75.964844 294.691406 76.941406 C 294.71875 77.917969 294.710938 78.894531 294.675781 79.875 C 294.640625 80.851562 294.574219 81.828125 294.476562 82.800781 C 294.378906 83.773438 294.25 84.742188 294.089844 85.707031 C 293.929688 86.671875 293.738281 87.632812 293.519531 88.585938 C 293.296875 89.539062 293.046875 90.484375 292.765625 91.417969 C 292.484375 92.355469 292.175781 93.285156 291.835938 94.199219 C 291.496094 95.117188 291.125 96.023438 290.730469 96.917969 C 290.332031 97.8125 289.90625 98.691406 289.453125 99.558594 C 289 100.425781 288.519531 101.277344 288.011719 102.113281 C 287.503906 102.949219 286.96875 103.769531 286.410156 104.570312 C 285.851562 105.371094 285.265625 106.15625 284.65625 106.921875 C 284.046875 107.6875 283.414062 108.429688 282.757812 109.15625 C 282.101562 109.882812 281.421875 110.585938 280.71875 111.265625 C 280.019531 111.949219 279.296875 112.605469 278.550781 113.242188 C 277.808594 113.878906 277.046875 114.488281 276.261719 115.078125 C 275.480469 115.664062 274.679688 116.226562 273.863281 116.761719 C 273.042969 117.296875 272.210938 117.808594 271.359375 118.289062 C 270.507812 118.773438 269.644531 119.230469 268.765625 119.65625 C 267.886719 120.085938 266.992188 120.484375 266.089844 120.855469 C 265.183594 121.230469 264.265625 121.570312 263.339844 121.882812 C 262.414062 122.199219 261.476562 122.480469 260.535156 122.734375 C 259.589844 122.988281 258.636719 123.210938 257.679688 123.40625 C 256.71875 123.597656 255.753906 123.761719 254.785156 123.890625 C 253.816406 124.023438 252.84375 124.125 251.867188 124.195312 C 250.894531 124.265625 249.914062 124.304688 248.9375 124.3125 C 247.960938 124.320312 246.980469 124.296875 246.003906 124.242188 C 245.027344 124.1875 244.054688 124.101562 243.082031 123.988281 C 242.113281 123.871094 241.144531 123.722656 240.183594 123.546875 C 239.222656 123.367188 238.265625 123.160156 237.316406 122.921875 C 236.371094 122.683594 235.429688 122.414062 234.496094 122.117188 C 233.566406 121.816406 232.644531 121.492188 231.734375 121.132812 C 230.824219 120.777344 229.925781 120.390625 229.039062 119.976562 C 228.152344 119.5625 227.28125 119.121094 226.421875 118.652344 C 225.5625 118.183594 224.722656 117.6875 223.894531 117.164062 C 223.066406 116.640625 222.257812 116.089844 221.46875 115.515625 L 167.765625 175.777344 C 168.179688 176.324219 168.570312 176.886719 168.933594 177.464844 C 169.300781 178.046875 169.636719 178.640625 169.945312 179.253906 C 170.257812 179.863281 170.539062 180.488281 170.789062 181.125 C 171.042969 181.761719 171.265625 182.410156 171.457031 183.066406 C 171.648438 183.722656 171.8125 184.390625 171.941406 185.0625 C 172.074219 185.734375 172.175781 186.410156 172.242188 187.09375 C 172.3125 187.773438 172.351562 188.457031 172.355469 189.144531 C 172.363281 189.828125 172.335938 190.511719 172.28125 191.195312 C 172.222656 191.878906 172.132812 192.558594 172.015625 193.230469 C 171.894531 193.90625 171.746094 194.574219 171.566406 195.234375 C 171.382812 195.894531 171.171875 196.546875 170.933594 197.1875 C 170.691406 197.832031 170.421875 198.460938 170.125 199.074219 C 169.824219 199.691406 169.5 200.292969 169.144531 200.878906 C 168.789062 201.46875 168.410156 202.035156 168.003906 202.589844 C 167.597656 203.140625 167.164062 203.671875 166.710938 204.183594 C 166.253906 204.695312 165.777344 205.183594 165.277344 205.652344 L 205.886719 262.574219 C 207.261719 261.90625 208.683594 261.359375 210.148438 260.925781 C 211.613281 260.496094 213.105469 260.183594 214.621094 259.996094 C 216.136719 259.808594 217.660156 259.746094 219.183594 259.804688 C 220.710938 259.863281 222.222656 260.046875 223.71875 260.355469 C 225.214844 260.664062 226.679688 261.089844 228.105469 261.636719 C 229.53125 262.183594 230.90625 262.839844 232.226562 263.609375 C 233.542969 264.382812 234.792969 265.253906 235.96875 266.230469 C 237.144531 267.203125 238.234375 268.265625 239.238281 269.421875 L 297.117188 227.324219 C 296.796875 226.730469 296.511719 226.113281 296.265625 225.484375 C 296.015625 224.851562 295.808594 224.210938 295.636719 223.554688 C 295.464844 222.898438 295.335938 222.234375 295.246094 221.5625 C 295.15625 220.886719 295.105469 220.214844 295.097656 219.535156 C 295.089844 218.859375 295.121094 218.183594 295.195312 217.507812 C 295.265625 216.832031 295.378906 216.167969 295.53125 215.507812 C 295.6875 214.84375 295.878906 214.195312 296.109375 213.558594 C 296.34375 212.921875 296.609375 212.300781 296.917969 211.695312 C 297.222656 211.089844 297.566406 210.507812 297.941406 209.945312 C 298.320312 209.378906 298.730469 208.839844 299.171875 208.328125 C 299.613281 207.8125 300.085938 207.328125 300.585938 206.871094 C 301.085938 206.414062 301.613281 205.988281 302.164062 205.59375 C 302.714844 205.199219 303.289062 204.839844 303.886719 204.515625 C 304.480469 204.191406 305.09375 203.902344 305.722656 203.652344 C 306.351562 203.402344 306.996094 203.191406 307.652344 203.019531 C 308.304688 202.84375 308.96875 202.710938 309.640625 202.617188 C 310.3125 202.523438 310.988281 202.472656 311.664062 202.460938 C 312.34375 202.449219 313.019531 202.480469 313.695312 202.546875 C 314.367188 202.617188 315.035156 202.726562 315.699219 202.878906 C 316.359375 203.027344 317.007812 203.21875 317.644531 203.449219 C 318.285156 203.675781 318.90625 203.941406 319.511719 204.246094 C 320.117188 204.550781 320.703125 204.890625 321.269531 205.265625 C 321.835938 205.640625 322.375 206.046875 322.890625 206.484375 C 323.40625 206.925781 323.894531 207.394531 324.355469 207.894531 C 324.8125 208.390625 325.242188 208.917969 325.636719 209.464844 C 326.035156 210.015625 326.394531 210.589844 326.722656 211.183594 C 327.050781 211.777344 327.339844 212.386719 327.59375 213.015625 C 327.847656 213.644531 328.0625 214.285156 328.238281 214.941406 C 328.414062 215.597656 328.550781 216.257812 328.648438 216.929688 C 328.742188 217.601562 328.796875 218.277344 328.8125 218.953125 C 328.828125 219.632812 328.800781 220.308594 328.734375 220.984375 C 328.667969 221.65625 328.558594 222.324219 328.414062 222.988281 C 328.265625 223.648438 328.078125 224.300781 327.851562 224.9375 C 327.625 225.578125 327.363281 226.203125 327.0625 226.808594 C 326.761719 227.417969 326.421875 228.003906 326.050781 228.570312 C 325.679688 229.136719 325.273438 229.679688 324.835938 230.199219 C 324.398438 230.714844 323.933594 231.207031 323.4375 231.667969 C 322.941406 232.128906 322.417969 232.558594 321.867188 232.957031 C 321.320312 233.355469 320.75 233.71875 320.15625 234.050781 C 319.566406 234.378906 318.957031 234.671875 318.328125 234.929688 C 317.699219 235.183594 317.058594 235.402344 316.40625 235.582031 C 315.75 235.761719 315.089844 235.898438 314.417969 236 C 313.746094 236.097656 313.074219 236.15625 312.394531 236.171875 C 311.71875 236.191406 311.042969 236.167969 310.367188 236.105469 C 309.691406 236.039062 309.023438 235.9375 308.359375 235.789062 C 307.699219 235.644531 307.046875 235.460938 306.40625 235.238281 C 305.765625 235.015625 305.140625 234.753906 304.53125 234.457031 C 303.925781 234.15625 303.335938 233.824219 302.765625 233.453125 L 243.6875 276.398438 C 244.335938 277.855469 244.859375 279.355469 245.253906 280.902344 C 245.648438 282.449219 245.910156 284.019531 246.035156 285.609375 C 246.164062 287.199219 246.15625 288.789062 246.011719 290.378906 C 245.867188 291.96875 245.589844 293.535156 245.175781 295.074219 C 244.765625 296.617188 244.226562 298.113281 243.558594 299.5625 C 242.890625 301.011719 242.105469 302.394531 241.203125 303.710938 C 240.300781 305.027344 239.292969 306.257812 238.179688 307.402344 C 237.066406 308.542969 235.863281 309.585938 234.574219 310.523438 C 233.28125 311.464844 231.921875 312.285156 230.492188 312.992188 C 229.058594 313.699219 227.578125 314.277344 226.050781 314.730469 C 224.519531 315.183594 222.960938 315.507812 221.378906 315.695312 C 219.792969 315.882812 218.203125 315.933594 216.609375 315.851562 C 215.015625 315.765625 213.441406 315.546875 211.882812 315.195312 C 210.328125 314.84375 208.8125 314.363281 207.335938 313.75 C 205.863281 313.140625 204.453125 312.410156 203.101562 311.558594 C 201.753906 310.703125 200.484375 309.746094 199.300781 308.675781 L 153.6875 341.816406 C 155.457031 345.027344 156.699219 348.425781 157.417969 352.019531 C 158.136719 355.613281 158.292969 359.230469 157.886719 362.875 C 167.6875 364.515625 177.554688 365.335938 187.492188 365.339844 C 192.824219 365.347656 198.152344 365.113281 203.464844 364.640625 C 208.777344 364.167969 214.0625 363.453125 219.3125 362.503906 C 224.5625 361.554688 229.757812 360.367188 234.902344 358.949219 C 240.042969 357.527344 245.113281 355.878906 250.105469 354 C 255.101562 352.121094 260 350.023438 264.804688 347.703125 C 269.609375 345.382812 274.296875 342.851562 278.875 340.105469 C 283.449219 337.363281 287.894531 334.417969 292.203125 331.273438 C 296.511719 328.128906 300.671875 324.796875 304.679688 321.273438 C 303.140625 321.53125 301.597656 321.539062 300.054688 321.304688 Z M 137.324219 271.101562 C 137.453125 270.3125 137.65625 269.546875 137.933594 268.796875 C 138.210938 268.050781 138.558594 267.339844 138.976562 266.660156 C 139.394531 265.980469 139.875 265.347656 140.417969 264.765625 C 140.960938 264.179688 141.558594 263.65625 142.203125 263.1875 C 142.851562 262.722656 143.535156 262.324219 144.261719 261.992188 C 144.988281 261.660156 145.738281 261.402344 146.511719 261.21875 C 147.289062 261.035156 148.074219 260.929688 148.871094 260.902344 C 149.667969 260.871094 150.460938 260.921875 151.25 261.050781 C 152.035156 261.175781 152.800781 261.378906 153.550781 261.660156 C 154.296875 261.9375 155.007812 262.285156 155.6875 262.707031 C 156.367188 263.125 156.996094 263.605469 157.582031 264.148438 C 158.164062 264.695312 158.6875 265.289062 159.15625 265.9375 C 159.621094 266.582031 160.019531 267.269531 160.351562 267.996094 C 160.679688 268.71875 160.9375 269.472656 161.121094 270.246094 C 161.304688 271.023438 161.410156 271.808594 161.4375 272.605469 C 161.464844 273.402344 161.414062 274.195312 161.285156 274.984375 C 161.15625 275.769531 160.953125 276.535156 160.671875 277.285156 C 160.394531 278.03125 160.042969 278.742188 159.625 279.421875 C 159.203125 280.097656 158.722656 280.730469 158.179688 281.3125 C 157.632812 281.894531 157.039062 282.417969 156.390625 282.882812 C 155.742188 283.347656 155.058594 283.746094 154.332031 284.078125 C 153.605469 284.40625 152.855469 284.664062 152.078125 284.84375 C 151.300781 285.027344 150.515625 285.132812 149.71875 285.160156 C 148.921875 285.1875 148.128906 285.136719 147.34375 285.003906 C 146.558594 284.878906 145.792969 284.671875 145.046875 284.394531 C 144.304688 284.113281 143.59375 283.765625 142.917969 283.347656 C 142.242188 282.929688 141.613281 282.449219 141.03125 281.90625 C 140.449219 281.363281 139.925781 280.769531 139.460938 280.125 C 138.996094 279.476562 138.597656 278.792969 138.265625 278.070312 C 137.9375 277.347656 137.679688 276.597656 137.496094 275.824219 C 137.3125 275.050781 137.207031 274.265625 137.179688 273.46875 C 137.148438 272.675781 137.199219 271.886719 137.324219 271.101562 Z M 90.648438 284.824219 C 90.5625 285.355469 90.421875 285.871094 90.234375 286.375 C 90.046875 286.878906 89.8125 287.359375 89.527344 287.816406 C 89.246094 288.277344 88.921875 288.699219 88.554688 289.09375 C 88.1875 289.488281 87.785156 289.839844 87.347656 290.15625 C 86.910156 290.46875 86.449219 290.738281 85.960938 290.960938 C 85.46875 291.183594 84.964844 291.359375 84.441406 291.480469 C 83.917969 291.605469 83.386719 291.675781 82.847656 291.695312 C 82.308594 291.714844 81.777344 291.679688 81.246094 291.59375 C 80.714844 291.507812 80.195312 291.371094 79.691406 291.183594 C 79.1875 290.992188 78.707031 290.757812 78.25 290.472656 C 77.792969 290.191406 77.367188 289.867188 76.976562 289.5 C 76.582031 289.132812 76.226562 288.730469 75.914062 288.292969 C 75.597656 287.859375 75.332031 287.394531 75.105469 286.90625 C 74.882812 286.417969 74.710938 285.910156 74.585938 285.386719 C 74.464844 284.863281 74.394531 284.332031 74.375 283.792969 C 74.355469 283.257812 74.390625 282.722656 74.476562 282.191406 C 74.5625 281.660156 74.699219 281.144531 74.886719 280.640625 C 75.078125 280.136719 75.3125 279.65625 75.59375 279.199219 C 75.878906 278.738281 76.203125 278.316406 76.570312 277.921875 C 76.9375 277.527344 77.339844 277.175781 77.773438 276.859375 C 78.210938 276.546875 78.675781 276.277344 79.164062 276.054688 C 79.652344 275.832031 80.160156 275.65625 80.683594 275.535156 C 81.207031 275.410156 81.738281 275.339844 82.277344 275.320312 C 82.8125 275.300781 83.347656 275.335938 83.878906 275.421875 C 84.410156 275.507812 84.925781 275.648438 85.429688 275.835938 C 85.933594 276.023438 86.414062 276.261719 86.871094 276.542969 C 87.328125 276.828125 87.753906 277.152344 88.144531 277.519531 C 88.539062 277.886719 88.890625 278.285156 89.207031 278.722656 C 89.519531 279.160156 89.789062 279.621094 90.011719 280.113281 C 90.234375 280.601562 90.40625 281.109375 90.527344 281.632812 C 90.652344 282.15625 90.722656 282.683594 90.738281 283.222656 C 90.757812 283.757812 90.722656 284.292969 90.636719 284.824219 Z M 73.246094 187.6875 C 73.351562 187.039062 73.519531 186.410156 73.746094 185.796875 C 73.976562 185.1875 74.261719 184.601562 74.605469 184.046875 C 74.953125 183.488281 75.347656 182.972656 75.792969 182.492188 C 76.238281 182.015625 76.726562 181.585938 77.257812 181.203125 C 77.789062 180.820312 78.351562 180.492188 78.949219 180.222656 C 79.542969 179.953125 80.160156 179.742188 80.796875 179.589844 C 81.433594 179.441406 82.078125 179.355469 82.734375 179.332031 C 83.386719 179.308594 84.035156 179.351562 84.683594 179.457031 C 85.328125 179.5625 85.957031 179.730469 86.570312 179.960938 C 87.183594 180.1875 87.765625 180.476562 88.324219 180.820312 C 88.878906 181.164062 89.394531 181.558594 89.875 182.007812 C 90.351562 182.453125 90.78125 182.941406 91.164062 183.472656 C 91.546875 184.003906 91.871094 184.566406 92.144531 185.164062 C 92.414062 185.757812 92.625 186.375 92.773438 187.011719 C 92.925781 187.648438 93.011719 188.292969 93.03125 188.945312 C 93.054688 189.601562 93.011719 190.25 92.90625 190.894531 C 92.800781 191.542969 92.632812 192.171875 92.40625 192.785156 C 92.175781 193.394531 91.886719 193.980469 91.542969 194.535156 C 91.199219 195.09375 90.804688 195.609375 90.355469 196.085938 C 89.910156 196.566406 89.421875 196.996094 88.890625 197.378906 C 88.359375 197.757812 87.796875 198.085938 87.199219 198.355469 C 86.605469 198.625 85.988281 198.835938 85.351562 198.984375 C 84.714844 199.136719 84.070312 199.222656 83.414062 199.242188 C 82.761719 199.265625 82.109375 199.222656 81.464844 199.117188 C 80.820312 199.011719 80.191406 198.84375 79.578125 198.617188 C 78.964844 198.386719 78.382812 198.101562 77.824219 197.757812 C 77.269531 197.414062 76.753906 197.015625 76.273438 196.570312 C 75.796875 196.125 75.367188 195.636719 74.984375 195.105469 C 74.601562 194.574219 74.273438 194.011719 74.003906 193.417969 C 73.734375 192.824219 73.523438 192.207031 73.371094 191.570312 C 73.222656 190.933594 73.136719 190.289062 73.113281 189.636719 C 73.089844 188.980469 73.132812 188.332031 73.234375 187.6875 Z M 176.507812 94.652344 C 176.351562 95.609375 176.105469 96.539062 175.769531 97.445312 C 175.429688 98.355469 175.007812 99.21875 174.5 100.042969 C 173.992188 100.867188 173.40625 101.632812 172.746094 102.34375 C 172.089844 103.050781 171.367188 103.691406 170.582031 104.257812 C 169.796875 104.824219 168.964844 105.308594 168.082031 105.710938 C 167.203125 106.113281 166.289062 106.425781 165.347656 106.648438 C 164.40625 106.871094 163.453125 107 162.484375 107.035156 C 161.515625 107.070312 160.554688 107.011719 159.597656 106.855469 C 158.644531 106.699219 157.710938 106.453125 156.804688 106.117188 C 155.898438 105.777344 155.03125 105.355469 154.207031 104.84375 C 153.382812 104.335938 152.617188 103.753906 151.910156 103.09375 C 151.199219 102.433594 150.5625 101.710938 149.996094 100.925781 C 149.429688 100.140625 148.945312 99.304688 148.542969 98.425781 C 148.140625 97.542969 147.832031 96.632812 147.609375 95.691406 C 147.386719 94.75 147.257812 93.792969 147.222656 92.828125 C 147.1875 91.859375 147.25 90.898438 147.402344 89.941406 C 147.558594 88.984375 147.804688 88.054688 148.144531 87.148438 C 148.484375 86.238281 148.90625 85.375 149.417969 84.550781 C 149.925781 83.726562 150.511719 82.960938 151.171875 82.253906 C 151.832031 81.546875 152.554688 80.910156 153.339844 80.34375 C 154.125 79.777344 154.957031 79.292969 155.839844 78.890625 C 156.71875 78.488281 157.632812 78.175781 158.574219 77.957031 C 159.515625 77.734375 160.472656 77.605469 161.4375 77.570312 C 162.40625 77.539062 163.367188 77.597656 164.324219 77.753906 C 165.277344 77.910156 166.207031 78.15625 167.113281 78.496094 C 168.019531 78.832031 168.882812 79.257812 169.707031 79.765625 C 170.527344 80.273438 171.292969 80.859375 172 81.515625 C 172.710938 82.175781 173.347656 82.898438 173.910156 83.683594 C 174.476562 84.46875 174.960938 85.300781 175.363281 86.179688 C 175.765625 87.058594 176.078125 87.96875 176.300781 88.910156 C 176.523438 89.851562 176.652344 90.804688 176.6875 91.769531 C 176.71875 92.738281 176.660156 93.699219 176.507812 94.652344 Z M 231.652344 215.269531 C 231.546875 215.914062 231.378906 216.542969 231.152344 217.15625 C 230.921875 217.769531 230.636719 218.351562 230.292969 218.910156 C 229.949219 219.464844 229.554688 219.984375 229.105469 220.460938 C 228.660156 220.941406 228.171875 221.371094 227.640625 221.753906 C 227.113281 222.132812 226.546875 222.460938 225.953125 222.734375 C 225.359375 223.003906 224.742188 223.214844 224.105469 223.363281 C 223.46875 223.515625 222.824219 223.601562 222.171875 223.625 C 221.515625 223.648438 220.867188 223.605469 220.222656 223.5 C 219.578125 223.394531 218.945312 223.230469 218.335938 223 C 217.722656 222.773438 217.136719 222.484375 216.582031 222.140625 C 216.023438 221.796875 215.507812 221.402344 215.027344 220.957031 C 214.550781 220.511719 214.121094 220.023438 213.738281 219.492188 C 213.355469 218.960938 213.027344 218.398438 212.757812 217.800781 C 212.484375 217.207031 212.277344 216.589844 212.125 215.953125 C 211.976562 215.320312 211.890625 214.671875 211.867188 214.019531 C 211.84375 213.367188 211.882812 212.714844 211.988281 212.070312 C 212.09375 211.425781 212.261719 210.796875 212.488281 210.183594 C 212.71875 209.570312 213.003906 208.984375 213.347656 208.429688 C 213.691406 207.875 214.085938 207.355469 214.535156 206.878906 C 214.980469 206.398438 215.46875 205.96875 216 205.585938 C 216.527344 205.203125 217.09375 204.878906 217.6875 204.605469 C 218.28125 204.335938 218.898438 204.125 219.535156 203.972656 C 220.171875 203.824219 220.816406 203.738281 221.46875 203.714844 C 222.125 203.691406 222.773438 203.730469 223.417969 203.835938 C 224.0625 203.941406 224.695312 204.109375 225.304688 204.335938 C 225.917969 204.566406 226.503906 204.851562 227.058594 205.195312 C 227.617188 205.542969 228.132812 205.9375 228.613281 206.382812 C 229.089844 206.828125 229.519531 207.316406 229.902344 207.847656 C 230.285156 208.378906 230.613281 208.941406 230.882812 209.535156 C 231.15625 210.132812 231.367188 210.746094 231.515625 211.382812 C 231.667969 212.019531 231.753906 212.664062 231.777344 213.320312 C 231.796875 213.972656 231.757812 214.621094 231.652344 215.269531 Z M 304.859375 143.472656 C 304.75 144.132812 304.582031 144.777344 304.347656 145.402344 C 304.113281 146.03125 303.820312 146.628906 303.472656 147.195312 C 303.121094 147.765625 302.714844 148.296875 302.261719 148.785156 C 301.804688 149.273438 301.304688 149.714844 300.761719 150.105469 C 300.222656 150.496094 299.644531 150.832031 299.035156 151.109375 C 298.429688 151.386719 297.800781 151.605469 297.148438 151.757812 C 296.496094 151.910156 295.835938 152 295.167969 152.023438 C 294.5 152.046875 293.835938 152.003906 293.175781 151.898438 C 292.515625 151.792969 291.871094 151.621094 291.246094 151.386719 C 290.621094 151.152344 290.023438 150.859375 289.453125 150.507812 C 288.882812 150.15625 288.355469 149.753906 287.867188 149.296875 C 287.375 148.839844 286.9375 148.339844 286.546875 147.796875 C 286.15625 147.253906 285.820312 146.679688 285.542969 146.070312 C 285.265625 145.460938 285.050781 144.832031 284.898438 144.179688 C 284.746094 143.53125 284.65625 142.871094 284.632812 142.203125 C 284.609375 141.535156 284.652344 140.871094 284.761719 140.210938 C 284.867188 139.550781 285.039062 138.90625 285.273438 138.28125 C 285.507812 137.652344 285.800781 137.054688 286.152344 136.488281 C 286.507812 135.917969 286.910156 135.390625 287.367188 134.902344 C 287.824219 134.414062 288.324219 133.972656 288.867188 133.582031 C 289.410156 133.191406 289.984375 132.859375 290.59375 132.582031 C 291.203125 132.304688 291.832031 132.089844 292.484375 131.9375 C 293.136719 131.785156 293.796875 131.699219 294.464844 131.675781 C 295.132812 131.652344 295.796875 131.695312 296.457031 131.804688 C 297.113281 131.910156 297.757812 132.082031 298.382812 132.316406 C 299.007812 132.550781 299.601562 132.84375 300.167969 133.195312 C 300.738281 133.546875 301.265625 133.949219 301.753906 134.40625 C 302.242188 134.859375 302.679688 135.359375 303.070312 135.902344 C 303.460938 136.441406 303.792969 137.015625 304.070312 137.625 C 304.347656 138.230469 304.5625 138.859375 304.714844 139.507812 C 304.871094 140.160156 304.957031 140.816406 304.980469 141.484375 C 305.003906 142.152344 304.964844 142.8125 304.859375 143.472656 Z M 304.859375 143.472656 " fill-opacity="1" fill-rule="nonzero"/></g></svg>