<svg xmlns="http://www.w3.org/2000/svg" xmlns:xlink="http://www.w3.org/1999/xlink" width="500" zoomAndPan="magnify" viewBox="0 0 375 374.999991" height="500" preserveAspectRatio="xMidYMid meet" version="1.0"><defs><clipPath id="c8b5db7700"><path d="M 22.050781 22.050781 L 352.800781 22.050781 L 352.800781 352.800781 L 22.050781 352.800781 Z M 22.050781 22.050781 " clip-rule="nonzero"/></clipPath><clipPath id="c1f30918b2"><path d="M 13.730469 13.730469 L 360.980469 13.730469 L 360.980469 360.980469 L 13.730469 360.980469 Z M 13.730469 13.730469 " clip-rule="nonzero"/></clipPath></defs><g clip-path="url(#c8b5db7700)"><path fill="#004aad" d="M 352.9375 187.492188 C 352.9375 190.203125 352.871094 192.90625 352.738281 195.613281 C 352.605469 198.316406 352.40625 201.015625 352.140625 203.710938 C 351.875 206.40625 351.542969 209.089844 351.144531 211.769531 C 350.75 214.449219 350.285156 217.113281 349.757812 219.769531 C 349.230469 222.425781 348.636719 225.066406 347.980469 227.691406 C 347.320312 230.320312 346.597656 232.929688 345.8125 235.519531 C 345.027344 238.109375 344.175781 240.679688 343.265625 243.230469 C 342.351562 245.777344 341.378906 248.304688 340.34375 250.804688 C 339.308594 253.308594 338.210938 255.78125 337.050781 258.230469 C 335.894531 260.675781 334.675781 263.09375 333.402344 265.484375 C 332.125 267.871094 330.789062 270.226562 329.398438 272.546875 C 328.007812 274.871094 326.558594 277.15625 325.054688 279.410156 C 323.550781 281.660156 321.992188 283.875 320.378906 286.046875 C 318.765625 288.222656 317.101562 290.355469 315.382812 292.449219 C 313.664062 294.542969 311.898438 296.59375 310.078125 298.597656 C 308.261719 300.605469 306.394531 302.566406 304.480469 304.480469 C 302.566406 306.394531 300.605469 308.261719 298.597656 310.078125 C 296.59375 311.898438 294.542969 313.664062 292.449219 315.382812 C 290.355469 317.101562 288.222656 318.765625 286.046875 320.378906 C 283.875 321.992188 281.660156 323.550781 279.410156 325.054688 C 277.15625 326.558594 274.871094 328.007812 272.546875 329.398438 C 270.226562 330.789062 267.871094 332.125 265.484375 333.402344 C 263.09375 334.675781 260.675781 335.894531 258.230469 337.050781 C 255.78125 338.210938 253.308594 339.308594 250.804688 340.34375 C 248.304688 341.378906 245.777344 342.351562 243.230469 343.265625 C 240.679688 344.175781 238.109375 345.027344 235.519531 345.8125 C 232.929688 346.597656 230.320312 347.320312 227.691406 347.980469 C 225.066406 348.636719 222.425781 349.230469 219.769531 349.757812 C 217.113281 350.285156 214.449219 350.75 211.769531 351.144531 C 209.089844 351.542969 206.40625 351.875 203.710938 352.140625 C 201.015625 352.40625 198.316406 352.605469 195.613281 352.738281 C 192.90625 352.871094 190.203125 352.9375 187.492188 352.9375 C 184.785156 352.9375 182.082031 352.871094 179.375 352.738281 C 176.671875 352.605469 173.972656 352.40625 171.277344 352.140625 C 168.582031 351.875 165.898438 351.542969 163.21875 351.144531 C 160.539062 350.75 157.875 350.285156 155.21875 349.757812 C 152.5625 349.230469 149.921875 348.636719 147.292969 347.980469 C 144.667969 347.320312 142.058594 346.597656 139.46875 345.8125 C 136.878906 345.027344 134.308594 344.175781 131.757812 343.265625 C 129.207031 342.351562 126.683594 341.378906 124.183594 340.34375 C 121.679688 339.308594 119.207031 338.210938 116.757812 337.050781 C 114.308594 335.894531 111.890625 334.675781 109.503906 333.402344 C 107.117188 332.125 104.761719 330.789062 102.4375 329.398438 C 100.117188 328.007812 97.828125 326.558594 95.578125 325.054688 C 93.328125 323.550781 91.113281 321.992188 88.941406 320.378906 C 86.765625 318.765625 84.632812 317.101562 82.539062 315.382812 C 80.445312 313.664062 78.394531 311.898438 76.390625 310.078125 C 74.382812 308.261719 72.421875 306.394531 70.507812 304.480469 C 68.59375 302.566406 66.726562 300.605469 64.910156 298.597656 C 63.089844 296.59375 61.324219 294.542969 59.605469 292.449219 C 57.886719 290.355469 56.222656 288.222656 54.609375 286.046875 C 52.996094 283.875 51.4375 281.660156 49.933594 279.410156 C 48.429688 277.15625 46.980469 274.871094 45.589844 272.546875 C 44.195312 270.226562 42.863281 267.871094 41.585938 265.484375 C 40.308594 263.09375 39.09375 260.675781 37.933594 258.230469 C 36.777344 255.78125 35.679688 253.308594 34.644531 250.804688 C 33.609375 248.304688 32.632812 245.777344 31.722656 243.230469 C 30.808594 240.679688 29.960938 238.109375 29.175781 235.519531 C 28.390625 232.929688 27.667969 230.320312 27.007812 227.691406 C 26.351562 225.066406 25.757812 222.425781 25.230469 219.769531 C 24.703125 217.113281 24.238281 214.449219 23.839844 211.769531 C 23.445312 209.089844 23.113281 206.40625 22.847656 203.710938 C 22.582031 201.015625 22.382812 198.316406 22.25 195.613281 C 22.117188 192.90625 22.050781 190.203125 22.050781 187.492188 C 22.050781 184.785156 22.117188 182.082031 22.25 179.375 C 22.382812 176.671875 22.582031 173.972656 22.847656 171.277344 C 23.113281 168.582031 23.445312 165.898438 23.839844 163.21875 C 24.238281 160.539062 24.703125 157.875 25.230469 155.21875 C 25.757812 152.5625 26.351562 149.921875 27.007812 147.292969 C 27.667969 144.667969 28.390625 142.058594 29.175781 139.46875 C 29.960938 136.878906 30.808594 134.308594 31.722656 131.757812 C 32.632812 129.207031 33.609375 126.683594 34.644531 124.183594 C 35.679688 121.679688 36.777344 119.207031 37.933594 116.757812 C 39.09375 114.308594 40.308594 111.890625 41.585938 109.503906 C 42.863281 107.117188 44.195312 104.761719 45.589844 102.4375 C 46.980469 100.117188 48.429688 97.828125 49.933594 95.578125 C 51.4375 93.328125 52.996094 91.113281 54.609375 88.941406 C 56.222656 86.765625 57.886719 84.632812 59.605469 82.539062 C 61.324219 80.445312 63.089844 78.394531 64.910156 76.390625 C 66.726562 74.382812 68.59375 72.421875 70.507812 70.507812 C 72.421875 68.59375 74.382812 66.726562 76.390625 64.910156 C 78.394531 63.089844 80.445312 61.324219 82.539062 59.605469 C 84.632812 57.886719 86.765625 56.222656 88.941406 54.609375 C 91.113281 52.996094 93.328125 51.4375 95.578125 49.933594 C 97.828125 48.429688 100.117188 46.980469 102.4375 45.589844 C 104.761719 44.195312 107.117188 42.863281 109.503906 41.585938 C 111.890625 40.308594 114.308594 39.09375 116.757812 37.933594 C 119.207031 36.777344 121.679688 35.679688 124.179688 34.644531 C 126.683594 33.609375 129.207031 32.632812 131.757812 31.722656 C 134.308594 30.808594 136.878906 29.960938 139.46875 29.175781 C 142.058594 28.390625 144.667969 27.667969 147.292969 27.007812 C 149.921875 26.351562 152.5625 25.757812 155.21875 25.230469 C 157.875 24.703125 160.539062 24.238281 163.21875 23.839844 C 165.898438 23.445312 168.582031 23.113281 171.277344 22.847656 C 173.972656 22.582031 176.671875 22.382812 179.375 22.25 C 182.082031 22.117188 184.785156 22.050781 187.492188 22.050781 C 190.203125 22.050781 192.90625 22.117188 195.613281 22.25 C 198.316406 22.382812 201.015625 22.582031 203.710938 22.847656 C 206.40625 23.113281 209.089844 23.445312 211.769531 23.839844 C 214.449219 24.238281 217.113281 24.703125 219.769531 25.230469 C 222.425781 25.757812 225.066406 26.351562 227.691406 27.007812 C 230.320312 27.667969 232.929688 28.390625 235.519531 29.175781 C 238.109375 29.960938 240.679688 30.808594 243.230469 31.722656 C 245.777344 32.632812 248.304688 33.609375 250.804688 34.644531 C 253.308594 35.679688 255.78125 36.777344 258.230469 37.933594 C 260.675781 39.09375 263.09375 40.308594 265.484375 41.585938 C 267.871094 42.863281 270.226562 44.195312 272.546875 45.589844 C 274.871094 46.980469 277.15625 48.429688 279.410156 49.933594 C 281.660156 51.4375 283.875 52.996094 286.046875 54.609375 C 288.222656 56.222656 290.355469 57.886719 292.449219 59.605469 C 294.542969 61.324219 296.59375 63.089844 298.597656 64.910156 C 300.605469 66.726562 302.566406 68.59375 304.480469 70.507812 C 306.394531 72.421875 308.261719 74.382812 310.078125 76.390625 C 311.898438 78.394531 313.664062 80.445312 315.382812 82.539062 C 317.101562 84.632812 318.765625 86.765625 320.378906 88.941406 C 321.992188 91.113281 323.550781 93.328125 325.054688 95.578125 C 326.558594 97.828125 328.007812 100.117188 329.398438 102.4375 C 330.789062 104.761719 332.125 107.117188 333.402344 109.503906 C 334.675781 111.890625 335.894531 114.308594 337.050781 116.757812 C 338.210938 119.207031 339.308594 121.679688 340.34375 124.179688 C 341.378906 126.683594 342.351562 129.207031 343.265625 131.757812 C 344.175781 134.308594 345.027344 136.878906 345.8125 139.46875 C 346.597656 142.058594 347.320312 144.667969 347.980469 147.292969 C 348.636719 149.921875 349.230469 152.5625 349.757812 155.21875 C 350.285156 157.875 350.75 160.539062 351.144531 163.21875 C 351.542969 165.898438 351.875 168.582031 352.140625 171.277344 C 352.40625 173.972656 352.605469 176.671875 352.738281 179.375 C 352.871094 182.082031 352.9375 184.785156 352.9375 187.492188 Z M 352.9375 187.492188 " fill-opacity="1" fill-rule="nonzero"/></g><g clip-path="url(#c1f30918b2)"><path fill="#ffffff" d="M 187.691406 13.890625 C 91.859375 13.890625 13.894531 91.859375 13.894531 187.691406 C 13.894531 283.523438 91.859375 361.492188 187.691406 361.492188 C 283.523438 361.492188 361.488281 283.523438 361.488281 187.691406 C 361.488281 91.859375 283.523438 13.890625 187.691406 13.890625 Z M 187.691406 346.027344 C 100.386719 346.027344 29.359375 275 29.359375 187.691406 C 29.359375 100.382812 100.386719 29.355469 187.691406 29.355469 C 274.996094 29.355469 346.023438 100.382812 346.023438 187.691406 C 346.023438 275 274.996094 346.027344 187.691406 346.027344 Z M 187.691406 346.027344 " fill-opacity="1" fill-rule="nonzero"/></g><path fill="#ffffff" d="M 187.691406 35.042969 C 103.523438 35.042969 35.039062 103.523438 35.039062 187.691406 C 35.039062 271.859375 103.519531 340.339844 187.691406 340.339844 C 271.863281 340.339844 340.34375 271.859375 340.34375 187.691406 C 340.34375 103.523438 271.859375 35.042969 187.691406 35.042969 Z M 187.691406 324.878906 C 112.046875 324.878906 50.503906 263.335938 50.503906 187.695312 C 50.503906 112.054688 112.046875 50.507812 187.691406 50.507812 C 263.335938 50.507812 324.878906 112.050781 324.878906 187.691406 C 324.878906 263.332031 263.335938 324.875 187.691406 324.875 Z M 187.691406 324.878906 " fill-opacity="1" fill-rule="nonzero"/><path fill="#ffffff" d="M 276.800781 98.582031 C 274.34375 96.117188 270.523438 95.609375 267.503906 97.332031 L 161.003906 158.117188 C 159.800781 158.804688 158.804688 159.804688 158.117188 161.003906 L 97.332031 267.503906 C 95.605469 270.53125 96.117188 274.339844 98.582031 276.800781 C 100.070312 278.292969 102.050781 279.066406 104.050781 279.066406 C 105.363281 279.066406 106.683594 278.734375 107.882812 278.050781 L 214.382812 217.265625 C 215.585938 216.574219 216.582031 215.578125 217.269531 214.378906 L 278.054688 107.878906 C 279.78125 104.851562 279.269531 101.042969 276.804688 98.582031 Z M 166.53125 177.457031 L 197.925781 208.851562 L 124.789062 250.59375 L 166.527344 177.457031 Z M 208.855469 197.921875 L 177.460938 166.527344 L 250.597656 124.785156 L 208.859375 197.921875 Z M 208.855469 197.921875 " fill-opacity="1" fill-rule="nonzero"/><path fill="#ffffff" d="M 187.691406 102.882812 C 191.960938 102.882812 195.421875 99.421875 195.421875 95.152344 L 195.421875 68.257812 C 195.421875 63.992188 191.960938 60.527344 187.691406 60.527344 C 183.421875 60.527344 179.960938 63.992188 179.960938 68.257812 L 179.960938 95.152344 C 179.960938 99.421875 183.421875 102.882812 187.691406 102.882812 Z M 187.691406 102.882812 " fill-opacity="1" fill-rule="nonzero"/><path fill="#ffffff" d="M 187.691406 272.5 C 183.421875 272.5 179.960938 275.960938 179.960938 280.230469 L 179.960938 307.125 C 179.960938 311.390625 183.421875 314.855469 187.691406 314.855469 C 191.960938 314.855469 195.421875 311.390625 195.421875 307.125 L 195.421875 280.230469 C 195.421875 275.960938 191.960938 272.5 187.691406 272.5 Z M 187.691406 272.5 " fill-opacity="1" fill-rule="nonzero"/><path fill="#ffffff" d="M 307.128906 179.960938 L 280.230469 179.960938 C 275.960938 179.960938 272.5 183.421875 272.5 187.691406 C 272.5 191.960938 275.960938 195.421875 280.230469 195.421875 L 307.128906 195.421875 C 311.394531 195.421875 314.859375 191.960938 314.859375 187.691406 C 314.859375 183.421875 311.394531 179.960938 307.128906 179.960938 Z M 307.128906 179.960938 " fill-opacity="1" fill-rule="nonzero"/><path fill="#ffffff" d="M 102.882812 187.691406 C 102.882812 183.421875 99.421875 179.960938 95.152344 179.960938 L 68.253906 179.960938 C 63.988281 179.960938 60.523438 183.421875 60.523438 187.691406 C 60.523438 191.960938 63.988281 195.421875 68.253906 195.421875 L 95.152344 195.421875 C 99.421875 195.421875 102.882812 191.960938 102.882812 187.691406 Z M 102.882812 187.691406 " fill-opacity="1" fill-rule="nonzero"/><path fill="#ffffff" d="M 258.59375 247.660156 C 255.578125 244.640625 250.675781 244.640625 247.660156 247.660156 C 244.640625 250.679688 244.640625 255.574219 247.660156 258.59375 L 266.679688 277.613281 C 268.1875 279.125 270.167969 279.878906 272.144531 279.878906 C 274.125 279.878906 276.105469 279.125 277.613281 277.613281 C 280.632812 274.59375 280.632812 269.699219 277.613281 266.679688 Z M 258.59375 247.660156 " fill-opacity="1" fill-rule="nonzero"/><path fill="#ffffff" d="M 116.789062 127.722656 C 118.296875 129.234375 120.277344 129.988281 122.253906 129.988281 C 124.234375 129.988281 126.214844 129.234375 127.722656 127.722656 C 130.742188 124.703125 130.742188 119.808594 127.722656 116.789062 L 108.703125 97.769531 C 105.6875 94.75 100.785156 94.75 97.769531 97.769531 C 94.75 100.789062 94.75 105.683594 97.769531 108.703125 Z M 116.789062 127.722656 " fill-opacity="1" fill-rule="nonzero"/></svg>