<svg xmlns="http://www.w3.org/2000/svg" xmlns:xlink="http://www.w3.org/1999/xlink" width="500" zoomAndPan="magnify" viewBox="0 0 375 374.999991" height="500" preserveAspectRatio="xMidYMid meet" version="1.0"><rect x="-37.5" width="450" fill="#ffde59" y="-37.499999" height="449.999989" fill-opacity="1"/><path fill="#ffffff" d="M -13.957031 -13.996094 L -13.957031 388.988281 L 194.582031 388.988281 L 194.582031 307.867188 L 237.273438 286.890625 C 251.367188 279.925781 260.21875 265.832031 260.21875 250.097656 L 260.21875 208.308594 L 203.351562 236.25 C 200.15625 237.808594 197.207031 239.773438 194.582031 242.066406 L 194.582031 144.886719 C 194.582031 123.335938 205.972656 102.933594 224.410156 91.707031 L 299.714844 45.738281 L 299.714844 103.015625 C 299.714844 124.894531 288.570312 144.804688 269.886719 156.195312 L 227.851562 181.84375 L 227.851562 151.6875 C 227.851562 141.609375 233.175781 132.105469 241.78125 126.859375 L 257.761719 117.109375 C 260.136719 118.582031 262.921875 119.402344 265.871094 119.402344 C 274.476562 119.402344 281.441406 112.4375 281.441406 103.835938 C 281.441406 95.230469 274.476562 88.265625 265.871094 88.265625 C 257.269531 88.265625 250.304688 95.230469 250.304688 103.835938 C 250.304688 104.242188 250.304688 104.652344 250.386719 105.0625 L 234.40625 114.8125 C 221.625 122.597656 213.675781 136.773438 213.675781 151.6875 L 213.675781 207.078125 L 277.34375 168.238281 C 300.285156 154.226562 313.972656 129.808594 313.972656 102.933594 L 313.972656 20.417969 L 217.117188 79.578125 C 194.5 93.347656 180.488281 118.417969 180.488281 144.886719 L 180.488281 191.511719 C 174.589844 183.152344 166.96875 175.941406 158.039062 170.453125 L 61.101562 111.289062 L 61.101562 193.804688 C 61.101562 220.683594 74.785156 245.101562 97.730469 259.113281 L 161.398438 297.953125 L 161.398438 242.558594 C 161.398438 227.566406 153.449219 213.390625 140.667969 205.6875 L 124.6875 195.9375 C 124.6875 195.527344 124.769531 195.117188 124.769531 194.707031 C 124.769531 186.101562 117.804688 179.136719 109.203125 179.136719 C 100.597656 179.136719 93.632812 186.101562 93.632812 194.707031 C 93.632812 203.308594 100.597656 210.273438 109.203125 210.273438 C 112.152344 210.273438 114.9375 209.457031 117.3125 207.980469 L 133.292969 217.730469 C 141.894531 222.976562 147.222656 232.480469 147.222656 242.558594 L 147.222656 272.714844 L 105.105469 246.984375 C 86.421875 235.59375 75.277344 215.683594 75.277344 193.804688 L 75.277344 136.527344 L 150.582031 182.496094 C 169.019531 193.722656 180.40625 214.125 180.40625 235.675781 L 180.40625 374.8125 L 0.136719 374.8125 L 0.136719 0.179688 L 374.769531 0.179688 L 374.769531 374.8125 L 218.921875 374.8125 L 218.921875 388.988281 L 388.945312 388.988281 L 388.945312 -13.996094 Z M 194.582031 272.960938 C 194.582031 262.800781 200.484375 253.375 209.578125 248.871094 L 246.042969 230.925781 L 246.042969 250.015625 C 246.042969 260.339844 240.304688 269.519531 231.046875 274.105469 L 194.582031 292.050781 Z M 194.582031 272.960938 " fill-opacity="1" fill-rule="nonzero"/><path fill="#ffffff" d="M 90.109375 31.152344 L 90.109375 78.433594 C 90.109375 92.855469 97.730469 106.457031 110.019531 113.996094 L 165.167969 147.917969 L 165.167969 100.636719 C 165.167969 86.21875 157.546875 72.613281 145.253906 65.078125 Z M 150.992188 122.597656 L 117.476562 101.949219 C 109.367188 96.953125 104.367188 87.9375 104.367188 78.433594 L 104.367188 56.472656 L 137.878906 77.121094 C 145.992188 82.121094 150.992188 91.132812 150.992188 100.636719 Z M 150.992188 122.597656 " fill-opacity="1" fill-rule="nonzero"/></svg>