<svg xmlns="http://www.w3.org/2000/svg" xmlns:xlink="http://www.w3.org/1999/xlink" width="500" zoomAndPan="magnify" viewBox="0 0 375 374.999991" height="500" preserveAspectRatio="xMidYMid meet" version="1.0"><defs><clipPath id="af67c5565a"><path d="M 65.316406 20.125 L 309.816406 20.125 L 309.816406 354 L 65.316406 354 Z M 65.316406 20.125 " clip-rule="nonzero"/></clipPath></defs><rect x="-37.5" width="450" fill="#ffde59" y="-37.499999" height="449.999989" fill-opacity="1"/><g clip-path="url(#af67c5565a)"><path fill="#ffffff" d="M 141.46875 156.953125 C 139.886719 155.367188 137.691406 154.382812 135.265625 154.382812 C 132.839844 154.382812 130.644531 155.367188 129.0625 156.953125 C 127.480469 158.535156 126.496094 160.730469 126.496094 163.15625 C 126.496094 165.597656 127.472656 167.785156 129.035156 169.359375 L 129.0625 169.382812 C 130.636719 170.957031 132.824219 171.925781 135.265625 171.925781 C 137.691406 171.925781 139.886719 170.941406 141.46875 169.359375 C 143.050781 167.777344 144.035156 165.578125 144.035156 163.15625 C 144.035156 160.730469 143.050781 158.542969 141.46875 156.953125 M 245.914062 113.8125 C 244.339844 112.238281 242.152344 111.269531 239.710938 111.269531 C 237.285156 111.269531 235.089844 112.253906 233.507812 113.835938 C 231.921875 115.417969 230.9375 117.617188 230.9375 120.039062 C 230.9375 122.472656 231.914062 124.671875 233.480469 126.246094 L 233.507812 126.269531 C 235.082031 127.84375 237.269531 128.8125 239.710938 128.8125 C 242.132812 128.8125 244.332031 127.828125 245.914062 126.246094 C 247.496094 124.660156 248.480469 122.464844 248.480469 120.039062 C 248.480469 117.601562 247.503906 115.402344 245.9375 113.835938 Z M 193.71875 77.582031 L 193.691406 77.558594 C 192.109375 75.984375 189.910156 75.015625 187.488281 75.015625 C 185.0625 75.015625 182.867188 75.984375 181.285156 77.558594 L 181.257812 77.582031 C 179.683594 79.164062 178.71875 81.363281 178.71875 83.785156 C 178.71875 86.210938 179.691406 88.40625 181.257812 89.992188 L 181.285156 90.015625 C 182.867188 91.589844 185.0625 92.558594 187.488281 92.558594 C 189.914062 92.558594 192.109375 91.582031 193.691406 90.015625 L 193.71875 89.992188 C 195.289062 88.40625 196.257812 86.210938 196.257812 83.785156 C 196.257812 81.363281 195.28125 79.164062 193.71875 77.582031 Z M 180.921875 250.511719 L 139.953125 226.859375 C 136.417969 224.8125 133.617188 222.019531 131.6875 218.683594 L 131.679688 218.695312 C 129.742188 215.335938 128.699219 211.503906 128.699219 207.441406 L 128.699219 184.054688 C 125.308594 182.988281 122.269531 181.109375 119.804688 178.652344 L 119.785156 178.636719 L 119.777344 178.625 C 115.8125 174.652344 113.363281 169.183594 113.363281 163.171875 C 113.363281 157.128906 115.8125 151.648438 119.777344 147.691406 C 123.742188 143.726562 129.214844 141.277344 135.257812 141.277344 C 141.300781 141.277344 146.78125 143.734375 150.738281 147.691406 C 154.703125 151.65625 157.152344 157.128906 157.152344 163.171875 C 157.152344 169.214844 154.703125 174.695312 150.738281 178.652344 C 148.269531 181.117188 145.222656 182.996094 141.816406 184.0625 L 141.816406 207.441406 C 141.816406 209.207031 142.226562 210.796875 142.992188 212.128906 L 142.992188 212.152344 C 143.765625 213.5 144.945312 214.660156 146.453125 215.527344 L 180.914062 235.417969 L 180.914062 104.679688 C 177.523438 103.609375 174.484375 101.734375 172.015625 99.273438 L 171.992188 99.25 C 168.027344 95.285156 165.578125 89.820312 165.578125 83.796875 C 165.578125 77.769531 168.027344 72.296875 171.992188 68.332031 L 172.015625 68.308594 C 175.980469 64.34375 181.445312 61.894531 187.472656 61.894531 C 193.496094 61.894531 198.96875 64.34375 202.933594 68.308594 L 202.960938 68.332031 C 206.925781 72.296875 209.375 77.761719 209.375 83.796875 C 209.375 89.820312 206.921875 95.292969 202.960938 99.25 L 202.933594 99.273438 C 200.476562 101.734375 197.4375 103.609375 194.035156 104.679688 L 194.035156 192.320312 L 228.496094 172.429688 C 230.003906 171.5625 231.175781 170.402344 231.957031 169.054688 L 231.957031 169.03125 C 232.722656 167.699219 233.136719 166.101562 233.136719 164.332031 L 233.136719 140.933594 C 229.742188 139.863281 226.703125 137.988281 224.238281 135.527344 L 224.230469 135.511719 L 224.222656 135.503906 C 220.257812 131.53125 217.808594 126.058594 217.808594 120.050781 C 217.808594 114.003906 220.257812 108.527344 224.222656 104.570312 C 228.1875 100.605469 233.65625 98.15625 239.703125 98.15625 C 245.71875 98.15625 251.183594 100.605469 255.15625 104.570312 L 255.179688 104.59375 C 259.144531 108.566406 261.59375 114.039062 261.59375 120.058594 C 261.59375 126.101562 259.144531 131.582031 255.179688 135.539062 C 252.714844 138.003906 249.667969 139.882812 246.257812 140.949219 L 246.257812 164.34375 C 246.257812 168.40625 245.222656 172.238281 243.277344 175.597656 L 243.269531 175.585938 C 241.34375 178.921875 238.539062 181.722656 235.003906 183.761719 L 194.035156 207.414062 L 194.035156 279.660156 L 242.023438 251.960938 L 290.433594 224.011719 L 290.425781 224.003906 C 292.410156 222.859375 293.953125 221.34375 294.96875 219.585938 L 294.96875 219.5625 C 295.980469 217.808594 296.527344 215.722656 296.527344 213.433594 L 296.527344 101.589844 C 296.527344 99.300781 295.988281 97.210938 294.96875 95.460938 L 294.96875 95.4375 C 293.960938 93.675781 292.410156 92.164062 290.425781 91.015625 L 290.433594 91.007812 L 242.023438 63.0625 L 193.605469 35.101562 L 193.582031 35.101562 C 191.636719 33.980469 189.558594 33.417969 187.488281 33.417969 C 185.417969 33.417969 183.339844 33.980469 181.394531 35.101562 L 181.367188 35.101562 L 132.933594 63.054688 L 84.523438 91 L 84.535156 91.007812 C 82.546875 92.152344 81.007812 93.667969 79.996094 95.429688 L 79.996094 95.453125 C 78.988281 97.203125 78.441406 99.292969 78.441406 101.582031 L 78.441406 213.414062 C 78.441406 215.707031 78.976562 217.792969 79.996094 219.542969 L 79.996094 219.570312 C 81.007812 221.328125 82.554688 222.84375 84.535156 223.988281 L 84.523438 223.996094 L 132.933594 251.941406 L 180.921875 279.644531 Z M 111.816406 353.535156 C 108.390625 354.703125 104.660156 352.886719 103.480469 349.460938 C 102.304688 346.035156 104.128906 342.304688 107.554688 341.125 C 131.359375 332.953125 156.109375 328.535156 180.921875 327.875 L 180.921875 293.828125 C 178.84375 293.246094 176.796875 292.390625 174.828125 291.253906 L 174.835938 291.242188 L 126.425781 263.296875 L 78 235.34375 L 77.976562 235.34375 C 74.011719 233.054688 70.863281 229.898438 68.675781 226.125 L 68.667969 226.132812 C 66.488281 222.339844 65.316406 218.019531 65.316406 213.425781 L 65.316406 101.589844 C 65.316406 96.992188 66.488281 92.675781 68.667969 88.894531 L 68.675781 88.90625 C 70.855469 85.132812 74.011719 81.976562 77.976562 79.6875 L 78 79.6875 L 126.425781 51.726562 L 174.835938 23.777344 L 174.828125 23.769531 C 178.84375 21.445312 183.160156 20.285156 187.488281 20.285156 C 191.816406 20.285156 196.132812 21.445312 200.148438 23.769531 L 200.140625 23.777344 L 248.546875 51.726562 L 296.972656 79.679688 L 297 79.679688 C 300.964844 81.96875 304.113281 85.125 306.300781 88.894531 L 306.308594 88.886719 C 308.488281 92.667969 309.660156 96.984375 309.660156 101.582031 L 309.660156 213.414062 C 309.660156 218.011719 308.488281 222.328125 306.308594 226.109375 L 306.300781 226.101562 C 304.121094 229.871094 300.964844 233.027344 297 235.316406 L 296.972656 235.316406 L 248.546875 263.273438 L 200.140625 291.21875 L 200.148438 291.226562 C 198.179688 292.363281 196.132812 293.222656 194.054688 293.804688 L 194.054688 327.851562 C 218.867188 328.515625 243.605469 332.925781 267.421875 341.101562 C 270.847656 342.269531 272.671875 346.007812 271.496094 349.433594 C 270.316406 352.859375 266.585938 354.6875 263.160156 353.507812 C 238.648438 345.097656 213.078125 340.890625 187.488281 340.890625 C 161.898438 340.90625 136.328125 345.117188 111.816406 353.535156 Z M 111.816406 353.535156 " fill-opacity="1" fill-rule="nonzero"/></g></svg>