<svg xmlns="http://www.w3.org/2000/svg" xmlns:xlink="http://www.w3.org/1999/xlink" width="500" zoomAndPan="magnify" viewBox="0 0 375 374.999991" height="500" preserveAspectRatio="xMidYMid meet" version="1.0"><defs><g/></defs><rect x="-37.5" width="450" fill="#ffffff" y="-37.499999" height="449.999989" fill-opacity="1"/><rect x="-37.5" width="450" fill="#FF7F50" y="-37.499999" height="449.999989" fill-opacity="1"/><g fill="#fffffff" fill-opacity="1"><g transform="translate(101.882525, 331.462977)"><g><path d="M 39.96875 1.890625 C 31.925781 1.890625 24.851562 0.347656 18.75 -2.734375 C 12.65625 -5.816406 7.597656 -10 3.578125 -15.28125 L 20.9375 -31.859375 C 23.195312 -28.597656 25.925781 -26.117188 29.125 -24.421875 C 32.332031 -22.722656 35.882812 -21.875 39.78125 -21.875 C 43.675781 -21.875 47.101562 -22.691406 50.0625 -24.328125 C 53.019531 -25.960938 55.28125 -28.347656 56.84375 -31.484375 C 58.414062 -34.628906 59.203125 -38.46875 59.203125 -43 L 59.203125 -132.5625 L 85.046875 -132.5625 L 85.046875 -44.5 C 85.046875 -35.195312 83.191406 -27.054688 79.484375 -20.078125 C 75.773438 -13.097656 70.554688 -7.691406 63.828125 -3.859375 C 57.097656 -0.0234375 49.144531 1.890625 39.96875 1.890625 Z M 39.96875 1.890625 "/></g></g></g><g fill="#000000" fill-opacity="1"><g transform="translate(198.61105, 331.462977)"><g><path d="M 13.578125 0 L 13.578125 -132.5625 L 31.671875 -132.5625 L 85.421875 -46.578125 L 75.046875 -46.578125 L 128.59375 -132.5625 L 146.703125 -132.5625 L 146.703125 0 L 121.25 0 L 121.25 -88.625 L 126.140625 -87.109375 L 88.8125 -27.15625 L 71.46875 -27.15625 L 34.125 -87.109375 L 39.21875 -88.625 L 39.21875 0 Z M 13.578125 0 "/></g></g></g></svg>