<svg xmlns="http://www.w3.org/2000/svg" xmlns:xlink="http://www.w3.org/1999/xlink" width="500" zoomAndPan="magnify" viewBox="0 0 375 374.999991" height="500" preserveAspectRatio="xMidYMid meet" version="1.0"><defs><clipPath id="5b16d2a5b0"><path d="M 10.96875 10.96875 L 364 10.96875 L 364 364 L 10.96875 364 Z M 10.96875 10.96875 " clip-rule="nonzero"/></clipPath></defs><g clip-path="url(#5b16d2a5b0)"><path fill="#ffde59" d="M 303.984375 70.902344 C 274.171875 41.078125 232.949219 22.628906 187.441406 22.628906 C 141.933594 22.628906 100.722656 41.078125 70.902344 70.890625 C 41.078125 100.714844 22.628906 141.925781 22.628906 187.441406 C 22.628906 232.949219 41.078125 274.160156 70.902344 303.984375 C 100.714844 333.804688 141.925781 352.257812 187.441406 352.257812 C 232.960938 352.257812 274.171875 333.804688 303.984375 303.984375 C 333.804688 274.160156 352.257812 232.949219 352.257812 187.441406 C 352.257812 141.925781 333.804688 100.714844 303.984375 70.902344 M 187.441406 42.660156 L 187.597656 42.660156 L 187.742188 42.671875 C 227.613281 42.753906 263.691406 58.933594 289.828125 85.070312 C 315.960938 111.203125 332.152344 147.285156 332.234375 187.152344 L 332.246094 187.296875 L 332.246094 187.597656 L 332.234375 187.742188 C 332.152344 227.613281 315.960938 263.691406 289.828125 289.828125 C 263.691406 315.960938 227.613281 332.152344 187.742188 332.234375 L 187.597656 332.246094 L 187.289062 332.246094 L 187.144531 332.234375 C 147.304688 332.152344 111.214844 315.960938 85.078125 289.816406 L 85.070312 289.828125 C 58.933594 263.691406 42.742188 227.613281 42.660156 187.742188 L 42.648438 187.597656 L 42.648438 187.289062 L 42.660156 187.144531 C 42.742188 147.273438 58.921875 111.195312 85.058594 85.058594 C 111.195312 58.921875 147.273438 42.742188 187.144531 42.660156 L 187.289062 42.648438 Z M 54.472656 181.585938 L 75.144531 181.585938 C 78.378906 181.585938 80.992188 184.210938 80.992188 187.433594 C 80.992188 190.652344 78.367188 193.277344 75.144531 193.277344 L 54.472656 193.277344 C 55.960938 227.703125 70.539062 258.746094 93.332031 281.542969 L 93.320312 281.554688 L 93.332031 281.566406 C 116.109375 304.34375 147.148438 318.914062 181.585938 320.402344 L 181.585938 299.730469 C 181.585938 296.496094 184.210938 293.882812 187.433594 293.882812 C 190.664062 293.882812 193.277344 296.507812 193.277344 299.730469 L 193.277344 320.402344 C 227.703125 318.914062 258.746094 304.335938 281.542969 281.542969 C 304.335938 258.753906 318.914062 227.703125 320.402344 193.277344 L 299.730469 193.277344 C 296.496094 193.277344 293.882812 190.652344 293.882812 187.433594 C 293.882812 184.210938 296.507812 181.585938 299.730469 181.585938 L 320.402344 181.585938 C 318.914062 147.160156 304.335938 116.121094 281.542969 93.320312 C 258.753906 70.53125 227.703125 55.960938 193.277344 54.472656 L 193.277344 75.144531 C 193.277344 78.378906 190.652344 80.992188 187.433594 80.992188 C 184.199219 80.992188 181.585938 78.367188 181.585938 75.144531 L 181.585938 54.472656 C 147.160156 55.960938 116.121094 70.53125 93.320312 93.320312 C 70.53125 116.121094 55.960938 147.160156 54.472656 181.585938 Z M 191.574219 183.332031 L 208.910156 200.660156 L 224.730469 165.738281 L 237.648438 137.246094 L 209.136719 150.15625 L 174.214844 165.976562 M 174.214844 165.964844 L 191.542969 183.300781 M 170.539062 235.367188 L 127.933594 254.664062 C 126.457031 255.328125 124.722656 255.378906 123.140625 254.664062 C 120.210938 253.34375 118.898438 249.886719 120.21875 246.953125 L 139.519531 204.335938 L 158.820312 161.730469 L 158.828125 161.742188 L 158.859375 161.679688 L 158.871094 161.660156 L 158.890625 161.617188 L 158.921875 161.554688 L 158.933594 161.523438 L 158.953125 161.492188 L 159.003906 161.390625 L 159.015625 161.371094 L 159.046875 161.308594 L 159.066406 161.253906 L 159.078125 161.246094 L 159.109375 161.183594 L 159.140625 161.132812 L 159.140625 161.121094 L 159.167969 161.070312 L 159.199219 161.007812 L 159.210938 160.996094 L 159.242188 160.957031 L 159.273438 160.894531 L 159.292969 160.875 L 159.3125 160.84375 L 159.34375 160.789062 L 159.367188 160.75 L 159.375 160.738281 L 159.386719 160.730469 L 159.429688 160.675781 L 159.457031 160.625 L 159.46875 160.617188 L 159.511719 160.554688 L 159.550781 160.5 L 159.59375 160.449219 L 159.632812 160.398438 L 159.746094 160.285156 L 159.769531 160.253906 L 159.871094 160.152344 L 159.921875 160.097656 L 159.953125 160.058594 L 160.066406 159.945312 L 160.121094 159.902344 L 160.160156 159.851562 L 160.171875 159.839844 L 160.210938 159.808594 L 160.265625 159.757812 L 160.285156 159.738281 L 160.316406 159.71875 L 160.367188 159.664062 L 160.398438 159.632812 L 160.417969 159.625 L 160.472656 159.574219 L 160.523438 159.542969 L 160.523438 159.53125 L 160.574219 159.488281 L 160.625 159.449219 L 160.636719 159.4375 L 160.675781 159.40625 L 160.730469 159.367188 L 160.75 159.34375 L 160.78125 159.324219 L 160.832031 159.292969 L 160.863281 159.273438 L 160.882812 159.253906 L 160.945312 159.222656 L 160.996094 159.191406 L 161.007812 159.179688 L 161.058594 159.148438 L 161.121094 159.117188 L 161.132812 159.109375 L 161.183594 159.078125 L 161.246094 159.046875 L 161.265625 159.035156 L 161.296875 159.015625 L 161.308594 159.003906 L 161.359375 158.984375 L 161.390625 158.964844 L 161.410156 158.953125 L 161.472656 158.921875 L 161.523438 158.902344 L 161.535156 158.890625 L 161.597656 158.859375 L 161.648438 158.828125 L 161.660156 158.828125 L 161.710938 158.796875 L 161.773438 158.777344 L 161.792969 158.765625 L 161.832031 158.746094 L 161.832031 158.734375 L 161.917969 158.707031 L 204.441406 139.445312 L 247.054688 120.148438 C 249.988281 118.824219 253.449219 120.136719 254.769531 123.070312 C 255.480469 124.648438 255.429688 126.394531 254.769531 127.859375 L 235.460938 170.464844 L 216.191406 213.011719 L 216.160156 213.082031 L 216.128906 213.144531 L 216.097656 213.21875 L 216.078125 213.269531 L 216.035156 213.351562 L 216.015625 213.390625 L 215.964844 213.484375 L 215.941406 213.515625 L 215.878906 213.621094 L 215.871094 213.640625 L 215.808594 213.742188 L 215.789062 213.765625 L 215.726562 213.878906 L 215.714844 213.886719 L 215.644531 214 L 215.632812 214.011719 L 215.5625 214.125 L 215.550781 214.125 L 215.386719 214.351562 L 215.292969 214.464844 L 215.28125 214.464844 L 215.199219 214.570312 L 215.1875 214.578125 L 215.105469 214.683594 L 215.097656 214.695312 L 215.003906 214.796875 L 214.992188 214.808594 L 214.898438 214.898438 L 214.890625 214.910156 L 214.785156 215.003906 L 214.777344 215.011719 L 214.671875 215.097656 L 214.664062 215.105469 L 214.558594 215.199219 L 214.558594 215.210938 L 214.445312 215.300781 L 214.332031 215.386719 L 214.21875 215.46875 L 214.21875 215.476562 L 214.105469 215.550781 L 214.09375 215.5625 L 213.980469 215.632812 L 213.96875 215.644531 L 213.855469 215.707031 L 213.835938 215.726562 L 213.734375 215.789062 L 213.710938 215.796875 L 213.609375 215.859375 L 213.578125 215.882812 L 213.484375 215.933594 L 213.359375 215.996094 L 213.308594 216.015625 L 213.238281 216.046875 L 213.175781 216.078125 L 213.101562 216.109375 Z M 137.246094 237.636719 L 165.746094 224.730469 L 200.671875 208.910156 L 183.332031 191.574219 L 183.3125 191.550781 L 165.976562 174.214844 L 150.15625 209.136719 Z M 187.441406 10.9375 C 236.183594 10.9375 280.316406 30.703125 312.253906 62.628906 C 344.183594 94.570312 363.949219 138.691406 363.949219 187.441406 C 363.949219 236.183594 344.183594 280.316406 312.246094 312.253906 C 280.316406 344.195312 236.171875 363.957031 187.433594 363.957031 C 138.703125 363.957031 94.558594 344.195312 62.628906 312.253906 C 30.703125 280.316406 10.9375 236.183594 10.9375 187.441406 C 10.9375 138.703125 30.703125 94.570312 62.628906 62.628906 C 94.570312 30.691406 138.691406 10.9375 187.441406 10.9375 Z M 187.441406 10.9375 " fill-opacity="1" fill-rule="nonzero"/></g></svg>