<svg xmlns="http://www.w3.org/2000/svg" xmlns:xlink="http://www.w3.org/1999/xlink" width="500" zoomAndPan="magnify" viewBox="0 0 375 374.999991" height="500" preserveAspectRatio="xMidYMid meet" version="1.0"><defs><clipPath id="48926a3792"><path d="M 52.289062 0 L 337.5 0 L 337.5 375 L 52.289062 375 Z M 52.289062 0 " clip-rule="nonzero"/></clipPath><clipPath id="eb6ef1b05d"><path d="M 68.589844 14.480469 L 321.339844 14.480469 L 321.339844 360 L 68.589844 360 Z M 68.589844 14.480469 " clip-rule="nonzero"/></clipPath></defs><g clip-path="url(#48926a3792)"><path fill="#ffde59" d="M 52.289062 0 L 337.5 0 L 337.5 375.453125 L 52.289062 375.453125 Z M 52.289062 0 " fill-opacity="1" fill-rule="nonzero"/></g><g clip-path="url(#eb6ef1b05d)"><path fill="#ffffff" d="M 147.3125 155.921875 C 145.675781 154.285156 143.40625 153.265625 140.898438 153.265625 C 138.390625 153.265625 136.121094 154.285156 134.484375 155.921875 C 132.851562 157.554688 131.832031 159.828125 131.832031 162.332031 C 131.832031 164.855469 132.839844 167.117188 134.460938 168.746094 L 134.484375 168.773438 C 136.113281 170.398438 138.375 171.398438 140.898438 171.398438 C 143.40625 171.398438 145.675781 170.382812 147.3125 168.746094 C 148.945312 167.109375 149.964844 164.839844 149.964844 162.332031 C 149.964844 159.828125 148.945312 157.566406 147.3125 155.921875 M 255.277344 111.328125 C 253.648438 109.699219 251.386719 108.699219 248.863281 108.699219 C 246.359375 108.699219 244.085938 109.714844 242.449219 111.351562 C 240.816406 112.988281 239.796875 115.257812 239.796875 117.765625 C 239.796875 120.28125 240.804688 122.550781 242.425781 124.179688 L 242.449219 124.203125 C 244.078125 125.832031 246.339844 126.832031 248.863281 126.832031 C 251.371094 126.832031 253.640625 125.8125 255.277344 124.179688 C 256.914062 122.542969 257.929688 120.269531 257.929688 117.765625 C 257.929688 115.242188 256.921875 112.972656 255.300781 111.351562 Z M 201.320312 73.875 L 201.292969 73.851562 C 199.65625 72.222656 197.386719 71.222656 194.882812 71.222656 C 192.375 71.222656 190.105469 72.222656 188.46875 73.851562 L 188.441406 73.875 C 186.816406 75.511719 185.8125 77.78125 185.8125 80.289062 C 185.8125 82.796875 186.824219 85.066406 188.441406 86.703125 L 188.46875 86.726562 C 190.105469 88.355469 192.375 89.355469 194.882812 89.355469 C 197.386719 89.355469 199.65625 88.347656 201.292969 86.726562 L 201.320312 86.703125 C 202.945312 85.066406 203.949219 82.796875 203.949219 80.289062 C 203.949219 77.78125 202.9375 75.511719 201.320312 73.875 Z M 188.09375 252.636719 L 145.746094 228.183594 C 142.089844 226.070312 139.191406 223.179688 137.199219 219.734375 L 137.191406 219.746094 C 135.191406 216.273438 134.113281 212.3125 134.113281 208.109375 L 134.113281 183.9375 C 130.605469 182.832031 127.464844 180.894531 124.914062 178.351562 L 124.886719 178.324219 C 120.789062 174.21875 118.257812 168.5625 118.257812 162.351562 C 118.257812 156.101562 120.789062 150.4375 124.886719 146.347656 C 128.988281 142.25 134.640625 139.71875 140.890625 139.71875 C 147.136719 139.71875 152.800781 142.257812 156.890625 146.347656 C 160.988281 150.449219 163.523438 156.101562 163.523438 162.351562 C 163.523438 168.597656 160.988281 174.261719 156.890625 178.351562 C 154.34375 180.902344 151.191406 182.84375 147.667969 183.945312 L 147.667969 208.109375 C 147.667969 209.9375 148.09375 211.582031 148.886719 212.957031 L 148.886719 212.984375 C 149.6875 214.375 150.90625 215.578125 152.460938 216.472656 L 188.085938 237.035156 L 188.085938 101.886719 C 184.578125 100.78125 181.4375 98.839844 178.886719 96.300781 L 178.863281 96.273438 C 174.765625 92.175781 172.230469 86.527344 172.230469 80.296875 C 172.230469 74.066406 174.765625 68.410156 178.863281 64.3125 L 178.886719 64.289062 C 182.988281 60.1875 188.632812 57.65625 194.863281 57.65625 C 201.09375 57.65625 206.75 60.1875 210.847656 64.289062 L 210.875 64.3125 C 214.972656 68.410156 217.503906 74.058594 217.503906 80.296875 C 217.503906 86.527344 214.972656 92.183594 210.875 96.273438 L 210.847656 96.300781 C 208.308594 98.839844 205.164062 100.78125 201.652344 101.886719 L 201.652344 192.484375 L 237.273438 171.921875 C 238.832031 171.027344 240.039062 169.824219 240.851562 168.433594 L 240.851562 168.40625 C 241.640625 167.03125 242.066406 165.378906 242.066406 163.550781 L 242.066406 139.363281 C 238.5625 138.257812 235.421875 136.316406 232.871094 133.777344 L 232.863281 133.757812 L 232.851562 133.75 C 228.753906 129.644531 226.222656 123.988281 226.222656 117.773438 C 226.222656 111.527344 228.753906 105.863281 232.851562 101.773438 C 236.953125 97.675781 242.609375 95.140625 248.855469 95.140625 C 255.078125 95.140625 260.722656 97.675781 264.832031 101.773438 L 264.855469 101.796875 C 268.953125 105.90625 271.488281 111.5625 271.488281 117.78125 C 271.488281 124.03125 268.953125 129.695312 264.855469 133.785156 C 262.308594 136.332031 259.15625 138.273438 255.632812 139.378906 L 255.632812 163.558594 C 255.632812 167.761719 254.5625 171.722656 252.554688 175.195312 L 252.542969 175.183594 C 250.550781 178.628906 247.652344 181.527344 244 183.632812 L 201.652344 208.085938 L 201.652344 282.765625 L 251.257812 254.132812 L 301.296875 225.242188 L 301.289062 225.234375 C 303.34375 224.050781 304.933594 222.484375 305.988281 220.667969 L 305.988281 220.640625 C 307.03125 218.832031 307.597656 216.671875 307.597656 214.304688 L 307.597656 98.691406 C 307.597656 96.324219 307.039062 94.167969 305.988281 92.359375 L 305.988281 92.332031 C 304.941406 90.511719 303.34375 88.945312 301.289062 87.761719 L 301.296875 87.753906 L 251.257812 58.867188 L 201.207031 29.960938 L 201.179688 29.960938 C 199.171875 28.804688 197.023438 28.21875 194.882812 28.21875 C 192.742188 28.21875 190.589844 28.804688 188.582031 29.960938 L 188.554688 29.960938 L 138.488281 58.859375 L 88.445312 87.746094 L 88.457031 87.753906 C 86.402344 88.9375 84.808594 90.503906 83.765625 92.324219 L 83.765625 92.347656 C 82.722656 94.160156 82.15625 96.316406 82.15625 98.683594 L 82.15625 214.289062 C 82.15625 216.65625 82.714844 218.8125 83.765625 220.621094 L 83.765625 220.648438 C 84.808594 222.46875 86.410156 224.035156 88.457031 225.21875 L 88.445312 225.226562 L 138.488281 254.113281 L 188.09375 282.75 Z M 116.65625 359.128906 C 113.117188 360.339844 109.261719 358.460938 108.042969 354.917969 C 106.824219 351.375 108.710938 347.523438 112.253906 346.304688 C 136.859375 337.855469 162.441406 333.285156 188.09375 332.609375 L 188.09375 297.410156 C 185.945312 296.8125 183.832031 295.921875 181.792969 294.75 L 181.804688 294.742188 L 131.761719 265.851562 L 81.703125 236.957031 L 81.675781 236.957031 C 77.578125 234.589844 74.324219 231.324219 72.0625 227.425781 L 72.054688 227.4375 C 69.800781 223.511719 68.589844 219.046875 68.589844 214.296875 L 68.589844 98.691406 C 68.589844 93.941406 69.800781 89.476562 72.054688 85.570312 L 72.0625 85.578125 C 74.316406 81.679688 77.578125 78.417969 81.675781 76.050781 L 81.703125 76.050781 L 131.761719 47.144531 L 181.804688 18.257812 L 181.792969 18.25 C 185.945312 15.847656 190.410156 14.648438 194.882812 14.648438 C 199.355469 14.648438 203.816406 15.847656 207.96875 18.25 L 207.960938 18.257812 L 258 47.144531 L 308.058594 76.042969 L 308.085938 76.042969 C 312.183594 78.410156 315.4375 81.671875 317.699219 85.570312 L 317.707031 85.5625 C 319.960938 89.46875 321.171875 93.933594 321.171875 98.683594 L 321.171875 214.289062 C 321.171875 219.039062 319.960938 223.503906 317.707031 227.410156 L 317.699219 227.402344 C 315.445312 231.300781 312.183594 234.5625 308.085938 236.929688 L 308.058594 236.929688 L 258 265.824219 L 207.960938 294.714844 L 207.96875 294.722656 C 205.933594 295.898438 203.816406 296.785156 201.667969 297.386719 L 201.667969 332.582031 C 227.320312 333.269531 252.890625 337.828125 277.507812 346.277344 C 281.050781 347.488281 282.9375 351.351562 281.71875 354.890625 C 280.5 358.433594 276.648438 360.320312 273.105469 359.105469 C 247.765625 350.410156 221.332031 346.058594 194.882812 346.058594 C 168.429688 346.078125 141.996094 350.429688 116.65625 359.128906 Z M 116.65625 359.128906 " fill-opacity="1" fill-rule="nonzero"/></g></svg>