<svg xmlns="http://www.w3.org/2000/svg" xmlns:xlink="http://www.w3.org/1999/xlink" width="500" zoomAndPan="magnify" viewBox="0 0 375 374.999991" height="500" preserveAspectRatio="xMidYMid meet" version="1.0"><rect x="-37.5" width="450" fill="#ffde59" y="-37.499999" height="449.999989" fill-opacity="1"/><path fill="#ffffff" d="M 0.0390625 0 L 0.0390625 375 L 194.09375 375 L 194.09375 299.511719 L 233.820312 279.992188 C 246.9375 273.511719 255.171875 260.394531 255.171875 245.753906 L 255.171875 206.867188 L 202.253906 232.867188 C 199.28125 234.316406 196.535156 236.148438 194.09375 238.28125 L 194.09375 147.851562 C 194.09375 127.796875 204.695312 108.808594 221.851562 98.363281 L 291.925781 55.585938 L 291.925781 108.886719 C 291.925781 129.246094 281.554688 147.773438 264.167969 158.371094 L 225.054688 182.238281 L 225.054688 154.179688 C 225.054688 144.800781 230.007812 135.953125 238.015625 131.074219 L 252.886719 122 C 255.097656 123.375 257.6875 124.136719 260.433594 124.136719 C 268.441406 124.136719 274.921875 117.65625 274.921875 109.648438 C 274.921875 101.640625 268.441406 95.160156 260.433594 95.160156 C 252.425781 95.160156 245.945312 101.640625 245.945312 109.648438 C 245.945312 110.03125 245.945312 110.410156 246.023438 110.792969 L 231.152344 119.867188 C 219.257812 127.109375 211.863281 140.300781 211.863281 154.179688 L 211.863281 205.722656 L 271.109375 169.582031 C 292.457031 156.542969 305.191406 133.820312 305.191406 108.808594 L 305.191406 32.023438 L 215.066406 87.078125 C 194.019531 99.886719 180.980469 123.222656 180.980469 147.851562 L 180.980469 191.234375 C 175.492188 183.457031 168.398438 176.75 160.089844 171.640625 L 69.882812 116.585938 L 69.882812 193.371094 C 69.882812 218.382812 82.617188 241.105469 103.96875 254.144531 L 163.214844 290.285156 L 163.214844 238.742188 C 163.214844 224.785156 155.816406 211.59375 143.921875 204.425781 L 129.054688 195.355469 C 129.054688 194.972656 129.128906 194.589844 129.128906 194.210938 C 129.128906 186.203125 122.648438 179.722656 114.644531 179.722656 C 106.636719 179.722656 100.15625 186.203125 100.15625 194.210938 C 100.15625 202.214844 106.636719 208.699219 114.644531 208.699219 C 117.386719 208.699219 119.980469 207.933594 122.191406 206.5625 L 137.058594 215.636719 C 145.066406 220.515625 150.023438 229.363281 150.023438 238.742188 L 150.023438 266.800781 L 110.832031 242.859375 C 93.445312 232.257812 83.074219 213.730469 83.074219 193.371094 L 83.074219 140.070312 L 153.148438 182.847656 C 170.304688 193.296875 180.90625 212.28125 180.90625 232.335938 L 180.90625 361.808594 L 13.152344 361.808594 L 13.152344 13.191406 L 361.769531 13.191406 L 361.769531 361.808594 L 216.742188 361.808594 L 216.742188 375 L 374.960938 375 L 374.960938 0 Z M 194.09375 267.027344 C 194.09375 257.574219 199.585938 248.804688 208.050781 244.613281 L 241.980469 227.914062 L 241.980469 245.679688 C 241.980469 255.285156 236.644531 263.828125 228.027344 268.097656 L 194.09375 284.796875 Z M 194.09375 267.027344 " fill-opacity="1" fill-rule="nonzero"/><path fill="#ffffff" d="M 96.875 42.015625 L 96.875 86.011719 C 96.875 99.429688 103.96875 112.089844 115.40625 119.101562 L 166.722656 150.671875 L 166.722656 106.675781 C 166.722656 93.253906 159.628906 80.597656 148.191406 73.582031 Z M 153.53125 127.109375 L 122.34375 107.894531 C 114.796875 103.242188 110.144531 94.855469 110.144531 86.011719 L 110.144531 65.574219 L 141.332031 84.789062 C 148.878906 89.441406 153.53125 97.828125 153.53125 106.675781 Z M 153.53125 127.109375 " fill-opacity="1" fill-rule="nonzero"/></svg>