<svg xmlns="http://www.w3.org/2000/svg" xmlns:xlink="http://www.w3.org/1999/xlink" width="500" zoomAndPan="magnify" viewBox="0 0 375 374.999991" height="500" preserveAspectRatio="xMidYMid meet" version="1.0"><defs><clipPath id="035f52b2a1"><path d="M 48 28 L 327 28 L 327 347 L 48 347 Z M 48 28 " clip-rule="nonzero"/></clipPath><clipPath id="d460950acb"><path d="M 118.296875 -12.230469 L 395.46875 149.1875 L 256.796875 387.292969 L -20.371094 225.871094 Z M 118.296875 -12.230469 " clip-rule="nonzero"/></clipPath><clipPath id="165c05931a"><path d="M 326.03125 268.179688 L 187.429688 346.894531 L 48.894531 266.214844 L 48.964844 106.820312 L 187.566406 28.109375 L 326.097656 108.789062 Z M 326.03125 268.179688 " clip-rule="nonzero"/></clipPath><clipPath id="7d1d61b2d7"><path d="M 37.503906 17.046875 L 337.488281 17.046875 L 337.488281 357.953125 L 37.503906 357.953125 Z M 37.503906 17.046875 " clip-rule="nonzero"/></clipPath><clipPath id="80deb0d23c"><path d="M 182 67.4375 L 193 67.4375 L 193 105 L 182 105 Z M 182 67.4375 " clip-rule="nonzero"/></clipPath><clipPath id="4235b7f1b1"><path d="M 264.453125 176 L 300.9375 176 L 300.9375 186 L 264.453125 186 Z M 264.453125 176 " clip-rule="nonzero"/></clipPath><clipPath id="2d73d77126"><path d="M 74.039062 176 L 111 176 L 111 186 L 74.039062 186 Z M 74.039062 176 " clip-rule="nonzero"/></clipPath><clipPath id="7a368e81a7"><path d="M 162 292 L 213 292 L 213 307.4375 L 162 307.4375 Z M 162 292 " clip-rule="nonzero"/></clipPath></defs><g clip-path="url(#035f52b2a1)"><g clip-path="url(#d460950acb)"><g clip-path="url(#165c05931a)"><path fill="#ffffff" d="M 118.296875 -12.230469 L 395.46875 149.1875 L 256.796875 387.292969 L -20.371094 225.871094 Z M 118.296875 -12.230469 " fill-opacity="1" fill-rule="nonzero"/></g></g></g><g clip-path="url(#7d1d61b2d7)"><path fill="#ffde59" d="M 187.496094 29.453125 C 186.582031 29.453125 185.671875 29.6875 184.859375 30.15625 L 52.550781 106.546875 C 50.925781 107.484375 49.914062 109.234375 49.914062 111.113281 L 49.914062 263.886719 C 49.914062 265.765625 50.925781 267.515625 52.550781 268.453125 L 184.859375 344.839844 C 186.484375 345.777344 188.503906 345.777344 190.132812 344.839844 L 322.4375 268.453125 C 324.0625 267.515625 325.074219 265.765625 325.074219 263.886719 L 325.074219 111.113281 C 325.074219 109.234375 324.0625 107.484375 322.4375 106.546875 L 190.132812 30.15625 C 189.320312 29.6875 188.40625 29.453125 187.496094 29.453125 Z M 187.496094 357.953125 C 184.4375 357.953125 181.378906 357.167969 178.652344 355.589844 L 46.34375 279.203125 C 40.890625 276.054688 37.503906 270.1875 37.503906 263.886719 L 37.503906 111.113281 C 37.503906 104.8125 40.890625 98.945312 46.34375 95.796875 L 178.652344 19.410156 C 184.105469 16.257812 190.882812 16.257812 196.339844 19.410156 L 328.644531 95.796875 C 334.101562 98.945312 337.488281 104.8125 337.488281 111.113281 L 337.488281 263.886719 C 337.488281 270.1875 334.101562 276.054688 328.644531 279.203125 L 196.339844 355.589844 C 193.613281 357.167969 190.554688 357.953125 187.496094 357.953125 " fill-opacity="1" fill-rule="nonzero"/></g><path fill="#ffde59" d="M 226.421875 211.058594 C 212.578125 227.867188 212.578125 242.203125 212.578125 242.203125 L 212.578125 251.925781 L 162.402344 251.925781 L 162.402344 242.203125 C 162.402344 242.203125 162.402344 227.867188 148.558594 211.058594 C 148.558594 211.058594 131.421875 191.066406 141.089844 165.140625 C 150.5 139.902344 172.480469 131.945312 186.371094 131.949219 C 186.75 131.949219 187.125 131.953125 187.488281 131.964844 C 187.859375 131.953125 188.230469 131.949219 188.609375 131.949219 C 202.5 131.949219 224.480469 139.90625 233.890625 165.140625 C 243.558594 191.066406 226.421875 211.058594 226.421875 211.058594 Z M 245.949219 183.664062 C 246.277344 176.324219 245.105469 169.015625 242.46875 161.941406 C 239.878906 155 236.296875 148.769531 231.816406 143.425781 C 227.789062 138.625 223.042969 134.535156 217.707031 131.269531 C 213.019531 128.402344 207.949219 126.210938 202.640625 124.753906 C 197.953125 123.472656 193.101562 122.792969 188.609375 122.792969 C 188.234375 122.792969 187.859375 122.796875 187.488281 122.808594 C 187.121094 122.796875 186.746094 122.792969 186.371094 122.792969 C 181.878906 122.792969 177.027344 123.472656 172.339844 124.753906 C 167.03125 126.210938 161.960938 128.402344 157.273438 131.269531 C 151.9375 134.535156 147.191406 138.625 143.164062 143.425781 C 138.683594 148.769531 135.097656 155 132.511719 161.941406 C 129.875 169.015625 128.703125 176.324219 129.03125 183.664062 C 129.292969 189.503906 130.5 195.34375 132.621094 201.023438 C 136.035156 210.164062 140.703125 215.945312 141.53125 216.925781 C 147.695312 224.425781 150.578125 231.21875 151.914062 235.601562 C 153.125 239.585938 153.246094 242.179688 153.246094 242.203125 L 153.246094 254.519531 C 153.246094 258.144531 156.183594 261.082031 159.808594 261.082031 L 215.175781 261.082031 C 218.796875 261.082031 221.734375 258.144531 221.734375 254.519531 L 221.734375 242.296875 C 221.75 241.984375 221.90625 239.140625 223.316406 234.8125 C 224.683594 230.609375 227.554688 224.097656 233.449219 216.925781 C 234.277344 215.945312 238.945312 210.164062 242.355469 201.023438 C 244.476562 195.34375 245.6875 189.503906 245.949219 183.664062 " fill-opacity="1" fill-rule="nonzero"/><g clip-path="url(#80deb0d23c)"><path fill="#ffde59" d="M 192.066406 72.167969 C 192.066406 69.640625 190.019531 67.589844 187.488281 67.589844 C 184.960938 67.589844 182.910156 69.640625 182.910156 72.167969 L 182.910156 104.0625 L 192.066406 104.0625 L 192.066406 72.167969 " fill-opacity="1" fill-rule="nonzero"/></g><g clip-path="url(#4235b7f1b1)"><path fill="#ffde59" d="M 296.363281 176.460938 L 264.464844 176.460938 L 264.464844 185.617188 L 296.363281 185.617188 C 298.890625 185.617188 300.9375 183.566406 300.9375 181.039062 C 300.9375 178.511719 298.890625 176.460938 296.363281 176.460938 " fill-opacity="1" fill-rule="nonzero"/></g><path fill="#ffde59" d="M 245.15625 232.234375 L 238.683594 238.707031 L 261.238281 261.257812 C 263.023438 263.046875 265.921875 263.046875 267.710938 261.257812 C 269.5 259.472656 269.5 256.574219 267.710938 254.785156 L 245.15625 232.234375 " fill-opacity="1" fill-rule="nonzero"/><path fill="#ffde59" d="M 267.710938 107.292969 C 269.5 105.503906 269.5 102.605469 267.710938 100.820312 C 265.921875 99.03125 263.023438 99.03125 261.238281 100.820312 L 238.683594 123.371094 L 245.15625 129.84375 L 267.710938 107.292969 " fill-opacity="1" fill-rule="nonzero"/><g clip-path="url(#2d73d77126)"><path fill="#ffde59" d="M 110.511719 176.460938 L 78.617188 176.460938 C 76.089844 176.460938 74.039062 178.511719 74.039062 181.039062 C 74.039062 183.566406 76.089844 185.617188 78.617188 185.617188 L 110.511719 185.617188 L 110.511719 176.460938 " fill-opacity="1" fill-rule="nonzero"/></g><path fill="#ffde59" d="M 107.269531 254.785156 C 105.484375 256.574219 105.484375 259.472656 107.269531 261.257812 C 109.058594 263.046875 111.957031 263.046875 113.742188 261.257812 L 136.296875 238.707031 L 129.820312 232.234375 L 107.269531 254.785156 " fill-opacity="1" fill-rule="nonzero"/><path fill="#ffde59" d="M 129.820312 129.84375 L 136.296875 123.371094 L 113.742188 100.820312 C 111.957031 99.03125 109.058594 99.03125 107.269531 100.820312 C 105.484375 102.605469 105.484375 105.503906 107.269531 107.292969 L 129.820312 129.84375 " fill-opacity="1" fill-rule="nonzero"/><path fill="#ffde59" d="M 186.59375 143.644531 C 186.414062 140.980469 183.972656 139.066406 181.339844 139.503906 C 169.09375 141.542969 161.519531 147.683594 157.183594 152.785156 C 154.871094 155.507812 153.242188 158.207031 152.132812 160.414062 C 150.847656 162.96875 152.21875 166.058594 154.980469 166.800781 L 155.105469 166.835938 C 157.167969 167.390625 159.335938 166.421875 160.300781 164.515625 C 162.765625 159.625 169.015625 150.859375 182.820312 148.539062 C 185.117188 148.152344 186.761719 146.113281 186.605469 143.789062 L 186.59375 143.644531 " fill-opacity="1" fill-rule="nonzero"/><path fill="#ffde59" d="M 213.128906 265.367188 L 161.542969 265.367188 C 159.105469 265.367188 157.128906 267.414062 157.128906 269.941406 C 157.128906 272.46875 159.105469 274.519531 161.542969 274.519531 L 213.128906 274.519531 C 215.570312 274.519531 217.546875 272.46875 217.546875 269.941406 C 217.546875 267.414062 215.570312 265.367188 213.128906 265.367188 " fill-opacity="1" fill-rule="nonzero"/><path fill="#ffde59" d="M 213.128906 278.800781 L 161.542969 278.800781 C 159.105469 278.800781 157.128906 280.851562 157.128906 283.378906 C 157.128906 285.910156 159.105469 287.957031 161.542969 287.957031 L 213.128906 287.957031 C 215.570312 287.957031 217.546875 285.910156 217.546875 283.378906 C 217.546875 280.851562 215.570312 278.800781 213.128906 278.800781 " fill-opacity="1" fill-rule="nonzero"/><g clip-path="url(#7a368e81a7)"><path fill="#ffde59" d="M 210.574219 292.242188 L 164.101562 292.242188 C 162.742188 292.242188 162.0625 293.882812 163.023438 294.84375 L 170.722656 302.542969 C 172.976562 304.792969 175.875 306.289062 179.015625 306.789062 C 181.164062 307.128906 183.941406 307.402344 187.335938 307.402344 C 190.734375 307.402344 193.511719 307.128906 195.65625 306.789062 C 198.800781 306.289062 201.699219 304.792969 203.953125 302.542969 L 211.648438 294.84375 C 212.609375 293.882812 211.929688 292.242188 210.574219 292.242188 " fill-opacity="1" fill-rule="nonzero"/></g></svg>