<svg xmlns="http://www.w3.org/2000/svg" xmlns:xlink="http://www.w3.org/1999/xlink" width="500" zoomAndPan="magnify" viewBox="0 0 375 374.999991" height="500" preserveAspectRatio="xMidYMid meet" version="1.0"><defs><clipPath id="31430b1e08"><path d="M 3.417969 16 L 183 16 L 183 359 L 3.417969 359 Z M 3.417969 16 " clip-rule="nonzero"/></clipPath></defs><path fill="#ffde59" d="M 206.273438 176.066406 C 200.152344 176.882812 196.476562 182.597656 192.804688 187.085938 L 192.804688 204.230469 C 198.925781 197.289062 210.355469 185.453125 206.273438 176.066406 Z M 206.273438 176.066406 " fill-opacity="1" fill-rule="evenodd"/><path fill="#ffde59" d="M 228.3125 166.679688 C 221.78125 154.027344 205.457031 148.71875 192.804688 154.433594 L 192.804688 165.863281 C 193.210938 165.046875 194.027344 164.230469 194.4375 163.414062 C 194.4375 163.003906 195.253906 163.003906 195.253906 163.003906 C 203.007812 162.1875 216.476562 161.78125 220.558594 169.945312 C 228.3125 184.230469 201.375 213.207031 192.394531 223.003906 L 192.394531 238.105469 C 208.3125 222.597656 239.332031 189.128906 227.90625 167.085938 Z M 228.3125 166.679688 " fill-opacity="1" fill-rule="evenodd"/><path fill="#ffde59" d="M 249.945312 159.332031 C 240.558594 137.292969 216.070312 124.640625 192.804688 130.761719 L 192.804688 140.964844 C 193.210938 140.964844 193.621094 140.964844 194.027344 140.964844 C 213.210938 136.476562 233.621094 145.453125 241.375 164.230469 C 242.597656 167.085938 243.414062 169.945312 243.824219 173.210938 C 247.496094 201.371094 218.925781 233.207031 200.152344 251.167969 C 197.703125 253.617188 195.253906 255.65625 192.804688 257.699219 L 192.804688 269.535156 C 222.191406 245.042969 267.90625 200.964844 249.945312 160.148438 Z M 249.945312 159.332031 " fill-opacity="1" fill-rule="evenodd"/><path fill="#ffde59" d="M 355.65625 137.292969 C 337.699219 71.171875 281.78125 18.109375 211.171875 18.109375 C 140.558594 18.109375 198.925781 18.109375 192.804688 19.335938 L 192.804688 26.679688 C 228.722656 23.007812 256.066406 27.90625 286.679688 49.128906 C 322.1875 73.621094 344.636719 101.78125 354.433594 144.230469 C 365.453125 190.761719 354.433594 236.066406 327.085938 274.839844 C 310.761719 297.695312 294.027344 317.695312 274.027344 336.878906 C 323.003906 311.574219 354.027344 260.554688 360.148438 206.269531 C 362.1875 183.414062 360.148438 159.738281 355.25 137.699219 Z M 355.65625 137.292969 " fill-opacity="1" fill-rule="evenodd"/><path fill="#ffde59" d="M 238.109375 258.105469 C 264.230469 229.535156 287.902344 191.167969 271.578125 151.984375 C 258.925781 122.191406 225.046875 101.78125 192.804688 107.089844 L 192.804688 116.882812 C 216.070312 113.210938 240.558594 123.824219 254.84375 142.1875 C 271.984375 164.636719 271.578125 192.390625 256.882812 215.65625 C 251.988281 223.003906 246.273438 229.941406 241.375 237.289062 C 235.660156 245.859375 229.128906 251.167969 222.191406 258.515625 C 213.210938 268.308594 203.007812 276.878906 192.804688 285.453125 L 192.804688 299.738281 C 208.722656 287.085938 224.230469 273.617188 238.109375 258.515625 Z M 238.109375 258.105469 " fill-opacity="1" fill-rule="evenodd"/><path fill="#ffde59" d="M 295.660156 210.351562 C 303.824219 184.636719 302.597656 157.699219 289.128906 134.027344 C 277.292969 113.210938 258.109375 97.292969 235.660156 89.539062 C 222.191406 84.640625 207.496094 82.597656 192.804688 84.230469 L 192.804688 94.433594 C 220.964844 90.761719 248.722656 100.964844 267.90625 122.191406 C 291.167969 147.902344 296.882812 184.230469 283.007812 216.066406 C 266.679688 252.800781 224.640625 290.757812 192.804688 315.246094 L 192.804688 328.308594 C 201.375 321.777344 209.539062 314.429688 218.109375 308.308594 C 243.007812 289.941406 286.273438 240.148438 295.25 210.757812 Z M 295.660156 210.351562 " fill-opacity="1" fill-rule="evenodd"/><path fill="#ffde59" d="M 337.699219 131.167969 C 320.558594 86.273438 284.640625 54.027344 238.109375 42.191406 C 223.824219 38.519531 207.496094 38.109375 192.804688 38.925781 L 192.804688 47.496094 C 220.558594 45.046875 248.722656 51.988281 272.394531 66.679688 C 309.535156 89.539062 333.617188 128.3125 335.660156 171.984375 C 338.105469 231.574219 299.742188 283.820312 256.476562 320.960938 L 233.621094 340.960938 C 229.128906 344.632812 224.640625 347.898438 220.152344 351.574219 C 227.089844 351.164062 234.027344 349.941406 240.558594 348.714844 L 240.964844 348.714844 C 304.230469 292.796875 371.574219 222.597656 336.882812 131.167969 Z M 337.699219 131.167969 " fill-opacity="1" fill-rule="evenodd"/><path fill="#ffde59" d="M 271.167969 287.492188 C 279.742188 277.695312 287.902344 267.902344 295.25 257.289062 C 323.003906 218.105469 332.800781 178.921875 313.210938 132.800781 C 292.800781 84.230469 243.824219 58.109375 192.394531 61.78125 L 192.394531 71.578125 C 217.292969 68.722656 241.78125 74.84375 262.597656 88.3125 C 280.558594 100.148438 296.066406 117.699219 304.230469 137.699219 C 314.433594 163.003906 316.882812 187.902344 307.496094 213.617188 C 300.148438 234.839844 286.679688 252.390625 273.210938 269.941406 C 273.210938 269.941406 192.394531 343.410156 192.394531 343.410156 L 192.394531 351.164062 C 194.4375 351.164062 196.886719 351.574219 198.925781 351.980469 C 202.191406 349.941406 205.457031 347.082031 208.722656 344.632812 L 260.558594 300.144531 C 264.230469 296.0625 267.496094 291.980469 270.761719 287.902344 Z M 271.167969 287.492188 " fill-opacity="1" fill-rule="evenodd"/><g clip-path="url(#31430b1e08)"><path fill="#ffde59" d="M 32.398438 91.984375 C 20.152344 137.699219 19.339844 141.78125 7.910156 187.902344 C 5.050781 189.128906 3.417969 192.390625 3.417969 195.65625 C 3.417969 198.921875 7.09375 204.230469 11.992188 204.230469 C 21.378906 226.269531 43.011719 278.105469 51.992188 300.144531 C 50.359375 301.777344 49.132812 303.820312 49.132812 306.269531 C 49.132812 310.757812 52.808594 314.429688 57.296875 314.429688 C 61.785156 314.429688 60.5625 314.023438 61.785156 313.207031 L 119.746094 350.347656 L 182.601562 358.917969 L 182.601562 352.390625 C 182.601562 255.65625 182.601562 164.230469 182.601562 65.457031 L 182.601562 16.070312 C 182.601562 16.070312 97.296875 30.355469 97.296875 30.355469 L 32.808594 91.578125 Z M 11.582031 187.085938 L 34.847656 95.25 L 47.910156 103.824219 L 81.785156 126.679688 L 98.519531 138.109375 C 98.519531 138.515625 98.519531 138.925781 98.519531 139.332031 C 98.519531 139.742188 98.519531 140.558594 98.519531 140.964844 L 16.074219 187.902344 C 14.847656 187.496094 13.625 187.085938 11.992188 187.085938 C 10.359375 187.085938 11.992188 187.085938 11.582031 187.085938 Z M 138.925781 117.699219 L 109.539062 135.25 C 109.132812 134.433594 108.316406 134.027344 107.5 133.617188 L 108.316406 63.007812 C 108.316406 63.007812 109.132812 63.007812 109.539062 63.007812 C 110.355469 63.007812 111.171875 63.007812 111.988281 63.007812 L 143.007812 106.273438 C 140.152344 108.3125 138.519531 111.578125 138.519531 114.84375 C 138.519531 118.109375 138.519531 116.882812 138.925781 117.699219 Z M 111.171875 139.332031 C 111.171875 138.925781 111.171875 138.515625 111.171875 138.109375 L 140.558594 120.558594 C 140.558594 120.558594 140.96875 121.375 141.375 121.375 L 109.539062 179.738281 C 108.722656 179.738281 107.90625 179.738281 107.089844 179.332031 L 107.089844 145.046875 C 109.949219 144.230469 111.582031 141.78125 111.582031 139.332031 Z M 108.722656 203.414062 L 133.214844 264.226562 C 131.171875 265.453125 129.539062 266.675781 127.90625 268.71875 L 102.601562 252.390625 C 103.824219 250.757812 104.234375 249.125 104.234375 247.085938 C 104.234375 242.59375 101.378906 238.921875 97.296875 237.699219 L 103.824219 203.820312 C 104.234375 203.820312 104.640625 203.820312 105.457031 203.820312 C 106.273438 203.820312 107.5 203.820312 108.316406 203.820312 Z M 20.5625 195.25 L 94.03125 193.617188 C 94.847656 197.699219 97.703125 200.964844 101.378906 202.597656 L 94.4375 236.882812 C 90.765625 236.882812 87.90625 238.921875 85.867188 241.371094 L 19.746094 198.515625 C 20.152344 197.289062 20.5625 196.472656 20.5625 195.25 C 20.5625 194.023438 20.5625 195.25 20.5625 195.25 Z M 103.824219 179.738281 C 98.519531 180.554688 94.4375 185.046875 94.03125 190.351562 L 19.746094 191.984375 C 19.746094 191.167969 18.929688 190.761719 18.523438 190.351562 L 100.5625 144.230469 C 101.378906 145.046875 102.601562 145.453125 103.824219 145.863281 L 103.824219 180.148438 Z M 60.5625 298.921875 C 59.746094 298.511719 58.519531 298.105469 57.296875 298.105469 C 56.070312 298.105469 55.664062 298.105469 54.847656 298.105469 L 14.847656 203.414062 C 16.074219 203.003906 16.890625 202.1875 18.113281 201.371094 L 85.050781 244.636719 C 85.050781 245.453125 85.050781 246.269531 85.050781 247.085938 C 85.050781 250.351562 86.277344 252.800781 88.722656 254.839844 L 60.96875 298.921875 Z M 91.171875 256.472656 C 92.398438 256.472656 93.621094 257.289062 94.4375 257.289062 C 96.886719 257.289062 98.929688 256.472656 100.5625 255.25 L 126.273438 271.984375 C 125.457031 273.617188 125.050781 275.65625 125.050781 277.695312 C 125.050781 279.738281 125.050781 280.960938 125.867188 282.59375 L 64.644531 304.226562 C 64.644531 303.003906 63.828125 302.1875 63.011719 301.371094 L 90.765625 256.882812 Z M 178.519531 352.796875 L 178.519531 354.023438 L 119.746094 346.675781 L 63.828125 310.757812 C 64.644531 309.53125 65.050781 308.308594 65.050781 307.085938 L 127.5 285.042969 C 129.949219 289.125 134.847656 291.980469 140.152344 291.980469 C 145.457031 291.980469 143.824219 291.980469 145.867188 290.757812 L 179.335938 352.390625 L 178.519531 352.390625 Z M 179.335938 345.859375 L 148.722656 289.125 C 151.171875 287.085938 153.214844 284.636719 154.4375 281.371094 L 179.742188 282.59375 L 179.742188 345.449219 Z M 179.335938 279.738281 L 154.84375 278.511719 C 154.84375 278.511719 154.84375 277.695312 154.84375 277.289062 C 154.84375 275.246094 154.4375 273.207031 153.621094 271.167969 L 179.335938 253.617188 Z M 179.335938 249.535156 L 151.988281 268.308594 C 149.132812 264.636719 145.050781 262.59375 140.152344 262.59375 C 135.253906 262.59375 137.703125 262.59375 136.480469 263.003906 L 111.988281 202.1875 C 114.4375 200.554688 116.480469 198.515625 117.296875 195.65625 L 178.925781 207.902344 L 178.925781 206.679688 C 178.925781 206.679688 178.925781 250.351562 178.925781 250.351562 Z M 179.335938 204.230469 L 118.113281 191.984375 C 118.113281 191.984375 118.113281 191.984375 118.113281 191.578125 C 118.113281 187.496094 116.070312 183.414062 112.804688 181.371094 L 144.234375 123.824219 C 145.867188 124.230469 147.5 125.046875 149.132812 125.046875 C 150.765625 125.046875 153.214844 124.230469 154.84375 123.414062 L 178.925781 157.699219 L 178.925781 204.230469 Z M 179.335938 151.984375 L 157.703125 121.375 C 159.335938 119.332031 160.152344 117.292969 160.152344 114.433594 C 160.152344 111.578125 159.742188 110.351562 158.519531 108.71875 L 179.335938 86.679688 Z M 179.335938 82.191406 L 156.476562 106.273438 C 154.4375 104.640625 151.988281 103.414062 149.539062 103.414062 C 147.089844 103.414062 147.089844 103.414062 146.273438 103.824219 L 115.253906 60.558594 C 116.480469 59.332031 117.703125 58.109375 118.113281 56.476562 L 145.050781 60.148438 L 163.417969 62.597656 L 179.335938 64.640625 L 179.335938 65.457031 C 179.335938 65.457031 179.335938 81.78125 179.335938 81.78125 Z M 178.519531 20.152344 C 178.519531 20.558594 179.335938 20.558594 179.335938 20.558594 L 179.335938 57.703125 L 164.640625 22.601562 Z M 161.375 23.007812 L 177.703125 61.78125 L 118.519531 53.621094 C 118.519531 51.988281 118.113281 50.761719 117.296875 49.539062 L 156.886719 24.234375 L 161.375 23.417969 Z M 148.722656 25.046875 L 115.253906 46.679688 C 113.621094 45.457031 111.582031 44.640625 109.539062 44.640625 C 107.5 44.640625 106.273438 45.046875 105.050781 45.863281 L 100.5625 33.210938 L 149.132812 25.046875 Z M 102.195312 48.3125 C 100.96875 49.945312 100.152344 51.578125 100.152344 53.621094 C 100.152344 56.886719 102.195312 60.148438 104.640625 61.375 L 103.824219 132.800781 C 102.195312 132.800781 100.96875 133.617188 100.152344 134.84375 L 36.480469 92.394531 L 96.886719 34.84375 L 101.785156 48.3125 Z M 102.195312 48.3125 " fill-opacity="1" fill-rule="evenodd"/></g></svg>