<svg xmlns="http://www.w3.org/2000/svg" xmlns:xlink="http://www.w3.org/1999/xlink" width="500" zoomAndPan="magnify" viewBox="0 0 375 374.999991" height="500" preserveAspectRatio="xMidYMid meet" version="1.0"><defs><clipPath id="e15245734e"><path d="M 3.820312 29 L 371.320312 29 L 371.320312 136 L 3.820312 136 Z M 3.820312 29 " clip-rule="nonzero"/></clipPath><clipPath id="5bf26f8a77"><path d="M 153 277 L 222 277 L 222 346.964844 L 153 346.964844 Z M 153 277 " clip-rule="nonzero"/></clipPath><clipPath id="38b29c154d"><path d="M 172.0625 302.890625 L 202.9375 302.890625 L 202.9375 325.488281 L 172.0625 325.488281 Z M 172.0625 302.890625 " clip-rule="nonzero"/></clipPath></defs><g clip-path="url(#e15245734e)"><path fill="#1064a9" d="M 33.621094 135.394531 C 118.453125 50.5625 256.480469 50.5625 341.3125 135.394531 L 371.160156 105.546875 C 269.878906 4.265625 105.082031 4.265625 3.800781 105.546875 Z M 33.621094 135.394531 " fill-opacity="1" fill-rule="nonzero"/></g><path fill="#1064a9" d="M 76.09375 203.195312 C 137.496094 141.792969 237.410156 141.792969 298.804688 203.195312 L 328.652344 173.347656 C 250.800781 95.496094 124.117188 95.496094 46.246094 173.347656 Z M 76.09375 203.195312 " fill-opacity="1" fill-rule="nonzero"/><path fill="#1064a9" d="M 256.332031 270.996094 L 286.179688 241.148438 C 284.566406 239.535156 282.910156 237.960938 281.21875 236.425781 C 279.527344 234.890625 277.796875 233.398438 276.03125 231.949219 C 274.265625 230.5 272.464844 229.09375 270.628906 227.734375 C 268.792969 226.375 266.925781 225.058594 265.027344 223.789062 C 263.128906 222.519531 261.199219 221.296875 259.238281 220.125 C 257.277344 218.949219 255.292969 217.824219 253.277344 216.746094 C 251.261719 215.667969 249.222656 214.640625 247.15625 213.664062 C 245.089844 212.6875 243.003906 211.761719 240.894531 210.890625 C 238.78125 210.015625 236.652344 209.191406 234.5 208.421875 C 232.347656 207.652344 230.179688 206.9375 227.996094 206.273438 C 225.808594 205.609375 223.605469 205 221.390625 204.445312 C 219.175781 203.890625 216.945312 203.390625 214.707031 202.945312 C 212.464844 202.5 210.214844 202.109375 207.953125 201.773438 C 205.695312 201.4375 203.429688 201.160156 201.15625 200.933594 C 198.882812 200.710938 196.601562 200.542969 194.320312 200.429688 C 192.039062 200.320312 189.757812 200.261719 187.472656 200.261719 C 185.1875 200.261719 182.902344 200.320312 180.621094 200.429688 C 178.339844 200.542969 176.0625 200.710938 173.789062 200.933594 C 171.515625 201.160156 169.25 201.4375 166.988281 201.773438 C 164.730469 202.109375 162.480469 202.5 160.238281 202.945312 C 157.996094 203.390625 155.769531 203.890625 153.550781 204.445312 C 151.335938 205 149.136719 205.609375 146.949219 206.273438 C 144.761719 206.9375 142.59375 207.652344 140.441406 208.421875 C 138.292969 209.191406 136.160156 210.015625 134.050781 210.890625 C 131.941406 211.761719 129.851562 212.6875 127.785156 213.664062 C 125.722656 214.640625 123.679688 215.667969 121.667969 216.746094 C 119.652344 217.824219 117.664062 218.949219 115.703125 220.125 C 113.746094 221.296875 111.816406 222.519531 109.917969 223.789062 C 108.015625 225.058594 106.148438 226.375 104.3125 227.734375 C 102.480469 229.09375 100.679688 230.5 98.914062 231.949219 C 97.148438 233.398438 95.417969 234.890625 93.726562 236.425781 C 92.03125 237.960938 90.378906 239.535156 88.761719 241.148438 L 118.609375 270.996094 C 119.738281 269.871094 120.894531 268.773438 122.074219 267.707031 C 123.257812 266.636719 124.464844 265.597656 125.699219 264.589844 C 126.929688 263.578125 128.1875 262.601562 129.46875 261.652344 C 130.75 260.703125 132.054688 259.789062 133.378906 258.902344 C 134.707031 258.019531 136.050781 257.167969 137.421875 256.351562 C 138.789062 255.53125 140.175781 254.746094 141.582031 253.996094 C 142.988281 253.246094 144.410156 252.53125 145.851562 251.851562 C 147.292969 251.171875 148.75 250.527344 150.222656 249.917969 C 151.695312 249.308594 153.183594 248.738281 154.683594 248.199219 C 156.183594 247.664062 157.695312 247.164062 159.222656 246.703125 C 160.746094 246.242188 162.28125 245.816406 163.828125 245.429688 C 165.375 245.042969 166.929688 244.695312 168.492188 244.386719 C 170.054688 244.074219 171.625 243.804688 173.203125 243.570312 C 174.777344 243.335938 176.359375 243.140625 177.945312 242.984375 C 179.53125 242.828125 181.121094 242.710938 182.710938 242.632812 C 184.304688 242.554688 185.898438 242.515625 187.488281 242.515625 C 189.082031 242.515625 190.675781 242.554688 192.269531 242.632812 C 193.859375 242.710938 195.449219 242.828125 197.035156 242.984375 C 198.621094 243.140625 200.203125 243.335938 201.777344 243.570312 C 203.355469 243.804688 204.925781 244.074219 206.488281 244.386719 C 208.050781 244.695312 209.605469 245.042969 211.152344 245.429688 C 212.699219 245.816406 214.234375 246.242188 215.757812 246.703125 C 217.285156 247.164062 218.796875 247.664062 220.296875 248.199219 C 221.796875 248.738281 223.285156 249.308594 224.757812 249.917969 C 226.230469 250.527344 227.6875 251.171875 229.128906 251.851562 C 230.570312 252.53125 231.992188 253.246094 233.398438 253.996094 C 234.804688 254.746094 236.191406 255.53125 237.558594 256.351562 C 238.925781 257.167969 240.273438 258.019531 241.601562 258.902344 C 242.925781 259.789062 244.230469 260.703125 245.511719 261.652344 C 246.792969 262.601562 248.046875 263.578125 249.28125 264.589844 C 250.515625 265.597656 251.722656 266.636719 252.90625 267.707031 C 254.085938 268.773438 255.242188 269.871094 256.371094 270.996094 Z M 256.332031 270.996094 " fill-opacity="1" fill-rule="nonzero"/><g clip-path="url(#5bf26f8a77)"><path fill="#1064a9" d="M 221.894531 312.257812 C 221.894531 313.382812 221.839844 314.511719 221.726562 315.632812 C 221.617188 316.753906 221.453125 317.871094 221.230469 318.976562 C 221.011719 320.082031 220.738281 321.175781 220.410156 322.253906 C 220.082031 323.332031 219.703125 324.394531 219.273438 325.4375 C 218.839844 326.476562 218.359375 327.496094 217.828125 328.492188 C 217.296875 329.484375 216.714844 330.453125 216.089844 331.390625 C 215.460938 332.328125 214.792969 333.234375 214.074219 334.105469 C 213.359375 334.976562 212.605469 335.8125 211.804688 336.609375 C 211.007812 337.40625 210.171875 338.164062 209.300781 338.878906 C 208.429688 339.59375 207.523438 340.265625 206.585938 340.890625 C 205.648438 341.519531 204.683594 342.097656 203.6875 342.628906 C 202.695312 343.160156 201.675781 343.644531 200.632812 344.074219 C 199.589844 344.507812 198.53125 344.886719 197.449219 345.214844 C 196.371094 345.539062 195.277344 345.816406 194.171875 346.035156 C 193.066406 346.253906 191.953125 346.421875 190.828125 346.53125 C 189.707031 346.640625 188.582031 346.695312 187.453125 346.695312 C 186.324219 346.695312 185.199219 346.640625 184.078125 346.53125 C 182.957031 346.421875 181.839844 346.253906 180.734375 346.035156 C 179.628906 345.816406 178.535156 345.539062 177.457031 345.214844 C 176.375 344.886719 175.316406 344.507812 174.273438 344.074219 C 173.230469 343.644531 172.214844 343.160156 171.21875 342.628906 C 170.222656 342.097656 169.257812 341.519531 168.320312 340.890625 C 167.382812 340.265625 166.476562 339.59375 165.605469 338.878906 C 164.734375 338.164062 163.898438 337.40625 163.101562 336.609375 C 162.304688 335.8125 161.546875 334.976562 160.832031 334.105469 C 160.117188 333.234375 159.445312 332.328125 158.816406 331.390625 C 158.191406 330.453125 157.613281 329.484375 157.078125 328.492188 C 156.546875 327.496094 156.066406 326.476562 155.636719 325.4375 C 155.203125 324.394531 154.824219 323.332031 154.496094 322.253906 C 154.167969 321.175781 153.894531 320.082031 153.675781 318.976562 C 153.457031 317.871094 153.289062 316.753906 153.179688 315.632812 C 153.070312 314.511719 153.011719 313.382812 153.011719 312.257812 C 153.011719 311.128906 153.070312 310.003906 153.179688 308.882812 C 153.289062 307.757812 153.457031 306.644531 153.675781 305.539062 C 153.894531 304.429688 154.167969 303.339844 154.496094 302.257812 C 154.824219 301.179688 155.203125 300.117188 155.636719 299.078125 C 156.066406 298.035156 156.546875 297.015625 157.082031 296.023438 C 157.613281 295.027344 158.191406 294.0625 158.816406 293.121094 C 159.445312 292.183594 160.117188 291.28125 160.832031 290.40625 C 161.546875 289.535156 162.304688 288.703125 163.101562 287.902344 C 163.898438 287.105469 164.734375 286.351562 165.605469 285.632812 C 166.476562 284.917969 167.382812 284.246094 168.320312 283.621094 C 169.257812 282.996094 170.222656 282.414062 171.21875 281.882812 C 172.214844 281.351562 173.230469 280.871094 174.273438 280.4375 C 175.316406 280.007812 176.375 279.628906 177.457031 279.300781 C 178.535156 278.972656 179.628906 278.699219 180.734375 278.476562 C 181.839844 278.257812 182.957031 278.09375 184.078125 277.984375 C 185.199219 277.871094 186.324219 277.816406 187.453125 277.816406 C 188.582031 277.816406 189.707031 277.871094 190.828125 277.984375 C 191.953125 278.09375 193.066406 278.257812 194.171875 278.476562 C 195.277344 278.699219 196.371094 278.972656 197.449219 279.300781 C 198.53125 279.628906 199.589844 280.007812 200.632812 280.4375 C 201.675781 280.871094 202.695312 281.351562 203.6875 281.882812 C 204.683594 282.414062 205.648438 282.996094 206.585938 283.621094 C 207.523438 284.246094 208.429688 284.917969 209.300781 285.632812 C 210.171875 286.351562 211.007812 287.105469 211.804688 287.902344 C 212.605469 288.703125 213.359375 289.535156 214.074219 290.40625 C 214.792969 291.28125 215.460938 292.183594 216.089844 293.121094 C 216.714844 294.0625 217.296875 295.027344 217.828125 296.023438 C 218.359375 297.015625 218.839844 298.035156 219.273438 299.078125 C 219.703125 300.117188 220.082031 301.179688 220.410156 302.257812 C 220.738281 303.339844 221.011719 304.429688 221.230469 305.539062 C 221.453125 306.644531 221.617188 307.757812 221.726562 308.882812 C 221.839844 310.003906 221.894531 311.128906 221.894531 312.257812 Z M 221.894531 312.257812 " fill-opacity="1" fill-rule="nonzero"/></g></svg>