<svg xmlns="http://www.w3.org/2000/svg" xmlns:xlink="http://www.w3.org/1999/xlink" width="500" zoomAndPan="magnify" viewBox="0 0 375 374.999991" height="500" preserveAspectRatio="xMidYMid meet" version="1.0"><defs><clipPath id="b154fecf77"><path d="M 45.808594 60.257812 L 296.203125 60.257812 L 296.203125 357.988281 L 45.808594 357.988281 Z M 45.808594 60.257812 " clip-rule="nonzero"/></clipPath><clipPath id="6c49864a89"><path d="M 25.757812 34.546875 L 194 34.546875 L 194 358 L 25.757812 358 Z M 25.757812 34.546875 " clip-rule="nonzero"/></clipPath><clipPath id="db896a6ad9"><path d="M 25.007812 54.046875 L 25.007812 338.527344 C 25.007812 349.710938 34.074219 358.777344 45.257812 358.777344 L 329.742188 358.777344 C 340.925781 358.777344 349.992188 349.710938 349.992188 338.527344 L 349.992188 54.046875 C 349.992188 42.863281 340.925781 33.796875 329.742188 33.796875 L 45.257812 33.796875 C 34.074219 33.796875 25.007812 42.863281 25.007812 54.046875 Z M 25.007812 54.046875 " clip-rule="nonzero"/></clipPath><clipPath id="40ab2c1c9e"><path d="M 46.160156 34.695312 L 328.839844 34.695312 C 334.210938 34.695312 339.363281 36.828125 343.160156 40.628906 C 346.957031 44.425781 349.089844 49.574219 349.089844 54.945312 L 349.089844 337.625 C 349.089844 348.8125 340.023438 357.875 328.839844 357.875 L 46.160156 357.875 C 34.976562 357.875 25.910156 348.8125 25.910156 337.625 L 25.910156 54.945312 C 25.910156 43.761719 34.976562 34.695312 46.160156 34.695312 Z M 46.160156 34.695312 " clip-rule="nonzero"/></clipPath><clipPath id="2bfc4e60e4"><path d="M 96 34.546875 L 349.757812 34.546875 L 349.757812 358 L 96 358 Z M 96 34.546875 " clip-rule="nonzero"/></clipPath><clipPath id="ce50a9b511"><path d="M 25.007812 54.046875 L 25.007812 338.527344 C 25.007812 349.710938 34.074219 358.777344 45.257812 358.777344 L 329.742188 358.777344 C 340.925781 358.777344 349.992188 349.710938 349.992188 338.527344 L 349.992188 54.046875 C 349.992188 42.863281 340.925781 33.796875 329.742188 33.796875 L 45.257812 33.796875 C 34.074219 33.796875 25.007812 42.863281 25.007812 54.046875 Z M 25.007812 54.046875 " clip-rule="nonzero"/></clipPath><clipPath id="bf255bb980"><path d="M 46.160156 34.695312 L 328.839844 34.695312 C 334.210938 34.695312 339.363281 36.828125 343.160156 40.628906 C 346.957031 44.425781 349.089844 49.574219 349.089844 54.945312 L 349.089844 337.625 C 349.089844 348.8125 340.023438 357.875 328.839844 357.875 L 46.160156 357.875 C 34.976562 357.875 25.910156 348.8125 25.910156 337.625 L 25.910156 54.945312 C 25.910156 43.761719 34.976562 34.695312 46.160156 34.695312 Z M 46.160156 34.695312 " clip-rule="nonzero"/></clipPath><clipPath id="22c87d4030"><path d="M 25.757812 34.546875 L 194 34.546875 L 194 208 L 25.757812 208 Z M 25.757812 34.546875 " clip-rule="nonzero"/></clipPath><clipPath id="744903b4a2"><path d="M 25.007812 54.046875 L 25.007812 338.527344 C 25.007812 349.710938 34.074219 358.777344 45.257812 358.777344 L 329.742188 358.777344 C 340.925781 358.777344 349.992188 349.710938 349.992188 338.527344 L 349.992188 54.046875 C 349.992188 42.863281 340.925781 33.796875 329.742188 33.796875 L 45.257812 33.796875 C 34.074219 33.796875 25.007812 42.863281 25.007812 54.046875 Z M 25.007812 54.046875 " clip-rule="nonzero"/></clipPath><clipPath id="45d9657cb7"><path d="M 46.160156 34.695312 L 328.839844 34.695312 C 334.210938 34.695312 339.363281 36.828125 343.160156 40.628906 C 346.957031 44.425781 349.089844 49.574219 349.089844 54.945312 L 349.089844 337.625 C 349.089844 348.8125 340.023438 357.875 328.839844 357.875 L 46.160156 357.875 C 34.976562 357.875 25.910156 348.8125 25.910156 337.625 L 25.910156 54.945312 C 25.910156 43.761719 34.976562 34.695312 46.160156 34.695312 Z M 46.160156 34.695312 " clip-rule="nonzero"/></clipPath><clipPath id="356bb4abf0"><path d="M 193 34.546875 L 349.757812 34.546875 L 349.757812 235 L 193 235 Z M 193 34.546875 " clip-rule="nonzero"/></clipPath><clipPath id="a4efb85016"><path d="M 25.007812 54.046875 L 25.007812 338.527344 C 25.007812 349.710938 34.074219 358.777344 45.257812 358.777344 L 329.742188 358.777344 C 340.925781 358.777344 349.992188 349.710938 349.992188 338.527344 L 349.992188 54.046875 C 349.992188 42.863281 340.925781 33.796875 329.742188 33.796875 L 45.257812 33.796875 C 34.074219 33.796875 25.007812 42.863281 25.007812 54.046875 Z M 25.007812 54.046875 " clip-rule="nonzero"/></clipPath><clipPath id="3d1afbeaf2"><path d="M 46.160156 34.695312 L 328.839844 34.695312 C 334.210938 34.695312 339.363281 36.828125 343.160156 40.628906 C 346.957031 44.425781 349.089844 49.574219 349.089844 54.945312 L 349.089844 337.625 C 349.089844 348.8125 340.023438 357.875 328.839844 357.875 L 46.160156 357.875 C 34.976562 357.875 25.910156 348.8125 25.910156 337.625 L 25.910156 54.945312 C 25.910156 43.761719 34.976562 34.695312 46.160156 34.695312 Z M 46.160156 34.695312 " clip-rule="nonzero"/></clipPath><clipPath id="5b7235fefa"><path d="M 25.007812 33.796875 L 349.757812 33.796875 L 349.757812 358.546875 L 25.007812 358.546875 Z M 25.007812 33.796875 " clip-rule="nonzero"/></clipPath><clipPath id="306be3bf56"><path d="M 25.007812 54.046875 L 25.007812 338.527344 C 25.007812 349.710938 34.074219 358.777344 45.257812 358.777344 L 329.742188 358.777344 C 340.925781 358.777344 349.992188 349.710938 349.992188 338.527344 L 349.992188 54.046875 C 349.992188 42.863281 340.925781 33.796875 329.742188 33.796875 L 45.257812 33.796875 C 34.074219 33.796875 25.007812 42.863281 25.007812 54.046875 Z M 25.007812 54.046875 " clip-rule="nonzero"/></clipPath><clipPath id="b8de09a22f"><path d="M 25.007812 54.046875 L 25.007812 338.519531 C 25.007812 349.703125 34.074219 358.769531 45.257812 358.769531 L 329.734375 358.769531 C 340.917969 358.769531 349.980469 349.703125 349.980469 338.519531 L 349.980469 54.046875 C 349.980469 42.863281 340.917969 33.796875 329.734375 33.796875 L 45.257812 33.796875 C 34.074219 33.796875 25.007812 42.863281 25.007812 54.046875 Z M 25.007812 54.046875 " clip-rule="nonzero"/></clipPath><clipPath id="2fda87205b"><path d="M 126.730469 30.050781 L 222.511719 30.050781 L 222.511719 48.828125 L 126.730469 48.828125 Z M 126.730469 30.050781 " clip-rule="nonzero"/></clipPath><clipPath id="f0c3e74c55"><path d="M 147.277344 16.222656 L 202 16.222656 L 202 70.472656 L 147.277344 70.472656 Z M 147.277344 16.222656 " clip-rule="nonzero"/></clipPath><clipPath id="4cca216b7b"><path d="M 174.621094 16.222656 C 159.519531 16.222656 147.277344 28.367188 147.277344 43.347656 C 147.277344 58.328125 159.519531 70.472656 174.621094 70.472656 C 189.722656 70.472656 201.964844 58.328125 201.964844 43.347656 C 201.964844 28.367188 189.722656 16.222656 174.621094 16.222656 Z M 174.621094 16.222656 " clip-rule="nonzero"/></clipPath><clipPath id="6922d6af34"><path d="M 259.597656 69.179688 L 314.722656 69.179688 L 314.722656 124.515625 L 259.597656 124.515625 Z M 259.597656 69.179688 " clip-rule="nonzero"/></clipPath><clipPath id="e53799ec63"><path d="M 287.160156 69.179688 C 271.9375 69.179688 259.597656 81.5625 259.597656 96.839844 C 259.597656 112.117188 271.9375 124.5 287.160156 124.5 C 302.382812 124.5 314.722656 112.117188 314.722656 96.839844 C 314.722656 81.5625 302.382812 69.179688 287.160156 69.179688 Z M 287.160156 69.179688 " clip-rule="nonzero"/></clipPath><clipPath id="9c0f3d9b9f"><path d="M 250.585938 216.289062 L 305.472656 216.289062 L 305.472656 270.539062 L 250.585938 270.539062 Z M 250.585938 216.289062 " clip-rule="nonzero"/></clipPath><clipPath id="cee5436391"><path d="M 277.929688 216.289062 C 262.828125 216.289062 250.585938 228.433594 250.585938 243.414062 C 250.585938 258.394531 262.828125 270.539062 277.929688 270.539062 C 293.03125 270.539062 305.273438 258.394531 305.273438 243.414062 C 305.273438 228.433594 293.03125 216.289062 277.929688 216.289062 Z M 277.929688 216.289062 " clip-rule="nonzero"/></clipPath><clipPath id="17c9df0209"><path d="M 60.941406 133.609375 L 115.828125 133.609375 L 115.828125 187.859375 L 60.941406 187.859375 Z M 60.941406 133.609375 " clip-rule="nonzero"/></clipPath><clipPath id="9706fddeab"><path d="M 88.285156 133.609375 C 73.183594 133.609375 60.941406 145.753906 60.941406 160.734375 C 60.941406 175.714844 73.183594 187.859375 88.285156 187.859375 C 103.386719 187.859375 115.628906 175.714844 115.628906 160.734375 C 115.628906 145.753906 103.386719 133.609375 88.285156 133.609375 Z M 88.285156 133.609375 " clip-rule="nonzero"/></clipPath></defs><g clip-path="url(#b154fecf77)"><path fill="#ffffff" d="M 45.808594 60.257812 L 296.203125 60.257812 L 296.203125 357.601562 L 45.808594 357.601562 Z M 45.808594 60.257812 " fill-opacity="1" fill-rule="nonzero"/></g><g clip-path="url(#6c49864a89)"><g clip-path="url(#db896a6ad9)"><g clip-path="url(#40ab2c1c9e)"><path fill="#001F3F" d="M 103.625 336.847656 L 103.613281 336.828125 C 103.882812 336.667969 104.144531 336.496094 104.414062 336.335938 C 109.601562 332.949219 114.652344 329.242188 119.542969 325.199219 L 119.492188 325.148438 C 138.523438 307.464844 147.925781 287.625 147.4375 266.191406 C 146.578125 228.414062 115.945312 194.8125 103.648438 182.8125 C 99.273438 185.824219 93.992188 187.589844 88.292969 187.589844 C 73.308594 187.589844 61.117188 175.402344 61.117188 160.414062 C 61.117188 145.425781 73.308594 133.242188 88.292969 133.242188 C 103.277344 133.242188 115.464844 145.433594 115.464844 160.414062 C 115.464844 163.992188 114.753906 167.394531 113.492188 170.527344 C 126.617188 183.035156 162.058594 220.886719 163.085938 265.839844 C 163.144531 268.390625 163.058594 270.914062 162.898438 273.421875 C 172.769531 256.554688 180.320312 238.390625 185.507812 219.394531 L 185.179688 219.292969 C 185.835938 217.070312 186.519531 214.914062 187.210938 212.765625 C 198.15625 167.507812 195.933594 117.933594 179.84375 70.128906 C 178.152344 70.464844 176.414062 70.644531 174.628906 70.644531 C 159.648438 70.644531 147.453125 58.453125 147.453125 43.46875 C 147.453125 40.058594 148.113281 36.804688 149.265625 33.796875 L 25.007812 33.796875 L 25.007812 358.773438 L 47.414062 358.773438 C 67.160156 355.539062 86.167969 348.09375 103.625 336.847656 Z M 103.625 336.847656 " fill-opacity="1" fill-rule="nonzero"/></g></g></g><g clip-path="url(#2bfc4e60e4)"><g clip-path="url(#ce50a9b511)"><g clip-path="url(#bf255bb980)"><path fill="#001F3F" d="M 199.996094 33.796875 C 201.144531 36.804688 201.808594 40.058594 201.808594 43.46875 C 201.808594 50.964844 198.753906 57.769531 193.824219 62.6875 C 205.203125 95.53125 210.378906 129.246094 209.546875 162.066406 C 228.832031 128.898438 250.199219 110.960938 260.183594 103.796875 C 259.664062 101.695312 259.355469 99.515625 259.355469 97.253906 C 259.355469 82.269531 271.542969 70.082031 286.53125 70.082031 C 301.511719 70.082031 313.703125 82.269531 313.703125 97.253906 C 313.703125 112.238281 301.511719 124.429688 286.53125 124.429688 C 279.503906 124.429688 273.113281 121.726562 268.28125 117.335938 C 255.304688 127.058594 221.777344 156.882812 202.289062 217.023438 C 196.574219 240.394531 187.570312 262.707031 175.320312 283.203125 C 198.847656 264.804688 222.460938 248.785156 250.6875 241.660156 C 251.457031 227.359375 263.296875 215.953125 277.789062 215.953125 C 292.773438 215.953125 304.960938 228.144531 304.960938 243.125 C 304.960938 258.105469 292.773438 270.300781 277.789062 270.300781 C 267.824219 270.300781 259.121094 264.898438 254.390625 256.878906 C 222.683594 264.957031 196.136719 286.371094 168.132812 308.972656 C 150.945312 322.84375 133.171875 337.15625 113.191406 349.3125 C 107.878906 352.792969 102.417969 355.9375 96.855469 358.769531 L 349.996094 358.769531 L 349.996094 33.796875 Z M 199.996094 33.796875 " fill-opacity="1" fill-rule="nonzero"/></g></g></g><g clip-path="url(#22c87d4030)"><g clip-path="url(#744903b4a2)"><g clip-path="url(#45d9657cb7)"><path fill="#001F3F" d="M 25.007812 33.796875 L 25.007812 87.257812 C 36.007812 105.300781 51.496094 123.089844 70.667969 139.769531 C 75.417969 135.707031 81.566406 133.238281 88.292969 133.238281 C 103.277344 133.238281 115.464844 145.425781 115.464844 160.410156 C 115.464844 163.984375 114.753906 167.390625 113.492188 170.523438 C 114.109375 171.109375 114.792969 171.777344 115.511719 172.476562 C 137.347656 185.90625 161.808594 197.898438 188.3125 207.792969 C 197.9375 163.886719 195.34375 116.191406 179.84375 70.128906 C 178.152344 70.464844 176.414062 70.644531 174.628906 70.644531 C 159.648438 70.644531 147.453125 58.453125 147.453125 43.46875 C 147.453125 40.058594 148.113281 36.804688 149.265625 33.796875 Z M 25.007812 33.796875 " fill-opacity="1" fill-rule="nonzero"/></g></g></g><g clip-path="url(#356bb4abf0)"><g clip-path="url(#a4efb85016)"><g clip-path="url(#3d1afbeaf2)"><path fill="#001F3F" d="M 349.988281 33.796875 L 199.996094 33.796875 C 201.144531 36.804688 201.808594 40.058594 201.808594 43.46875 C 201.808594 50.964844 198.753906 57.769531 193.824219 62.6875 C 205.203125 95.53125 210.378906 129.246094 209.546875 162.066406 C 228.832031 128.898438 250.199219 110.960938 260.183594 103.796875 C 259.664062 101.695312 259.355469 99.515625 259.355469 97.253906 C 259.355469 82.269531 271.542969 70.082031 286.53125 70.082031 C 301.511719 70.082031 313.703125 82.269531 313.703125 97.253906 C 313.703125 112.238281 301.511719 124.429688 286.53125 124.429688 C 279.503906 124.429688 273.113281 121.726562 268.28125 117.335938 C 255.585938 126.847656 223.230469 155.617188 203.585938 213.171875 C 221.207031 219.035156 238.734375 223.660156 255.910156 227.085938 C 260.847656 220.34375 268.808594 215.957031 277.789062 215.957031 C 289.421875 215.957031 299.339844 223.316406 303.207031 233.609375 C 319.449219 234.820312 335.121094 234.890625 349.992188 233.847656 L 349.992188 33.796875 Z M 349.988281 33.796875 " fill-opacity="1" fill-rule="nonzero"/></g></g></g><g clip-path="url(#5b7235fefa)"><g clip-path="url(#306be3bf56)"><g clip-path="url(#b8de09a22f)"><path stroke-linecap="butt" transform="matrix(0.75, 0, 0, 0.75, 25.009727, 33.796327)" fill="none" stroke-linejoin="miter" d="M -0.00255269 27.000732 L -0.00255269 406.297632 C -0.00255269 421.209091 12.08599 433.297634 26.997449 433.297634 L 406.299557 433.297634 C 421.211017 433.297634 433.294351 421.209091 433.294351 406.297632 L 433.294351 27.000732 C 433.294351 12.089273 421.211017 0.000730479 406.299557 0.000730479 L 26.997449 0.000730479 C 12.08599 0.000730479 -0.00255269 12.089273 -0.00255269 27.000732 Z M -0.00255269 27.000732 " stroke="#001F3F" stroke-width="40" stroke-opacity="1" stroke-miterlimit="4"/></g></g></g><g clip-path="url(#2fda87205b)"><path fill="#001F3F" d="M 126.730469 30.050781 L 222.542969 30.050781 L 222.542969 48.828125 L 126.730469 48.828125 Z M 126.730469 30.050781 " fill-opacity="1" fill-rule="nonzero"/></g><g clip-path="url(#f0c3e74c55)"><g clip-path="url(#4cca216b7b)"><path fill="#ffd126" d="M 147.277344 16.222656 L 201.953125 16.222656 L 201.953125 70.472656 L 147.277344 70.472656 Z M 147.277344 16.222656 " fill-opacity="1" fill-rule="nonzero"/></g></g><g clip-path="url(#6922d6af34)"><g clip-path="url(#e53799ec63)"><path fill="#ffd126" d="M 259.597656 69.179688 L 314.722656 69.179688 L 314.722656 124.515625 L 259.597656 124.515625 Z M 259.597656 69.179688 " fill-opacity="1" fill-rule="nonzero"/></g></g><g clip-path="url(#9c0f3d9b9f)"><g clip-path="url(#cee5436391)"><path fill="#ffd126" d="M 250.585938 216.289062 L 305.257812 216.289062 L 305.257812 270.539062 L 250.585938 270.539062 Z M 250.585938 216.289062 " fill-opacity="1" fill-rule="nonzero"/></g></g><g clip-path="url(#17c9df0209)"><g clip-path="url(#9706fddeab)"><path fill="#ffd126" d="M 60.941406 133.609375 L 115.617188 133.609375 L 115.617188 187.859375 L 60.941406 187.859375 Z M 60.941406 133.609375 " fill-opacity="1" fill-rule="nonzero"/></g></g></svg>