<svg xmlns="http://www.w3.org/2000/svg" xmlns:xlink="http://www.w3.org/1999/xlink" width="500" zoomAndPan="magnify" viewBox="0 0 375 374.999991" height="500" preserveAspectRatio="xMidYMid meet" version="1.0"><defs><clipPath id="7fb2efe96e"><path d="M 54.730469 5.625 L 320.230469 5.625 L 320.230469 369 L 54.730469 369 Z M 54.730469 5.625 " clip-rule="nonzero"/></clipPath></defs><g clip-path="url(#7fb2efe96e)"><path fill="#ffde59" d="M 137.484375 154.300781 C 135.765625 152.582031 133.378906 151.511719 130.742188 151.511719 C 128.109375 151.511719 125.722656 152.582031 124 154.300781 C 122.28125 156.019531 121.210938 158.40625 121.210938 161.042969 C 121.210938 163.695312 122.273438 166.074219 123.972656 167.785156 L 124 167.8125 C 125.710938 169.523438 128.089844 170.574219 130.742188 170.574219 C 133.378906 170.574219 135.765625 169.503906 137.484375 167.785156 C 139.203125 166.0625 140.273438 163.675781 140.273438 161.042969 C 140.273438 158.40625 139.203125 156.03125 137.484375 154.300781 M 250.980469 107.421875 C 249.269531 105.710938 246.890625 104.660156 244.238281 104.660156 C 241.605469 104.660156 239.214844 105.730469 237.496094 107.449219 C 235.777344 109.171875 234.707031 111.558594 234.707031 114.191406 C 234.707031 116.835938 235.769531 119.222656 237.46875 120.933594 L 237.496094 120.960938 C 239.207031 122.671875 241.585938 123.722656 244.238281 123.722656 C 246.871094 123.722656 249.257812 122.652344 250.980469 120.933594 C 252.699219 119.214844 253.769531 116.828125 253.769531 114.191406 C 253.769531 111.539062 252.707031 109.152344 251.007812 107.449219 Z M 194.257812 68.054688 L 194.230469 68.027344 C 192.511719 66.316406 190.125 65.265625 187.492188 65.265625 C 184.855469 65.265625 182.46875 66.316406 180.75 68.027344 L 180.722656 68.054688 C 179.011719 69.773438 177.960938 72.160156 177.960938 74.796875 C 177.960938 77.429688 179.019531 79.816406 180.722656 81.539062 L 180.75 81.566406 C 182.46875 83.273438 184.855469 84.328125 187.492188 84.328125 C 190.125 84.328125 192.511719 83.265625 194.230469 81.566406 L 194.257812 81.539062 C 195.96875 79.816406 197.023438 77.429688 197.023438 74.796875 C 197.023438 72.160156 195.960938 69.773438 194.257812 68.054688 Z M 180.355469 255.96875 L 135.839844 230.265625 C 131.996094 228.042969 128.949219 225.007812 126.855469 221.382812 L 126.847656 221.394531 C 124.742188 217.746094 123.609375 213.582031 123.609375 209.164062 L 123.609375 183.753906 C 119.921875 182.59375 116.621094 180.554688 113.941406 177.882812 L 113.914062 177.855469 C 109.605469 173.539062 106.941406 167.589844 106.941406 161.0625 C 106.941406 154.492188 109.605469 148.539062 113.914062 144.238281 C 118.222656 139.929688 124.167969 137.269531 130.734375 137.269531 C 137.300781 137.269531 143.257812 139.941406 147.554688 144.238281 C 151.863281 148.546875 154.523438 154.492188 154.523438 161.0625 C 154.523438 167.628906 151.863281 173.582031 147.554688 177.882812 C 144.875 180.5625 141.5625 182.601562 137.859375 183.761719 L 137.859375 209.164062 C 137.859375 211.085938 138.308594 212.8125 139.140625 214.257812 L 139.140625 214.285156 C 139.980469 215.75 141.261719 217.011719 142.898438 217.953125 L 180.347656 239.570312 L 180.347656 97.5 C 176.660156 96.335938 173.359375 94.296875 170.679688 91.625 L 170.652344 91.597656 C 166.34375 87.289062 163.679688 81.355469 163.679688 74.804688 C 163.679688 68.257812 166.34375 62.3125 170.652344 58.003906 L 170.679688 57.976562 C 174.988281 53.667969 180.921875 51.003906 187.472656 51.003906 C 194.019531 51.003906 199.96875 53.667969 204.273438 57.976562 L 204.300781 58.003906 C 208.609375 62.3125 211.273438 68.246094 211.273438 74.804688 C 211.273438 81.355469 208.609375 87.300781 204.300781 91.597656 L 204.273438 91.625 C 201.605469 94.296875 198.300781 96.335938 194.605469 97.5 L 194.605469 192.738281 L 232.054688 171.121094 C 233.691406 170.179688 234.964844 168.917969 235.8125 167.453125 L 235.8125 167.425781 C 236.644531 165.980469 237.09375 164.242188 237.09375 162.324219 L 237.09375 136.894531 C 233.40625 135.734375 230.105469 133.691406 227.425781 131.023438 L 227.417969 131.003906 L 227.40625 130.996094 C 223.097656 126.675781 220.4375 120.730469 220.4375 114.199219 C 220.4375 107.632812 223.097656 101.679688 227.40625 97.378906 C 231.714844 93.070312 237.660156 90.410156 244.230469 90.410156 C 250.769531 90.410156 256.707031 93.070312 261.023438 97.378906 L 261.039062 97.398438 L 261.050781 97.40625 C 265.359375 101.726562 268.019531 107.671875 268.019531 114.210938 C 268.019531 120.777344 265.359375 126.730469 261.050781 131.03125 C 258.371094 133.710938 255.058594 135.75 251.355469 136.914062 L 251.355469 162.332031 C 251.355469 166.75 250.230469 170.910156 248.117188 174.5625 L 248.105469 174.550781 C 246.011719 178.175781 242.964844 181.21875 239.125 183.433594 L 194.605469 209.136719 L 194.605469 287.644531 L 246.753906 257.542969 L 299.359375 227.175781 L 299.347656 227.164062 C 301.507812 225.921875 303.179688 224.273438 304.289062 222.363281 L 304.289062 222.335938 C 305.386719 220.433594 305.980469 218.164062 305.980469 215.675781 L 305.980469 94.140625 C 305.980469 91.652344 305.394531 89.386719 304.289062 87.484375 L 304.289062 87.457031 C 303.191406 85.542969 301.507812 83.898438 299.347656 82.652344 L 299.359375 82.644531 L 246.753906 52.277344 L 194.140625 21.890625 L 194.113281 21.890625 C 192 20.671875 189.742188 20.0625 187.492188 20.0625 C 185.242188 20.0625 182.980469 20.671875 180.867188 21.890625 L 180.839844 21.890625 L 128.210938 52.265625 L 75.605469 82.636719 L 75.613281 82.644531 C 73.457031 83.886719 71.78125 85.535156 70.683594 87.445312 L 70.683594 87.472656 C 69.585938 89.375 68.992188 91.644531 68.992188 94.132812 L 68.992188 215.660156 C 68.992188 218.148438 69.578125 220.414062 70.683594 222.316406 L 70.683594 222.34375 C 71.78125 224.257812 73.464844 225.902344 75.613281 227.148438 L 75.605469 227.15625 L 128.210938 257.523438 L 180.355469 287.625 Z M 105.257812 367.917969 C 101.535156 369.191406 97.484375 367.214844 96.203125 363.492188 C 94.921875 359.769531 96.910156 355.714844 100.632812 354.4375 C 126.5 345.554688 153.390625 340.753906 180.355469 340.039062 L 180.355469 303.039062 C 178.097656 302.40625 175.875 301.476562 173.734375 300.242188 L 173.742188 300.230469 L 121.140625 269.863281 L 68.515625 239.488281 L 68.488281 239.488281 C 64.179688 237 60.761719 233.570312 58.382812 229.46875 L 58.371094 229.480469 C 56.003906 225.355469 54.730469 220.664062 54.730469 215.667969 L 54.730469 94.140625 C 54.730469 89.148438 56.003906 84.457031 58.371094 80.347656 L 58.382812 80.359375 C 60.75 76.257812 64.179688 72.828125 68.488281 70.339844 L 68.515625 70.339844 L 121.140625 39.957031 L 173.742188 9.585938 L 173.734375 9.578125 C 178.097656 7.054688 182.789062 5.792969 187.492188 5.792969 C 192.191406 5.792969 196.882812 7.054688 201.246094 9.578125 L 201.238281 9.585938 L 253.84375 39.957031 L 306.464844 70.332031 L 306.492188 70.332031 C 310.800781 72.820312 314.222656 76.25 316.597656 80.347656 L 316.609375 80.339844 C 318.976562 84.445312 320.25 89.136719 320.25 94.132812 L 320.25 215.660156 C 320.25 220.652344 318.976562 225.34375 316.609375 229.453125 L 316.597656 229.441406 C 314.230469 233.539062 310.800781 236.972656 306.492188 239.460938 L 306.464844 239.460938 L 253.84375 269.835938 L 201.238281 300.203125 L 201.246094 300.214844 C 199.105469 301.449219 196.882812 302.378906 194.625 303.011719 L 194.625 340.011719 C 221.589844 340.734375 248.472656 345.527344 274.351562 354.410156 C 278.074219 355.679688 280.058594 359.742188 278.777344 363.464844 C 277.496094 367.1875 273.445312 369.171875 269.722656 367.890625 C 243.085938 358.753906 215.296875 354.179688 187.492188 354.179688 C 159.683594 354.199219 131.894531 358.769531 105.257812 367.917969 Z M 105.257812 367.917969 " fill-opacity="1" fill-rule="nonzero"/><path fill="#ffde59" d="M 137.484375 154.300781 C 135.765625 152.582031 133.378906 151.511719 130.742188 151.511719 C 128.109375 151.511719 125.722656 152.582031 124 154.300781 C 122.28125 156.019531 121.210938 158.40625 121.210938 161.042969 C 121.210938 163.695312 122.273438 166.074219 123.972656 167.785156 L 124 167.8125 C 125.710938 169.523438 128.089844 170.574219 130.742188 170.574219 C 133.378906 170.574219 135.765625 169.503906 137.484375 167.785156 C 139.203125 166.0625 140.273438 163.675781 140.273438 161.042969 C 140.273438 158.40625 139.203125 156.03125 137.484375 154.300781 M 250.980469 107.421875 C 249.269531 105.710938 246.890625 104.660156 244.238281 104.660156 C 241.605469 104.660156 239.214844 105.730469 237.496094 107.449219 C 235.777344 109.171875 234.707031 111.558594 234.707031 114.191406 C 234.707031 116.835938 235.769531 119.222656 237.46875 120.933594 L 237.496094 120.960938 C 239.207031 122.671875 241.585938 123.722656 244.238281 123.722656 C 246.871094 123.722656 249.257812 122.652344 250.980469 120.933594 C 252.699219 119.214844 253.769531 116.828125 253.769531 114.191406 C 253.769531 111.539062 252.707031 109.152344 251.007812 107.449219 Z M 194.257812 68.054688 L 194.230469 68.027344 C 192.511719 66.316406 190.125 65.265625 187.492188 65.265625 C 184.855469 65.265625 182.46875 66.316406 180.75 68.027344 L 180.722656 68.054688 C 179.011719 69.773438 177.960938 72.160156 177.960938 74.796875 C 177.960938 77.429688 179.019531 79.816406 180.722656 81.539062 L 180.75 81.566406 C 182.46875 83.273438 184.855469 84.328125 187.492188 84.328125 C 190.125 84.328125 192.511719 83.265625 194.230469 81.566406 L 194.257812 81.539062 C 195.96875 79.816406 197.023438 77.429688 197.023438 74.796875 C 197.023438 72.160156 195.960938 69.773438 194.257812 68.054688 Z M 180.355469 255.96875 L 135.839844 230.265625 C 131.996094 228.042969 128.949219 225.007812 126.855469 221.382812 L 126.847656 221.394531 C 124.742188 217.746094 123.609375 213.582031 123.609375 209.164062 L 123.609375 183.753906 C 119.921875 182.59375 116.621094 180.554688 113.941406 177.882812 L 113.914062 177.855469 C 109.605469 173.539062 106.941406 167.589844 106.941406 161.0625 C 106.941406 154.492188 109.605469 148.539062 113.914062 144.238281 C 118.222656 139.929688 124.167969 137.269531 130.734375 137.269531 C 137.300781 137.269531 143.257812 139.941406 147.554688 144.238281 C 151.863281 148.546875 154.523438 154.492188 154.523438 161.0625 C 154.523438 167.628906 151.863281 173.582031 147.554688 177.882812 C 144.875 180.5625 141.5625 182.601562 137.859375 183.761719 L 137.859375 209.164062 C 137.859375 211.085938 138.308594 212.8125 139.140625 214.257812 L 139.140625 214.285156 C 139.980469 215.75 141.261719 217.011719 142.898438 217.953125 L 180.347656 239.570312 L 180.347656 97.5 C 176.660156 96.335938 173.359375 94.296875 170.679688 91.625 L 170.652344 91.597656 C 166.34375 87.289062 163.679688 81.355469 163.679688 74.804688 C 163.679688 68.257812 166.34375 62.3125 170.652344 58.003906 L 170.679688 57.976562 C 174.988281 53.667969 180.921875 51.003906 187.472656 51.003906 C 194.019531 51.003906 199.96875 53.667969 204.273438 57.976562 L 204.300781 58.003906 C 208.609375 62.3125 211.273438 68.246094 211.273438 74.804688 C 211.273438 81.355469 208.609375 87.300781 204.300781 91.597656 L 204.273438 91.625 C 201.605469 94.296875 198.300781 96.335938 194.605469 97.5 L 194.605469 192.738281 L 232.054688 171.121094 C 233.691406 170.179688 234.964844 168.917969 235.8125 167.453125 L 235.8125 167.425781 C 236.644531 165.980469 237.09375 164.242188 237.09375 162.324219 L 237.09375 136.894531 C 233.40625 135.734375 230.105469 133.691406 227.425781 131.023438 L 227.417969 131.003906 L 227.40625 130.996094 C 223.097656 126.675781 220.4375 120.730469 220.4375 114.199219 C 220.4375 107.632812 223.097656 101.679688 227.40625 97.378906 C 231.714844 93.070312 237.660156 90.410156 244.230469 90.410156 C 250.769531 90.410156 256.707031 93.070312 261.023438 97.378906 L 261.039062 97.398438 L 261.050781 97.40625 C 265.359375 101.726562 268.019531 107.671875 268.019531 114.210938 C 268.019531 120.777344 265.359375 126.730469 261.050781 131.03125 C 258.371094 133.710938 255.058594 135.75 251.355469 136.914062 L 251.355469 162.332031 C 251.355469 166.75 250.230469 170.910156 248.117188 174.5625 L 248.105469 174.550781 C 246.011719 178.175781 242.964844 181.21875 239.125 183.433594 L 194.605469 209.136719 L 194.605469 287.644531 L 246.753906 257.542969 L 299.359375 227.175781 L 299.347656 227.164062 C 301.507812 225.921875 303.179688 224.273438 304.289062 222.363281 L 304.289062 222.335938 C 305.386719 220.433594 305.980469 218.164062 305.980469 215.675781 L 305.980469 94.140625 C 305.980469 91.652344 305.394531 89.386719 304.289062 87.484375 L 304.289062 87.457031 C 303.191406 85.542969 301.507812 83.898438 299.347656 82.652344 L 299.359375 82.644531 L 246.753906 52.277344 L 194.140625 21.890625 L 194.113281 21.890625 C 192 20.671875 189.742188 20.0625 187.492188 20.0625 C 185.242188 20.0625 182.980469 20.671875 180.867188 21.890625 L 180.839844 21.890625 L 128.210938 52.265625 L 75.605469 82.636719 L 75.613281 82.644531 C 73.457031 83.886719 71.78125 85.535156 70.683594 87.445312 L 70.683594 87.472656 C 69.585938 89.375 68.992188 91.644531 68.992188 94.132812 L 68.992188 215.660156 C 68.992188 218.148438 69.578125 220.414062 70.683594 222.316406 L 70.683594 222.34375 C 71.78125 224.257812 73.464844 225.902344 75.613281 227.148438 L 75.605469 227.15625 L 128.210938 257.523438 L 180.355469 287.625 Z M 105.257812 367.917969 C 101.535156 369.191406 97.484375 367.214844 96.203125 363.492188 C 94.921875 359.769531 96.910156 355.714844 100.632812 354.4375 C 126.5 345.554688 153.390625 340.753906 180.355469 340.039062 L 180.355469 303.039062 C 178.097656 302.40625 175.875 301.476562 173.734375 300.242188 L 173.742188 300.230469 L 121.140625 269.863281 L 68.515625 239.488281 L 68.488281 239.488281 C 64.179688 237 60.761719 233.570312 58.382812 229.46875 L 58.371094 229.480469 C 56.003906 225.355469 54.730469 220.664062 54.730469 215.667969 L 54.730469 94.140625 C 54.730469 89.148438 56.003906 84.457031 58.371094 80.347656 L 58.382812 80.359375 C 60.75 76.257812 64.179688 72.828125 68.488281 70.339844 L 68.515625 70.339844 L 121.140625 39.957031 L 173.742188 9.585938 L 173.734375 9.578125 C 178.097656 7.054688 182.789062 5.792969 187.492188 5.792969 C 192.191406 5.792969 196.882812 7.054688 201.246094 9.578125 L 201.238281 9.585938 L 253.84375 39.957031 L 306.464844 70.332031 L 306.492188 70.332031 C 310.800781 72.820312 314.222656 76.25 316.597656 80.347656 L 316.609375 80.339844 C 318.976562 84.445312 320.25 89.136719 320.25 94.132812 L 320.25 215.660156 C 320.25 220.652344 318.976562 225.34375 316.609375 229.453125 L 316.597656 229.441406 C 314.230469 233.539062 310.800781 236.972656 306.492188 239.460938 L 306.464844 239.460938 L 253.84375 269.835938 L 201.238281 300.203125 L 201.246094 300.214844 C 199.105469 301.449219 196.882812 302.378906 194.625 303.011719 L 194.625 340.011719 C 221.589844 340.734375 248.472656 345.527344 274.351562 354.410156 C 278.074219 355.679688 280.058594 359.742188 278.777344 363.464844 C 277.496094 367.1875 273.445312 369.171875 269.722656 367.890625 C 243.085938 358.753906 215.296875 354.179688 187.492188 354.179688 C 159.683594 354.199219 131.894531 358.769531 105.257812 367.917969 Z M 105.257812 367.917969 " fill-opacity="1" fill-rule="nonzero"/></g></svg>