<svg xmlns="http://www.w3.org/2000/svg" xmlns:xlink="http://www.w3.org/1999/xlink" width="500" zoomAndPan="magnify" viewBox="0 0 375 374.999991" height="500" preserveAspectRatio="xMidYMid meet" version="1.0"><defs><clipPath id="c6f5840c7b"><path d="M 122 7.351562 L 253 7.351562 L 253 121 L 122 121 Z M 122 7.351562 " clip-rule="nonzero"/></clipPath><clipPath id="78b2f0ad11"><path d="M 15.15625 69 L 146 69 L 146 183 L 15.15625 183 Z M 15.15625 69 " clip-rule="nonzero"/></clipPath><clipPath id="311a4c4d0d"><path d="M 15.15625 192 L 146 192 L 146 306 L 15.15625 306 Z M 15.15625 192 " clip-rule="nonzero"/></clipPath><clipPath id="612f0d0304"><path d="M 122 254 L 253 254 L 253 367.351562 L 122 367.351562 Z M 122 254 " clip-rule="nonzero"/></clipPath><clipPath id="5dd92f39bb"><path d="M 122 7.351562 L 253 7.351562 L 253 121 L 122 121 Z M 122 7.351562 " clip-rule="nonzero"/></clipPath><clipPath id="202046fc8e"><path d="M 15.15625 69 L 146 69 L 146 183 L 15.15625 183 Z M 15.15625 69 " clip-rule="nonzero"/></clipPath><clipPath id="1e094ca25d"><path d="M 15.15625 192 L 146 192 L 146 306 L 15.15625 306 Z M 15.15625 192 " clip-rule="nonzero"/></clipPath><clipPath id="03d1f571ae"><path d="M 122 254 L 253 254 L 253 367.351562 L 122 367.351562 Z M 122 254 " clip-rule="nonzero"/></clipPath></defs><path fill="#ffde59" d="M 261.90625 182.195312 L 327.171875 182.195312 L 359.804688 125.671875 L 327.171875 69.148438 L 261.90625 69.148438 L 229.273438 125.671875 Z M 261.90625 182.195312 " fill-opacity="1" fill-rule="nonzero"/><path fill="#ffde59" d="M 154.867188 130.949219 L 122.230469 187.472656 L 154.867188 243.996094 L 220.132812 243.996094 L 252.765625 187.472656 L 220.132812 130.949219 Z M 154.867188 130.949219 " fill-opacity="1" fill-rule="nonzero"/><g clip-path="url(#c6f5840c7b)"><path fill="#ffde59" d="M 154.867188 120.394531 L 220.132812 120.394531 L 252.765625 63.871094 L 220.132812 7.351562 L 154.867188 7.351562 L 122.230469 63.871094 Z M 154.867188 120.394531 " fill-opacity="1" fill-rule="nonzero"/></g><g clip-path="url(#78b2f0ad11)"><path fill="#ffde59" d="M 113.089844 182.195312 L 145.726562 125.671875 L 113.089844 69.148438 L 47.824219 69.148438 L 15.191406 125.671875 L 47.824219 182.195312 Z M 113.089844 182.195312 " fill-opacity="1" fill-rule="nonzero"/></g><g clip-path="url(#311a4c4d0d)"><path fill="#ffde59" d="M 145.726562 249.273438 L 113.089844 192.75 L 47.824219 192.75 L 15.191406 249.273438 L 47.824219 305.792969 L 113.089844 305.792969 Z M 145.726562 249.273438 " fill-opacity="1" fill-rule="nonzero"/></g><g clip-path="url(#612f0d0304)"><path fill="#ffde59" d="M 154.867188 254.546875 L 122.230469 311.070312 L 154.867188 367.59375 L 220.132812 367.59375 L 252.765625 311.070312 L 220.132812 254.546875 Z M 154.867188 254.546875 " fill-opacity="1" fill-rule="nonzero"/></g><path fill="#ffde59" d="M 261.90625 192.75 L 229.273438 249.273438 L 261.90625 305.792969 L 327.171875 305.792969 L 359.804688 249.273438 L 327.171875 192.75 Z M 261.90625 192.75 " fill-opacity="1" fill-rule="nonzero"/><path fill="#ffde59" d="M 261.90625 182.195312 L 327.171875 182.195312 L 359.804688 125.671875 L 327.171875 69.148438 L 261.90625 69.148438 L 229.273438 125.671875 Z M 261.90625 182.195312 " fill-opacity="1" fill-rule="nonzero"/><path fill="#ffde59" d="M 154.867188 130.949219 L 122.230469 187.472656 L 154.867188 243.996094 L 220.132812 243.996094 L 252.765625 187.472656 L 220.132812 130.949219 Z M 154.867188 130.949219 " fill-opacity="1" fill-rule="nonzero"/><g clip-path="url(#5dd92f39bb)"><path fill="#ffde59" d="M 154.867188 120.394531 L 220.132812 120.394531 L 252.765625 63.871094 L 220.132812 7.351562 L 154.867188 7.351562 L 122.230469 63.871094 Z M 154.867188 120.394531 " fill-opacity="1" fill-rule="nonzero"/></g><g clip-path="url(#202046fc8e)"><path fill="#ffde59" d="M 113.089844 182.195312 L 145.726562 125.671875 L 113.089844 69.148438 L 47.824219 69.148438 L 15.191406 125.671875 L 47.824219 182.195312 Z M 113.089844 182.195312 " fill-opacity="1" fill-rule="nonzero"/></g><g clip-path="url(#1e094ca25d)"><path fill="#ffde59" d="M 145.726562 249.273438 L 113.089844 192.75 L 47.824219 192.75 L 15.191406 249.273438 L 47.824219 305.792969 L 113.089844 305.792969 Z M 145.726562 249.273438 " fill-opacity="1" fill-rule="nonzero"/></g><g clip-path="url(#03d1f571ae)"><path fill="#ffde59" d="M 154.867188 254.546875 L 122.230469 311.070312 L 154.867188 367.59375 L 220.132812 367.59375 L 252.765625 311.070312 L 220.132812 254.546875 Z M 154.867188 254.546875 " fill-opacity="1" fill-rule="nonzero"/></g><path fill="#ffde59" d="M 261.90625 192.75 L 229.273438 249.273438 L 261.90625 305.792969 L 327.171875 305.792969 L 359.804688 249.273438 L 327.171875 192.75 Z M 261.90625 192.75 " fill-opacity="1" fill-rule="nonzero"/></svg>