<svg xmlns="http://www.w3.org/2000/svg" xmlns:xlink="http://www.w3.org/1999/xlink" width="500" zoomAndPan="magnify" viewBox="0 0 375 374.999991" height="500" preserveAspectRatio="xMidYMid meet" version="1.0"><defs><clipPath id="541435006a"><path d="M 44.625 51.097656 L 295.710938 51.097656 L 295.710938 349.648438 L 44.625 349.648438 Z M 44.625 51.097656 " clip-rule="nonzero"/></clipPath><clipPath id="eccced6d14"><path d="M 23.769531 23.769531 L 194 23.769531 L 194 350 L 23.769531 350 Z M 23.769531 23.769531 " clip-rule="nonzero"/></clipPath><clipPath id="4a8b81bd23"><path d="M 23.769531 44.769531 L 23.769531 328.648438 C 23.769531 340.246094 33.167969 349.648438 44.769531 349.648438 L 328.648438 349.648438 C 340.246094 349.648438 349.648438 340.246094 349.648438 328.648438 L 349.648438 44.769531 C 349.648438 33.167969 340.246094 23.769531 328.648438 23.769531 L 44.769531 23.769531 C 33.167969 23.769531 23.769531 33.167969 23.769531 44.769531 Z M 23.769531 44.769531 " clip-rule="nonzero"/></clipPath><clipPath id="74201a7456"><path d="M 95 23.769531 L 350 23.769531 L 350 350 L 95 350 Z M 95 23.769531 " clip-rule="nonzero"/></clipPath><clipPath id="1bc2a91f90"><path d="M 23.769531 44.769531 L 23.769531 328.648438 C 23.769531 340.246094 33.167969 349.648438 44.769531 349.648438 L 328.648438 349.648438 C 340.246094 349.648438 349.648438 340.246094 349.648438 328.648438 L 349.648438 44.769531 C 349.648438 33.167969 340.246094 23.769531 328.648438 23.769531 L 44.769531 23.769531 C 33.167969 23.769531 23.769531 33.167969 23.769531 44.769531 Z M 23.769531 44.769531 " clip-rule="nonzero"/></clipPath><clipPath id="0954e392ff"><path d="M 23.769531 23.769531 L 194 23.769531 L 194 199 L 23.769531 199 Z M 23.769531 23.769531 " clip-rule="nonzero"/></clipPath><clipPath id="e816df483e"><path d="M 23.769531 44.769531 L 23.769531 328.648438 C 23.769531 340.246094 33.167969 349.648438 44.769531 349.648438 L 328.648438 349.648438 C 340.246094 349.648438 349.648438 340.246094 349.648438 328.648438 L 349.648438 44.769531 C 349.648438 33.167969 340.246094 23.769531 328.648438 23.769531 L 44.769531 23.769531 C 33.167969 23.769531 23.769531 33.167969 23.769531 44.769531 Z M 23.769531 44.769531 " clip-rule="nonzero"/></clipPath><clipPath id="e137343348"><path d="M 193 23.769531 L 350 23.769531 L 350 226 L 193 226 Z M 193 23.769531 " clip-rule="nonzero"/></clipPath><clipPath id="ccd3aacc9b"><path d="M 23.769531 44.769531 L 23.769531 328.648438 C 23.769531 340.246094 33.167969 349.648438 44.769531 349.648438 L 328.648438 349.648438 C 340.246094 349.648438 349.648438 340.246094 349.648438 328.648438 L 349.648438 44.769531 C 349.648438 33.167969 340.246094 23.769531 328.648438 23.769531 L 44.769531 23.769531 C 33.167969 23.769531 23.769531 33.167969 23.769531 44.769531 Z M 23.769531 44.769531 " clip-rule="nonzero"/></clipPath><clipPath id="3d23371688"><path d="M 146.582031 6.523438 L 201.617188 6.523438 L 201.617188 60.925781 L 146.582031 60.925781 Z M 146.582031 6.523438 " clip-rule="nonzero"/></clipPath><clipPath id="e9cb3a7c20"><path d="M 174 6.523438 C 158.855469 6.523438 146.582031 18.703125 146.582031 33.726562 C 146.582031 48.75 158.855469 60.925781 174 60.925781 C 189.144531 60.925781 201.417969 48.75 201.417969 33.726562 C 201.417969 18.703125 189.144531 6.523438 174 6.523438 Z M 174 6.523438 " clip-rule="nonzero"/></clipPath><clipPath id="5446da4e4b"><path d="M 59.796875 123.617188 L 114.835938 123.617188 L 114.835938 178.019531 L 59.796875 178.019531 Z M 59.796875 123.617188 " clip-rule="nonzero"/></clipPath><clipPath id="654c58e09f"><path d="M 87.21875 123.617188 C 72.074219 123.617188 59.796875 135.796875 59.796875 150.816406 C 59.796875 165.839844 72.074219 178.019531 87.21875 178.019531 C 102.363281 178.019531 114.636719 165.839844 114.636719 150.816406 C 114.636719 135.796875 102.363281 123.617188 87.21875 123.617188 Z M 87.21875 123.617188 " clip-rule="nonzero"/></clipPath><clipPath id="c171e1afd2"><path d="M 249.96875 206.527344 L 305 206.527344 L 305 260.925781 L 249.96875 260.925781 Z M 249.96875 206.527344 " clip-rule="nonzero"/></clipPath><clipPath id="3d435e491e"><path d="M 277.386719 206.527344 C 262.242188 206.527344 249.96875 218.703125 249.96875 233.726562 C 249.96875 248.75 262.242188 260.925781 277.386719 260.925781 C 292.53125 260.925781 304.804688 248.75 304.804688 233.726562 C 304.804688 218.703125 292.53125 206.527344 277.386719 206.527344 Z M 277.386719 206.527344 " clip-rule="nonzero"/></clipPath><clipPath id="9d1ce64fd6"><path d="M 258.800781 59.421875 L 314.078125 59.421875 L 314.078125 114.914062 L 258.800781 114.914062 Z M 258.800781 59.421875 " clip-rule="nonzero"/></clipPath><clipPath id="598bb07855"><path d="M 286.4375 59.421875 C 271.175781 59.421875 258.800781 71.839844 258.800781 87.160156 C 258.800781 102.476562 271.175781 114.898438 286.4375 114.898438 C 301.703125 114.898438 314.078125 102.476562 314.078125 87.160156 C 314.078125 71.839844 301.703125 59.421875 286.4375 59.421875 Z M 286.4375 59.421875 " clip-rule="nonzero"/></clipPath></defs><g clip-path="url(#541435006a)"><path fill="#FFFFFDFF" d="M 44.625 51.097656 L 295.710938 51.097656 L 295.710938 349.261719 L 44.625 349.261719 Z M 44.625 51.097656 " fill-opacity="1" fill-rule="nonzero"/></g><g clip-path="url(#eccced6d14)"><g clip-path="url(#4a8b81bd23)"><path fill="#FF010100" d="M 102.601562 327.664062 L 102.589844 327.640625 C 102.859375 327.480469 103.121094 327.308594 103.390625 327.144531 C 108.59375 323.75 113.660156 320.03125 118.5625 315.980469 L 118.511719 315.929688 C 137.59375 298.195312 147.023438 278.300781 146.535156 256.808594 C 145.671875 218.925781 114.957031 185.230469 102.625 173.199219 C 98.238281 176.214844 92.941406 177.988281 87.226562 177.988281 C 72.199219 177.988281 59.976562 165.765625 59.976562 150.738281 C 59.976562 135.707031 72.199219 123.492188 87.226562 123.492188 C 102.25 123.492188 114.476562 135.714844 114.476562 150.738281 C 114.476562 154.324219 113.761719 157.738281 112.496094 160.878906 C 125.65625 173.421875 161.195312 211.378906 162.230469 256.453125 C 162.289062 259.015625 162.199219 261.542969 162.039062 264.058594 C 171.9375 247.144531 179.507812 228.933594 184.710938 209.878906 L 184.382812 209.78125 C 185.039062 207.550781 185.726562 205.390625 186.421875 203.230469 C 197.394531 157.851562 195.164062 108.136719 179.03125 60.203125 C 177.335938 60.535156 175.59375 60.71875 173.804688 60.71875 C 158.78125 60.71875 146.550781 48.496094 146.550781 33.464844 C 146.550781 30.046875 147.214844 26.785156 148.371094 23.769531 L 23.769531 23.769531 L 23.769531 349.648438 L 46.234375 349.648438 C 66.035156 346.40625 85.097656 338.9375 102.601562 327.664062 Z M 102.601562 327.664062 " fill-opacity="1" fill-rule="nonzero"/></g></g><g clip-path="url(#74201a7456)"><g clip-path="url(#1bc2a91f90)"><path fill="#14327200" d="M 199.238281 23.769531 C 200.390625 26.785156 201.054688 30.046875 201.054688 33.464844 C 201.054688 40.984375 197.996094 47.804688 193.050781 52.738281 C 204.460938 85.675781 209.652344 119.480469 208.816406 152.394531 C 228.15625 119.132812 249.582031 101.144531 259.59375 93.964844 C 259.074219 91.855469 258.761719 89.667969 258.761719 87.398438 C 258.761719 72.375 270.988281 60.152344 286.015625 60.152344 C 301.039062 60.152344 313.261719 72.375 313.261719 87.398438 C 313.261719 102.429688 301.039062 114.652344 286.015625 114.652344 C 278.96875 114.652344 272.558594 111.941406 267.714844 107.539062 C 254.699219 117.289062 221.082031 147.195312 201.539062 207.5 C 195.808594 230.941406 186.777344 253.316406 174.496094 273.867188 C 198.089844 255.417969 221.769531 239.351562 250.070312 232.207031 C 250.84375 217.867188 262.71875 206.429688 277.25 206.429688 C 292.273438 206.429688 304.496094 218.652344 304.496094 233.675781 C 304.496094 248.703125 292.273438 260.929688 277.25 260.929688 C 267.257812 260.929688 258.527344 255.511719 253.785156 247.46875 C 221.988281 255.570312 195.371094 277.042969 167.289062 299.707031 C 150.054688 313.617188 132.230469 327.972656 112.195312 340.160156 C 106.863281 343.648438 101.390625 346.804688 95.8125 349.644531 L 349.65625 349.644531 L 349.65625 23.769531 Z M 199.238281 23.769531 " fill-opacity="1" fill-rule="nonzero"/></g></g><g clip-path="url(#0954e392ff)"><g clip-path="url(#e816df483e)"><path fill="#14327200" d="M 23.769531 23.769531 L 23.769531 77.378906 C 34.796875 95.472656 50.328125 113.3125 69.550781 130.035156 C 74.316406 125.960938 80.484375 123.484375 87.226562 123.484375 C 102.25 123.484375 114.476562 135.707031 114.476562 150.734375 C 114.476562 154.320312 113.761719 157.734375 112.496094 160.871094 C 113.113281 161.460938 113.800781 162.128906 114.519531 162.832031 C 136.417969 176.300781 160.945312 188.328125 187.527344 198.246094 C 197.175781 154.222656 194.574219 106.394531 179.03125 60.203125 C 177.335938 60.535156 175.59375 60.71875 173.804688 60.71875 C 158.78125 60.71875 146.550781 48.496094 146.550781 33.464844 C 146.550781 30.046875 147.214844 26.785156 148.371094 23.769531 Z M 23.769531 23.769531 " fill-opacity="1" fill-rule="nonzero"/></g></g><g clip-path="url(#e137343348)"><g clip-path="url(#ccd3aacc9b)"><path fill="#14327200" d="M 349.648438 23.769531 L 199.238281 23.769531 C 200.390625 26.785156 201.054688 30.046875 201.054688 33.464844 C 201.054688 40.984375 197.996094 47.804688 193.050781 52.738281 C 204.460938 85.675781 209.652344 119.480469 208.816406 152.394531 C 228.15625 119.132812 249.582031 101.144531 259.59375 93.964844 C 259.074219 91.855469 258.761719 89.667969 258.761719 87.398438 C 258.761719 72.375 270.988281 60.152344 286.015625 60.152344 C 301.039062 60.152344 313.261719 72.375 313.261719 87.398438 C 313.261719 102.429688 301.039062 114.652344 286.015625 114.652344 C 278.96875 114.652344 272.558594 111.941406 267.714844 107.539062 C 254.984375 117.078125 222.539062 145.929688 202.839844 203.640625 C 220.511719 209.519531 238.085938 214.160156 255.308594 217.59375 C 260.261719 210.832031 268.246094 206.433594 277.25 206.433594 C 288.914062 206.433594 298.859375 213.816406 302.738281 224.136719 C 319.023438 225.351562 334.742188 225.417969 349.652344 224.371094 L 349.652344 23.769531 Z M 349.648438 23.769531 " fill-opacity="1" fill-rule="nonzero"/></g></g><g clip-path="url(#3d23371688)"><g clip-path="url(#e9cb3a7c20)"><path fill="#ffd126" d="M 146.582031 6.523438 L 201.40625 6.523438 L 201.40625 60.925781 L 146.582031 60.925781 Z M 146.582031 6.523438 " fill-opacity="1" fill-rule="nonzero"/></g></g><g clip-path="url(#5446da4e4b)"><g clip-path="url(#654c58e09f)"><path fill="#ffd126" d="M 59.796875 123.617188 L 114.625 123.617188 L 114.625 178.019531 L 59.796875 178.019531 Z M 59.796875 123.617188 " fill-opacity="1" fill-rule="nonzero"/></g></g><g clip-path="url(#c171e1afd2)"><g clip-path="url(#3d435e491e)"><path fill="#ffd126" d="M 249.96875 206.527344 L 304.792969 206.527344 L 304.792969 260.925781 L 249.96875 260.925781 Z M 249.96875 206.527344 " fill-opacity="1" fill-rule="nonzero"/></g></g><g clip-path="url(#9d1ce64fd6)"><g clip-path="url(#598bb07855)"><path fill="#ffd126" d="M 258.800781 59.421875 L 314.078125 59.421875 L 314.078125 114.914062 L 258.800781 114.914062 Z M 258.800781 59.421875 " fill-opacity="1" fill-rule="nonzero"/></g></g></svg>