<svg xmlns="http://www.w3.org/2000/svg" xmlns:xlink="http://www.w3.org/1999/xlink" width="500" zoomAndPan="magnify" viewBox="0 0 375 374.999991" height="500" preserveAspectRatio="xMidYMid meet" version="1.0"><defs><clipPath id="ba5b1c59a4"><path d="M 22.496094 22.496094 L 352.496094 22.496094 L 352.496094 352.496094 L 22.496094 352.496094 Z M 22.496094 22.496094 " clip-rule="nonzero"/></clipPath><clipPath id="1d12d4c997"><path d="M 63.125 85.5625 L 285.125 85.5625 L 285.125 307.5625 L 63.125 307.5625 Z M 63.125 85.5625 " clip-rule="nonzero"/></clipPath><clipPath id="579777b0cb"><path d="M 90.226562 63.28125 L 312.226562 63.28125 L 312.226562 285.28125 L 90.226562 285.28125 Z M 90.226562 63.28125 " clip-rule="nonzero"/></clipPath><clipPath id="4741d42378"><path d="M 68.3125 68.3125 L 306.6875 68.3125 L 306.6875 306.6875 L 68.3125 306.6875 Z M 68.3125 68.3125 " clip-rule="nonzero"/></clipPath><clipPath id="77534b5f44"><path d="M 187.5 68.3125 L 225.425781 149.574219 L 306.6875 187.5 L 225.425781 225.425781 L 187.5 306.6875 L 149.574219 225.425781 L 68.3125 187.5 L 149.574219 149.574219 Z M 187.5 68.3125 " clip-rule="nonzero"/></clipPath><clipPath id="b25b7bb081"><path d="M 57 147 L 240 147 L 240 331 L 57 331 Z M 57 147 " clip-rule="nonzero"/></clipPath><clipPath id="33ce52d13a"><path d="M 57.082031 239.71875 L 148.828125 147.972656 L 239.515625 238.65625 L 147.769531 330.402344 Z M 57.082031 239.71875 " clip-rule="nonzero"/></clipPath><clipPath id="a7a55bbddd"><path d="M 4.894531 3.308594 L 371.640625 5.226562 L 369.71875 371.972656 L 2.972656 370.050781 Z M 4.894531 3.308594 " clip-rule="nonzero"/></clipPath><clipPath id="e691cec7c6"><path d="M 135 44 L 318 44 L 318 228 L 135 228 Z M 135 44 " clip-rule="nonzero"/></clipPath><clipPath id="08d73799fb"><path d="M 317.914062 135.273438 L 226.167969 227.019531 L 135.480469 136.335938 L 227.226562 44.585938 Z M 317.914062 135.273438 " clip-rule="nonzero"/></clipPath><clipPath id="20b1f41c79"><path d="M 370.101562 371.683594 L 3.355469 369.765625 L 5.277344 3.019531 L 372.019531 4.941406 Z M 370.101562 371.683594 " clip-rule="nonzero"/></clipPath><clipPath id="14f8bf8f52"><path d="M 162.71875 162.71875 L 212.21875 162.71875 L 212.21875 212.21875 L 162.71875 212.21875 Z M 162.71875 162.71875 " clip-rule="nonzero"/></clipPath></defs><path fill="#000000FF" d="M 187.441406 -0.046875 C 84.066406 -0.046875 -0.046875 84.066406 -0.046875 187.441406 C -0.046875 290.820312 84.066406 374.929688 187.441406 374.929688 C 290.820312 374.929688 374.929688 290.820312 374.929688 187.441406 C 374.929688 84.066406 290.820312 -0.046875 187.441406 -0.046875 Z M 187.441406 351.496094 C 96.980469 351.496094 23.390625 277.882812 23.390625 187.441406 C 23.390625 97.003906 96.980469 23.390625 187.441406 23.390625 C 277.90625 23.390625 351.496094 97.003906 351.496094 187.441406 C 351.496094 277.882812 277.90625 351.496094 187.441406 351.496094 Z M 187.441406 351.496094 " fill-opacity="1" fill-rule="nonzero"/><g clip-path="url(#ba5b1c59a4)"><path fill="#90BAF5" d="M 352.488281 187.492188 C 352.488281 190.191406 352.421875 192.890625 352.289062 195.585938 C 352.15625 198.285156 351.960938 200.976562 351.695312 203.664062 C 351.429688 206.351562 351.101562 209.03125 350.703125 211.703125 C 350.308594 214.371094 349.84375 217.03125 349.320312 219.679688 C 348.792969 222.328125 348.199219 224.964844 347.542969 227.582031 C 346.886719 230.203125 346.167969 232.804688 345.382812 235.386719 C 344.601562 237.972656 343.753906 240.535156 342.84375 243.078125 C 341.933594 245.621094 340.964844 248.140625 339.929688 250.632812 C 338.894531 253.128906 337.800781 255.597656 336.648438 258.039062 C 335.492188 260.476562 334.28125 262.890625 333.007812 265.269531 C 331.734375 267.652344 330.402344 270 329.015625 272.316406 C 327.625 274.632812 326.183594 276.914062 324.683594 279.160156 C 323.183594 281.40625 321.628906 283.613281 320.019531 285.78125 C 318.410156 287.949219 316.75 290.078125 315.035156 292.164062 C 313.324219 294.253906 311.558594 296.296875 309.746094 298.296875 C 307.933594 300.296875 306.070312 302.253906 304.164062 304.164062 C 302.253906 306.070312 300.296875 307.933594 298.296875 309.746094 C 296.296875 311.558594 294.253906 313.324219 292.164062 315.035156 C 290.078125 316.75 287.949219 318.410156 285.78125 320.019531 C 283.613281 321.628906 281.40625 323.183594 279.160156 324.683594 C 276.914062 326.183594 274.632812 327.625 272.316406 329.015625 C 270 330.402344 267.652344 331.734375 265.269531 333.007812 C 262.890625 334.28125 260.476562 335.492188 258.039062 336.648438 C 255.597656 337.800781 253.128906 338.894531 250.632812 339.929688 C 248.140625 340.964844 245.621094 341.933594 243.078125 342.84375 C 240.535156 343.753906 237.972656 344.601562 235.386719 345.382812 C 232.804688 346.167969 230.203125 346.886719 227.582031 347.542969 C 224.964844 348.199219 222.328125 348.792969 219.679688 349.320312 C 217.03125 349.84375 214.371094 350.308594 211.703125 350.703125 C 209.03125 351.101562 206.351562 351.429688 203.664062 351.695312 C 200.976562 351.960938 198.285156 352.15625 195.585938 352.289062 C 192.890625 352.421875 190.191406 352.488281 187.492188 352.488281 C 184.792969 352.488281 182.09375 352.421875 179.394531 352.289062 C 176.699219 352.15625 174.007812 351.960938 171.320312 351.695312 C 168.632812 351.429688 165.953125 351.101562 163.28125 350.703125 C 160.609375 350.308594 157.949219 349.84375 155.300781 349.320312 C 152.652344 348.792969 150.019531 348.199219 147.402344 347.542969 C 144.78125 346.886719 142.179688 346.167969 139.59375 345.382812 C 137.011719 344.601562 134.449219 343.753906 131.90625 342.84375 C 129.363281 341.933594 126.84375 340.964844 124.351562 339.929688 C 121.855469 338.894531 119.386719 337.800781 116.945312 336.648438 C 114.503906 335.492188 112.09375 334.28125 109.710938 333.007812 C 107.332031 331.734375 104.980469 330.402344 102.667969 329.015625 C 100.351562 327.625 98.070312 326.183594 95.824219 324.683594 C 93.578125 323.183594 91.371094 321.628906 89.203125 320.019531 C 87.035156 318.410156 84.90625 316.75 82.820312 315.035156 C 80.730469 313.324219 78.6875 311.558594 76.6875 309.746094 C 74.683594 307.933594 72.730469 306.070312 70.820312 304.164062 C 68.910156 302.253906 67.050781 300.296875 65.238281 298.296875 C 63.421875 296.296875 61.660156 294.253906 59.945312 292.164062 C 58.234375 290.078125 56.574219 287.949219 54.964844 285.78125 C 53.355469 283.613281 51.800781 281.40625 50.300781 279.160156 C 48.800781 276.914062 47.355469 274.632812 45.96875 272.316406 C 44.582031 270 43.25 267.652344 41.976562 265.269531 C 40.703125 262.890625 39.492188 260.476562 38.335938 258.039062 C 37.179688 255.597656 36.085938 253.128906 35.054688 250.632812 C 34.019531 248.140625 33.050781 245.621094 32.140625 243.078125 C 31.230469 240.535156 30.382812 237.972656 29.597656 235.386719 C 28.816406 232.804688 28.09375 230.203125 27.4375 227.582031 C 26.78125 224.964844 26.191406 222.328125 25.664062 219.679688 C 25.136719 217.03125 24.675781 214.371094 24.28125 211.703125 C 23.882812 209.03125 23.554688 206.351562 23.289062 203.664062 C 23.023438 200.976562 22.824219 198.285156 22.691406 195.585938 C 22.558594 192.890625 22.496094 190.191406 22.496094 187.492188 C 22.496094 184.792969 22.558594 182.09375 22.691406 179.394531 C 22.824219 176.699219 23.023438 174.007812 23.289062 171.320312 C 23.554688 168.632812 23.882812 165.953125 24.28125 163.28125 C 24.675781 160.609375 25.136719 157.949219 25.664062 155.300781 C 26.191406 152.652344 26.78125 150.019531 27.4375 147.402344 C 28.09375 144.78125 28.816406 142.179688 29.597656 139.59375 C 30.382812 137.011719 31.230469 134.449219 32.140625 131.90625 C 33.050781 129.363281 34.019531 126.84375 35.054688 124.351562 C 36.085938 121.855469 37.179688 119.386719 38.335938 116.945312 C 39.492188 114.503906 40.703125 112.09375 41.976562 109.710938 C 43.25 107.332031 44.582031 104.980469 45.96875 102.667969 C 47.355469 100.351562 48.800781 98.070312 50.300781 95.824219 C 51.800781 93.578125 53.355469 91.371094 54.964844 89.203125 C 56.574219 87.035156 58.234375 84.90625 59.945312 82.820312 C 61.660156 80.730469 63.421875 78.6875 65.238281 76.6875 C 67.050781 74.683594 68.910156 72.730469 70.820312 70.820312 C 72.730469 68.910156 74.683594 67.050781 76.6875 65.238281 C 78.6875 63.421875 80.730469 61.660156 82.820312 59.945312 C 84.90625 58.234375 87.035156 56.574219 89.203125 54.964844 C 91.371094 53.355469 93.578125 51.800781 95.824219 50.300781 C 98.070312 48.800781 100.351562 47.355469 102.667969 45.96875 C 104.980469 44.582031 107.332031 43.25 109.710938 41.976562 C 112.09375 40.703125 114.503906 39.492188 116.945312 38.335938 C 119.386719 37.179688 121.855469 36.085938 124.351562 35.054688 C 126.84375 34.019531 129.363281 33.050781 131.90625 32.140625 C 134.449219 31.230469 137.011719 30.382812 139.59375 29.597656 C 142.179688 28.816406 144.78125 28.09375 147.402344 27.4375 C 150.019531 26.78125 152.652344 26.191406 155.300781 25.664062 C 157.949219 25.136719 160.609375 24.675781 163.28125 24.28125 C 165.953125 23.882812 168.632812 23.554688 171.320312 23.289062 C 174.007812 23.023438 176.699219 22.824219 179.394531 22.691406 C 182.09375 22.558594 184.792969 22.496094 187.492188 22.496094 C 190.191406 22.496094 192.890625 22.558594 195.585938 22.691406 C 198.285156 22.824219 200.976562 23.023438 203.664062 23.289062 C 206.351562 23.554688 209.03125 23.882812 211.703125 24.28125 C 214.371094 24.675781 217.03125 25.136719 219.679688 25.664062 C 222.328125 26.191406 224.964844 26.78125 227.582031 27.4375 C 230.203125 28.09375 232.804688 28.816406 235.386719 29.597656 C 237.972656 30.382812 240.535156 31.230469 243.078125 32.140625 C 245.621094 33.050781 248.140625 34.019531 250.632812 35.054688 C 253.128906 36.085938 255.597656 37.179688 258.039062 38.335938 C 260.476562 39.492188 262.890625 40.703125 265.269531 41.976562 C 267.652344 43.25 270 44.582031 272.316406 45.96875 C 274.632812 47.355469 276.914062 48.800781 279.160156 50.300781 C 281.40625 51.800781 283.613281 53.355469 285.78125 54.964844 C 287.949219 56.574219 290.078125 58.234375 292.164062 59.945312 C 294.253906 61.660156 296.296875 63.421875 298.296875 65.238281 C 300.296875 67.050781 302.253906 68.910156 304.164062 70.820312 C 306.070312 72.730469 307.933594 74.683594 309.746094 76.6875 C 311.558594 78.6875 313.324219 80.730469 315.035156 82.820312 C 316.75 84.90625 318.410156 87.035156 320.019531 89.203125 C 321.628906 91.371094 323.183594 93.578125 324.683594 95.824219 C 326.183594 98.070312 327.625 100.351562 329.015625 102.667969 C 330.402344 104.980469 331.734375 107.332031 333.007812 109.710938 C 334.28125 112.09375 335.492188 114.503906 336.648438 116.945312 C 337.800781 119.386719 338.894531 121.855469 339.929688 124.351562 C 340.964844 126.84375 341.933594 129.363281 342.84375 131.90625 C 343.753906 134.449219 344.601562 137.011719 345.382812 139.59375 C 346.167969 142.179688 346.886719 144.78125 347.542969 147.402344 C 348.199219 150.019531 348.792969 152.652344 349.320312 155.300781 C 349.84375 157.949219 350.308594 160.609375 350.703125 163.28125 C 351.101562 165.953125 351.429688 168.632812 351.695312 171.320312 C 351.960938 174.007812 352.15625 176.699219 352.289062 179.394531 C 352.421875 182.09375 352.488281 184.792969 352.488281 187.492188 Z M 352.488281 187.492188 " fill-opacity="1" fill-rule="nonzero"/></g><g clip-path="url(#0a3675)"><path fill="#90BAF5" d="M 285.050781 196.523438 C 285.050781 198.339844 285.003906 200.15625 284.914062 201.96875 C 284.828125 203.785156 284.691406 205.59375 284.515625 207.402344 C 284.335938 209.207031 284.113281 211.011719 283.847656 212.808594 C 283.582031 214.601562 283.273438 216.390625 282.917969 218.171875 C 282.5625 219.953125 282.164062 221.726562 281.722656 223.488281 C 281.28125 225.25 280.796875 227 280.269531 228.734375 C 279.746094 230.472656 279.175781 232.199219 278.5625 233.90625 C 277.949219 235.617188 277.296875 237.3125 276.601562 238.988281 C 275.90625 240.667969 275.171875 242.328125 274.394531 243.96875 C 273.621094 245.609375 272.804688 247.230469 271.945312 248.832031 C 271.089844 250.433594 270.195312 252.015625 269.261719 253.570312 C 268.328125 255.128906 267.359375 256.664062 266.347656 258.171875 C 265.339844 259.683594 264.292969 261.167969 263.210938 262.625 C 262.132812 264.085938 261.015625 265.515625 259.863281 266.917969 C 258.710938 268.324219 257.523438 269.699219 256.304688 271.042969 C 255.085938 272.390625 253.832031 273.703125 252.550781 274.988281 C 251.265625 276.273438 249.949219 277.523438 248.605469 278.742188 C 247.257812 279.960938 245.882812 281.148438 244.480469 282.300781 C 243.078125 283.453125 241.644531 284.570312 240.1875 285.652344 C 238.726562 286.734375 237.242188 287.777344 235.734375 288.789062 C 234.222656 289.796875 232.691406 290.769531 231.132812 291.703125 C 229.574219 292.636719 227.996094 293.53125 226.394531 294.386719 C 224.792969 295.242188 223.171875 296.058594 221.527344 296.835938 C 219.886719 297.609375 218.226562 298.347656 216.550781 299.042969 C 214.871094 299.738281 213.179688 300.390625 211.46875 301 C 209.757812 301.613281 208.035156 302.183594 206.296875 302.710938 C 204.558594 303.238281 202.808594 303.722656 201.046875 304.164062 C 199.285156 304.605469 197.515625 305 195.734375 305.355469 C 193.953125 305.710938 192.164062 306.019531 190.367188 306.289062 C 188.570312 306.554688 186.769531 306.777344 184.960938 306.953125 C 183.15625 307.132812 181.34375 307.265625 179.53125 307.355469 C 177.71875 307.445312 175.902344 307.488281 174.085938 307.488281 C 172.269531 307.488281 170.457031 307.445312 168.640625 307.355469 C 166.828125 307.265625 165.015625 307.132812 163.210938 306.953125 C 161.402344 306.777344 159.601562 306.554688 157.804688 306.289062 C 156.007812 306.019531 154.21875 305.710938 152.4375 305.355469 C 150.65625 305 148.886719 304.605469 147.125 304.164062 C 145.363281 303.722656 143.613281 303.238281 141.875 302.710938 C 140.136719 302.183594 138.414062 301.613281 136.703125 301 C 134.992188 300.390625 133.300781 299.738281 131.621094 299.042969 C 129.945312 298.347656 128.285156 297.609375 126.644531 296.835938 C 125 296.058594 123.378906 295.242188 121.777344 294.386719 C 120.175781 293.53125 118.597656 292.636719 117.039062 291.703125 C 115.480469 290.769531 113.949219 289.796875 112.4375 288.789062 C 110.929688 287.777344 109.445312 286.734375 107.984375 285.652344 C 106.527344 284.570312 105.097656 283.453125 103.691406 282.300781 C 102.289062 281.148438 100.914062 279.960938 99.566406 278.742188 C 98.222656 277.523438 96.90625 276.273438 95.625 274.988281 C 94.339844 273.703125 93.085938 272.390625 91.867188 271.042969 C 90.648438 269.699219 89.460938 268.324219 88.3125 266.917969 C 87.160156 265.515625 86.042969 264.085938 84.960938 262.625 C 83.878906 261.167969 82.832031 259.683594 81.824219 258.171875 C 80.816406 256.664062 79.84375 255.128906 78.910156 253.570312 C 77.976562 252.015625 77.082031 250.433594 76.226562 248.832031 C 75.371094 247.230469 74.554688 245.609375 73.777344 243.96875 C 73 242.328125 72.265625 240.667969 71.570312 238.988281 C 70.875 237.3125 70.222656 235.617188 69.609375 233.90625 C 68.996094 232.199219 68.429688 230.472656 67.902344 228.734375 C 67.375 227 66.890625 225.25 66.449219 223.488281 C 66.007812 221.726562 65.609375 219.953125 65.253906 218.171875 C 64.902344 216.390625 64.589844 214.601562 64.324219 212.808594 C 64.058594 211.011719 63.835938 209.207031 63.65625 207.402344 C 63.480469 205.59375 63.347656 203.785156 63.257812 201.96875 C 63.167969 200.15625 63.125 198.339844 63.125 196.523438 C 63.125 194.710938 63.167969 192.894531 63.257812 191.082031 C 63.347656 189.265625 63.480469 187.457031 63.65625 185.648438 C 63.835938 183.839844 64.058594 182.039062 64.324219 180.242188 C 64.589844 178.445312 64.902344 176.660156 65.253906 174.878906 C 65.609375 173.097656 66.007812 171.324219 66.449219 169.5625 C 66.890625 167.800781 67.375 166.050781 67.902344 164.3125 C 68.429688 162.578125 68.996094 160.851562 69.609375 159.144531 C 70.222656 157.433594 70.875 155.738281 71.570312 154.0625 C 72.265625 152.382812 73 150.722656 73.777344 149.082031 C 74.554688 147.441406 75.371094 145.820312 76.226562 144.21875 C 77.082031 142.617188 77.976562 141.035156 78.910156 139.476562 C 79.84375 137.921875 80.816406 136.386719 81.824219 134.878906 C 82.832031 133.367188 83.878906 131.882812 84.960938 130.425781 C 86.042969 128.964844 87.160156 127.535156 88.3125 126.128906 C 89.460938 124.726562 90.648438 123.351562 91.867188 122.007812 C 93.085938 120.660156 94.339844 119.347656 95.625 118.0625 C 96.90625 116.777344 98.222656 115.527344 99.566406 114.308594 C 100.914062 113.085938 102.289062 111.902344 103.691406 110.75 C 105.097656 109.597656 106.527344 108.480469 107.984375 107.398438 C 109.445312 106.316406 110.929688 105.269531 112.4375 104.261719 C 113.949219 103.253906 115.480469 102.28125 117.039062 101.347656 C 118.597656 100.414062 120.175781 99.519531 121.777344 98.664062 C 123.378906 97.808594 125 96.992188 126.644531 96.214844 C 128.285156 95.4375 129.945312 94.703125 131.621094 94.007812 C 133.300781 93.3125 134.992188 92.660156 136.703125 92.046875 C 138.414062 91.4375 140.136719 90.867188 141.875 90.339844 C 143.613281 89.8125 145.363281 89.328125 147.125 88.886719 C 148.886719 88.445312 150.65625 88.046875 152.4375 87.695312 C 154.21875 87.339844 156.007812 87.027344 157.804688 86.761719 C 159.601562 86.496094 161.402344 86.273438 163.210938 86.097656 C 165.015625 85.917969 166.828125 85.785156 168.640625 85.695312 C 170.457031 85.605469 172.269531 85.5625 174.085938 85.5625 C 175.902344 85.5625 177.71875 85.605469 179.53125 85.695312 C 181.34375 85.785156 183.15625 85.917969 184.960938 86.097656 C 186.769531 86.273438 188.570312 86.496094 190.367188 86.761719 C 192.164062 87.027344 193.953125 87.339844 195.734375 87.695312 C 197.515625 88.046875 199.285156 88.445312 201.046875 88.886719 C 202.808594 89.328125 204.558594 89.8125 206.296875 90.339844 C 208.035156 90.867188 209.757812 91.4375 211.46875 92.046875 C 213.179688 92.660156 214.871094 93.3125 216.550781 94.007812 C 218.226562 94.703125 219.886719 95.4375 221.527344 96.214844 C 223.171875 96.992188 224.792969 97.808594 226.394531 98.664062 C 227.996094 99.519531 229.574219 100.414062 231.132812 101.347656 C 232.691406 102.28125 234.222656 103.253906 235.734375 104.261719 C 237.242188 105.269531 238.726562 106.316406 240.1875 107.398438 C 241.644531 108.480469 243.078125 109.597656 244.480469 110.75 C 245.882812 111.902344 247.257812 113.085938 248.605469 114.308594 C 249.949219 115.527344 251.265625 116.777344 252.550781 118.0625 C 253.832031 119.347656 255.085938 120.660156 256.304688 122.007812 C 257.523438 123.351562 258.710938 124.726562 259.863281 126.128906 C 261.015625 127.535156 262.132812 128.964844 263.210938 130.425781 C 264.292969 131.882812 265.339844 133.367188 266.347656 134.878906 C 267.359375 136.386719 268.328125 137.921875 269.261719 139.476562 C 270.195312 141.035156 271.089844 142.617188 271.945312 144.21875 C 272.804688 145.820312 273.621094 147.441406 274.394531 149.082031 C 275.171875 150.722656 275.90625 152.382812 276.601562 154.0625 C 277.296875 155.738281 277.953125 157.433594 278.5625 159.144531 C 279.175781 160.851562 279.746094 162.578125 280.269531 164.3125 C 280.796875 166.050781 281.28125 167.800781 281.722656 169.5625 C 282.164062 171.324219 282.5625 173.097656 282.917969 174.878906 C 283.273438 176.660156 283.582031 178.445312 283.847656 180.242188 C 284.113281 182.039062 284.335938 183.839844 284.515625 185.648438 C 284.691406 187.457031 284.828125 189.265625 284.914062 191.082031 C 285.003906 192.894531 285.050781 194.710938 285.050781 196.523438 Z M 285.050781 196.523438 " fill-opacity="1" fill-rule="nonzero"/></g><g clip-path="url(#579777b0cb)"><path fill="#90BAF5" d="M 312.152344 174.242188 C 312.152344 176.058594 312.109375 177.875 312.019531 179.6875 C 311.929688 181.503906 311.796875 183.3125 311.621094 185.121094 C 311.441406 186.925781 311.21875 188.730469 310.953125 190.527344 C 310.6875 192.320312 310.375 194.109375 310.023438 195.890625 C 309.667969 197.671875 309.269531 199.445312 308.828125 201.207031 C 308.386719 202.96875 307.902344 204.71875 307.375 206.453125 C 306.847656 208.191406 306.277344 209.917969 305.667969 211.625 C 305.054688 213.335938 304.402344 215.03125 303.707031 216.707031 C 303.011719 218.386719 302.277344 220.046875 301.5 221.6875 C 300.722656 223.328125 299.90625 224.949219 299.050781 226.550781 C 298.195312 228.152344 297.300781 229.734375 296.367188 231.289062 C 295.433594 232.847656 294.460938 234.382812 293.453125 235.890625 C 292.445312 237.402344 291.398438 238.886719 290.316406 240.34375 C 289.234375 241.804688 288.117188 243.234375 286.964844 244.636719 C 285.8125 246.042969 284.628906 247.417969 283.410156 248.761719 C 282.1875 250.109375 280.9375 251.421875 279.652344 252.707031 C 278.367188 253.992188 277.054688 255.242188 275.707031 256.460938 C 274.363281 257.683594 272.988281 258.867188 271.585938 260.019531 C 270.179688 261.171875 268.75 262.289062 267.292969 263.371094 C 265.832031 264.453125 264.347656 265.496094 262.839844 266.507812 C 261.328125 267.515625 259.792969 268.488281 258.238281 269.421875 C 256.679688 270.355469 255.101562 271.25 253.5 272.105469 C 251.898438 272.960938 250.273438 273.777344 248.632812 274.554688 C 246.992188 275.328125 245.332031 276.066406 243.652344 276.761719 C 241.976562 277.457031 240.28125 278.109375 238.574219 278.71875 C 236.863281 279.332031 235.140625 279.902344 233.402344 280.429688 C 231.664062 280.957031 229.914062 281.441406 228.152344 281.882812 C 226.390625 282.324219 224.621094 282.71875 222.839844 283.074219 C 221.058594 283.429688 219.269531 283.738281 217.472656 284.007812 C 215.675781 284.273438 213.875 284.496094 212.066406 284.671875 C 210.257812 284.851562 208.449219 284.984375 206.636719 285.074219 C 204.820312 285.164062 203.007812 285.207031 201.191406 285.207031 C 199.375 285.207031 197.558594 285.164062 195.746094 285.074219 C 193.933594 284.984375 192.121094 284.851562 190.3125 284.671875 C 188.507812 284.496094 186.707031 284.273438 184.910156 284.007812 C 183.113281 283.738281 181.324219 283.429688 179.542969 283.074219 C 177.761719 282.71875 175.988281 282.324219 174.230469 281.882812 C 172.46875 281.441406 170.71875 280.957031 168.980469 280.429688 C 167.242188 279.902344 165.519531 279.332031 163.808594 278.71875 C 162.097656 278.109375 160.40625 277.457031 158.726562 276.761719 C 157.050781 276.066406 155.390625 275.328125 153.746094 274.554688 C 152.105469 273.777344 150.484375 272.960938 148.882812 272.105469 C 147.28125 271.25 145.703125 270.355469 144.144531 269.421875 C 142.585938 268.488281 141.050781 267.515625 139.542969 266.507812 C 138.03125 265.496094 136.546875 264.453125 135.089844 263.371094 C 133.632812 262.289062 132.199219 261.171875 130.796875 260.019531 C 129.390625 258.867188 128.019531 257.683594 126.671875 256.460938 C 125.328125 255.242188 124.011719 253.992188 122.726562 252.707031 C 121.445312 251.421875 120.191406 250.109375 118.972656 248.761719 C 117.753906 247.417969 116.566406 246.042969 115.414062 244.636719 C 114.261719 243.234375 113.144531 241.804688 112.0625 240.34375 C 110.980469 238.886719 109.9375 237.402344 108.929688 235.890625 C 107.917969 234.382812 106.949219 232.847656 106.015625 231.289062 C 105.082031 229.734375 104.1875 228.152344 103.328125 226.550781 C 102.472656 224.949219 101.65625 223.328125 100.882812 221.6875 C 100.105469 220.046875 99.367188 218.386719 98.675781 216.707031 C 97.980469 215.03125 97.324219 213.335938 96.714844 211.625 C 96.101562 209.917969 95.53125 208.191406 95.003906 206.453125 C 94.476562 204.71875 93.992188 202.96875 93.550781 201.207031 C 93.113281 199.445312 92.714844 197.671875 92.359375 195.890625 C 92.003906 194.109375 91.695312 192.320312 91.429688 190.527344 C 91.160156 188.730469 90.941406 186.925781 90.761719 185.121094 C 90.582031 183.3125 90.449219 181.503906 90.359375 179.6875 C 90.273438 177.875 90.226562 176.058594 90.226562 174.242188 C 90.226562 172.429688 90.273438 170.613281 90.359375 168.800781 C 90.449219 166.984375 90.582031 165.175781 90.761719 163.367188 C 90.941406 161.558594 91.160156 159.757812 91.429688 157.960938 C 91.695312 156.164062 92.003906 154.378906 92.359375 152.597656 C 92.714844 150.816406 93.113281 149.042969 93.550781 147.28125 C 93.992188 145.519531 94.476562 143.769531 95.003906 142.03125 C 95.53125 140.296875 96.101562 138.570312 96.714844 136.863281 C 97.324219 135.152344 97.980469 133.457031 98.675781 131.78125 C 99.367188 130.101562 100.105469 128.441406 100.882812 126.800781 C 101.65625 125.160156 102.472656 123.539062 103.328125 121.9375 C 104.1875 120.335938 105.082031 118.753906 106.015625 117.199219 C 106.949219 115.640625 107.917969 114.105469 108.929688 112.597656 C 109.9375 111.085938 110.980469 109.601562 112.0625 108.144531 C 113.144531 106.683594 114.261719 105.253906 115.414062 103.847656 C 116.566406 102.445312 117.753906 101.070312 118.972656 99.726562 C 120.191406 98.378906 121.445312 97.066406 122.726562 95.78125 C 124.011719 94.496094 125.328125 93.246094 126.671875 92.027344 C 128.019531 90.804688 129.390625 89.621094 130.796875 88.46875 C 132.199219 87.316406 133.632812 86.199219 135.089844 85.117188 C 136.546875 84.035156 138.03125 82.992188 139.542969 81.980469 C 141.050781 80.972656 142.585938 80 144.144531 79.066406 C 145.703125 78.132812 147.28125 77.238281 148.882812 76.382812 C 150.484375 75.527344 152.105469 74.710938 153.746094 73.933594 C 155.390625 73.15625 157.050781 72.421875 158.726562 71.726562 C 160.40625 71.03125 162.097656 70.378906 163.808594 69.765625 C 165.519531 69.15625 167.242188 68.585938 168.980469 68.058594 C 170.71875 67.53125 172.46875 67.046875 174.230469 66.605469 C 175.988281 66.164062 177.761719 65.765625 179.542969 65.414062 C 181.324219 65.058594 183.113281 64.75 184.910156 64.480469 C 186.707031 64.214844 188.507812 63.992188 190.3125 63.816406 C 192.121094 63.636719 193.933594 63.503906 195.746094 63.414062 C 197.558594 63.324219 199.375 63.28125 201.191406 63.28125 C 203.007812 63.28125 204.820312 63.324219 206.636719 63.414062 C 208.449219 63.503906 210.257812 63.636719 212.066406 63.816406 C 213.875 63.992188 215.675781 64.214844 217.472656 64.480469 C 219.269531 64.75 221.058594 65.058594 222.839844 65.414062 C 224.621094 65.765625 226.390625 66.164062 228.152344 66.605469 C 229.914062 67.046875 231.664062 67.53125 233.402344 68.058594 C 235.140625 68.585938 236.863281 69.15625 238.574219 69.765625 C 240.28125 70.378906 241.976562 71.03125 243.652344 71.726562 C 245.332031 72.421875 246.992188 73.15625 248.632812 73.933594 C 250.273438 74.710938 251.898438 75.527344 253.5 76.382812 C 255.101562 77.238281 256.679688 78.132812 258.238281 79.066406 C 259.792969 80 261.328125 80.972656 262.839844 81.980469 C 264.347656 82.992188 265.832031 84.035156 267.292969 85.117188 C 268.75 86.199219 270.179688 87.316406 271.585938 88.46875 C 272.988281 89.621094 274.363281 90.804688 275.707031 92.027344 C 277.054688 93.246094 278.367188 94.496094 279.652344 95.78125 C 280.9375 97.066406 282.1875 98.378906 283.410156 99.726562 C 284.628906 101.070312 285.8125 102.445312 286.964844 103.847656 C 288.117188 105.253906 289.234375 106.683594 290.316406 108.144531 C 291.398438 109.601562 292.445312 111.085938 293.453125 112.597656 C 294.460938 114.105469 295.433594 115.640625 296.367188 117.199219 C 297.300781 118.753906 298.195312 120.335938 299.050781 121.9375 C 299.90625 123.539062 300.722656 125.160156 301.5 126.800781 C 302.277344 128.441406 303.011719 130.101562 303.707031 131.78125 C 304.402344 133.457031 305.054688 135.152344 305.667969 136.863281 C 306.277344 138.570312 306.847656 140.296875 307.375 142.03125 C 307.902344 143.769531 308.386719 145.519531 308.828125 147.28125 C 309.269531 149.042969 309.667969 150.816406 310.023438 152.597656 C 310.375 154.378906 310.6875 156.164062 310.953125 157.960938 C 311.21875 159.757812 311.441406 161.558594 311.621094 163.367188 C 311.796875 165.175781 311.929688 166.984375 312.019531 168.800781 C 312.109375 170.613281 312.152344 172.429688 312.152344 174.242188 Z M 312.152344 174.242188 " fill-opacity="1" fill-rule="nonzero"/></g><g clip-path="url(#b25b7bb081)"><g clip-path="url(#33ce52d13a)"><g clip-path="url(#a7a55bbddd)"><path fill="#004aad" d="M 188.414062 4.269531 C 87.207031 3.738281 4.464844 85.621094 3.933594 186.828125 C 3.402344 288.03125 85.285156 370.777344 186.492188 371.304688 C 287.699219 371.835938 370.441406 289.953125 370.972656 188.75 C 371.5 87.542969 289.542969 4.796875 188.414062 4.269531 Z M 186.617188 347.222656 C 98.652344 346.761719 27.476562 274.839844 27.9375 186.953125 C 28.398438 98.988281 100.324219 27.8125 188.289062 28.273438 C 276.253906 28.734375 347.351562 100.65625 346.890625 188.542969 C 346.429688 276.507812 274.503906 347.683594 186.617188 347.222656 Z M 63.480469 187.136719 C 63.457031 191.707031 59.71875 195.402344 55.152344 195.378906 L 40.207031 195.300781 C 35.636719 195.277344 31.941406 191.542969 31.964844 186.972656 C 31.988281 182.40625 35.726562 178.707031 40.292969 178.730469 L 55.316406 178.808594 C 59.808594 178.753906 63.503906 182.570312 63.480469 187.136719 Z M 342.863281 188.601562 C 342.839844 193.167969 339.101562 196.867188 334.535156 196.84375 L 319.511719 196.765625 C 314.941406 196.742188 311.246094 193.003906 311.269531 188.433594 C 311.292969 183.867188 315.03125 180.167969 319.597656 180.195312 L 334.621094 180.273438 C 339.191406 180.21875 342.886719 184.03125 342.863281 188.601562 Z M 179.78125 55.484375 L 179.859375 40.542969 C 179.882812 35.972656 183.621094 32.273438 188.1875 32.300781 C 192.757812 32.324219 196.457031 36.058594 196.429688 40.628906 L 196.351562 55.648438 C 196.328125 60.21875 192.59375 63.914062 188.023438 63.890625 C 183.457031 63.867188 179.757812 60.054688 179.78125 55.484375 Z M 195.046875 320.011719 L 194.96875 334.957031 C 194.945312 339.523438 191.207031 343.222656 186.640625 343.199219 C 182.070312 343.171875 178.371094 339.4375 178.398438 334.867188 L 178.476562 319.847656 C 178.5 315.277344 182.234375 311.582031 186.804688 311.605469 C 191.371094 311.628906 195.070312 315.441406 195.046875 320.011719 Z M 270.941406 96.925781 L 160.800781 160.933594 L 95.644531 270.394531 C 94.082031 273.019531 94.765625 275.890625 96.535156 277.679688 C 98.308594 279.46875 101.167969 280.179688 103.808594 278.648438 L 213.949219 214.640625 L 279.105469 105.179688 C 282.308594 99.851562 276.300781 93.78125 270.941406 96.925781 Z M 204.246094 204.757812 C 194.828125 214.078125 179.726562 213.996094 170.40625 204.578125 C 161.085938 195.160156 161.164062 180.0625 170.582031 170.742188 C 180 161.417969 195.101562 161.5 204.421875 170.917969 C 213.742188 180.335938 213.664062 195.4375 204.246094 204.757812 Z M 204.246094 204.757812 " fill-opacity="1" fill-rule="nonzero"/></g></g></g><g clip-path="url(#e691cec7c6)"><g clip-path="url(#08d73799fb)"><g clip-path="url(#20b1f41c79)"><path fill="#ffd900" d="M 186.582031 370.722656 C 287.789062 371.253906 370.53125 289.371094 371.0625 188.164062 C 371.589844 86.960938 289.710938 4.214844 188.503906 3.6875 C 87.296875 3.15625 4.554688 85.039062 4.023438 186.242188 C 3.492188 287.449219 85.453125 370.195312 186.582031 370.722656 Z M 188.378906 27.769531 C 276.34375 28.230469 347.515625 100.152344 347.058594 188.039062 C 346.597656 276.003906 274.671875 347.179688 186.707031 346.71875 C 98.742188 346.257812 27.644531 274.335938 28.105469 186.449219 C 28.566406 98.480469 100.488281 27.308594 188.378906 27.769531 Z M 311.515625 187.855469 C 311.539062 183.285156 315.273438 179.589844 319.84375 179.613281 L 334.789062 179.691406 C 339.355469 179.714844 343.054688 183.449219 343.03125 188.019531 C 343.007812 192.585938 339.269531 196.285156 334.703125 196.261719 L 319.679688 196.183594 C 315.1875 196.238281 311.492188 192.421875 311.515625 187.855469 Z M 32.132812 186.390625 C 32.15625 181.824219 35.890625 178.125 40.460938 178.148438 L 55.484375 178.226562 C 60.050781 178.25 63.75 181.988281 63.726562 186.558594 C 63.703125 191.125 59.964844 194.824219 55.394531 194.796875 L 40.375 194.71875 C 35.804688 194.773438 32.109375 190.960938 32.132812 186.390625 Z M 195.214844 319.507812 L 195.132812 334.449219 C 195.109375 339.019531 191.375 342.71875 186.804688 342.691406 C 182.238281 342.667969 178.539062 338.933594 178.5625 334.363281 L 178.640625 319.34375 C 178.667969 314.773438 182.402344 311.074219 186.972656 311.101562 C 191.539062 311.125 195.238281 314.9375 195.214844 319.507812 Z M 179.949219 54.980469 L 180.027344 40.035156 C 180.050781 35.46875 183.789062 31.769531 188.355469 31.792969 C 192.925781 31.820312 196.621094 35.554688 196.597656 40.125 L 196.519531 55.144531 C 196.496094 59.714844 192.757812 63.410156 188.191406 63.386719 C 183.621094 63.363281 179.925781 59.550781 179.949219 54.980469 Z M 104.054688 278.066406 L 214.195312 214.058594 L 279.351562 104.597656 C 280.914062 101.972656 280.230469 99.101562 278.457031 97.3125 C 276.6875 95.523438 273.824219 94.8125 271.183594 96.34375 L 161.046875 160.351562 L 95.890625 269.8125 C 92.6875 275.140625 98.695312 281.210938 104.054688 278.066406 Z M 170.75 170.234375 C 180.167969 160.914062 195.269531 160.996094 204.589844 170.414062 C 213.910156 179.832031 213.832031 194.929688 204.410156 204.25 C 194.992188 213.574219 179.894531 213.492188 170.574219 204.074219 C 161.253906 194.65625 161.332031 179.554688 170.75 170.234375 Z M 170.75 170.234375 " fill-opacity="1" fill-rule="nonzero"/></g></g></g><g clip-path="url(#14f8bf8f52)"><path fill="#FFFFFFFF" d="M 212.277344 187.496094 C 212.277344 188.308594 212.238281 189.117188 212.15625 189.925781 C 212.078125 190.734375 211.960938 191.535156 211.800781 192.332031 C 211.640625 193.128906 211.445312 193.914062 211.210938 194.691406 C 210.972656 195.46875 210.703125 196.230469 210.390625 196.980469 C 210.082031 197.730469 209.734375 198.464844 209.351562 199.179688 C 208.96875 199.894531 208.550781 200.589844 208.101562 201.265625 C 207.648438 201.9375 207.167969 202.589844 206.652344 203.21875 C 206.136719 203.84375 205.59375 204.445312 205.019531 205.019531 C 204.445312 205.59375 203.84375 206.136719 203.21875 206.652344 C 202.589844 207.167969 201.9375 207.648438 201.265625 208.101562 C 200.589844 208.550781 199.894531 208.96875 199.179688 209.351562 C 198.464844 209.734375 197.730469 210.082031 196.980469 210.390625 C 196.230469 210.703125 195.46875 210.972656 194.691406 211.210938 C 193.914062 211.445312 193.128906 211.640625 192.332031 211.800781 C 191.535156 211.960938 190.734375 212.078125 189.925781 212.15625 C 189.117188 212.238281 188.308594 212.277344 187.496094 212.277344 C 186.6875 212.277344 185.875 212.238281 185.070312 212.15625 C 184.261719 212.078125 183.460938 211.960938 182.664062 211.800781 C 181.867188 211.640625 181.082031 211.445312 180.304688 211.210938 C 179.527344 210.972656 178.765625 210.703125 178.015625 210.390625 C 177.265625 210.082031 176.53125 209.734375 175.816406 209.351562 C 175.101562 208.96875 174.40625 208.550781 173.730469 208.101562 C 173.058594 207.648438 172.40625 207.167969 171.777344 206.652344 C 171.152344 206.136719 170.550781 205.59375 169.976562 205.019531 C 169.402344 204.445312 168.859375 203.84375 168.34375 203.21875 C 167.828125 202.589844 167.347656 201.9375 166.894531 201.265625 C 166.445312 200.589844 166.027344 199.894531 165.644531 199.179688 C 165.261719 198.464844 164.914062 197.730469 164.605469 196.980469 C 164.292969 196.230469 164.023438 195.46875 163.785156 194.691406 C 163.550781 193.914062 163.351562 193.128906 163.195312 192.332031 C 163.035156 191.535156 162.917969 190.734375 162.839844 189.925781 C 162.757812 189.117188 162.71875 188.308594 162.71875 187.496094 C 162.71875 186.6875 162.757812 185.875 162.839844 185.070312 C 162.917969 184.261719 163.035156 183.460938 163.195312 182.664062 C 163.351562 181.867188 163.550781 181.082031 163.785156 180.304688 C 164.023438 179.527344 164.292969 178.765625 164.605469 178.015625 C 164.914062 177.265625 165.261719 176.53125 165.644531 175.816406 C 166.027344 175.101562 166.445312 174.40625 166.894531 173.730469 C 167.347656 173.058594 167.828125 172.40625 168.34375 171.777344 C 168.859375 171.152344 169.402344 170.550781 169.976562 169.976562 C 170.550781 169.402344 171.152344 168.859375 171.777344 168.34375 C 172.40625 167.828125 173.058594 167.347656 173.730469 166.894531 C 174.40625 166.445312 175.101562 166.027344 175.816406 165.644531 C 176.53125 165.261719 177.265625 164.914062 178.015625 164.605469 C 178.765625 164.292969 179.527344 164.023438 180.304688 163.785156 C 181.082031 163.550781 181.867188 163.351562 182.664062 163.195312 C 183.460938 163.035156 184.261719 162.917969 185.070312 162.839844 C 185.875 162.757812 186.6875 162.71875 187.496094 162.71875 C 188.308594 162.71875 189.117188 162.757812 189.925781 162.839844 C 190.734375 162.917969 191.535156 163.035156 192.332031 163.195312 C 193.128906 163.351562 193.914062 163.550781 194.691406 163.785156 C 195.46875 164.023438 196.230469 164.292969 196.980469 164.605469 C 197.730469 164.914062 198.464844 165.261719 199.179688 165.644531 C 199.894531 166.027344 200.589844 166.445312 201.265625 166.894531 C 201.9375 167.347656 202.589844 167.828125 203.21875 168.34375 C 203.84375 168.859375 204.445312 169.402344 205.019531 169.976562 C 205.59375 170.550781 206.136719 171.152344 206.652344 171.777344 C 207.167969 172.40625 207.648438 173.058594 208.101562 173.730469 C 208.550781 174.40625 208.96875 175.101562 209.351562 175.816406 C 209.734375 176.53125 210.082031 177.265625 210.390625 178.015625 C 210.703125 178.765625 210.972656 179.527344 211.210938 180.304688 C 211.445312 181.082031 211.640625 181.867188 211.800781 182.664062 C 211.960938 183.460938 212.078125 184.261719 212.15625 185.070312 C 212.238281 185.875 212.277344 186.6875 212.277344 187.496094 Z M 212.277344 187.496094 " fill-opacity="1" fill-rule="nonzero"/></g></svg>