<svg xmlns="http://www.w3.org/2000/svg" xmlns:xlink="http://www.w3.org/1999/xlink" width="500" zoomAndPan="magnify" viewBox="0 0 375 374.999991" height="500" preserveAspectRatio="xMidYMid meet" version="1.0">

<defs><clipPath id="5ca8d6c25f"><path d="M 14.757812 14.757812 L 360.507812 14.757812 L 360.507812 360.507812 L 14.757812 360.507812 Z M 14.757812 14.757812 " clip-rule="nonzero"/></clipPath><clipPath id="662cc8266e"><path d="M 7.3125 7.3125 L 368 7.3125 L 368 368 L 7.3125 368 Z M 7.3125 7.3125 " clip-rule="nonzero"/></clipPath><clipPath id="75ef3897e9"><path d="M 49.773438 49.773438 L 324.703125 49.773438 L 324.703125 324.703125 L 49.773438 324.703125 Z M 49.773438 49.773438 " clip-rule="nonzero"/></clipPath><clipPath id="dd3b9ecfde"><path d="M 187.238281 49.773438 C 111.320312 49.773438 49.773438 111.320312 49.773438 187.238281 C 49.773438 263.160156 111.320312 324.703125 187.238281 324.703125 C 263.160156 324.703125 324.703125 263.160156 324.703125 187.238281 C 324.703125 111.320312 263.160156 49.773438 187.238281 49.773438 Z M 187.238281 49.773438 " clip-rule="nonzero"/></clipPath><clipPath id="50e5df5044"><path d="M 127 124 L 253 124 L 253 250 L 127 250 Z M 127 124 " clip-rule="nonzero"/></clipPath><clipPath id="4134fb58e6"><path d="M 102.207031 224.578125 L 227.371094 99.414062 L 277.671875 149.714844 L 152.507812 274.882812 Z M 102.207031 224.578125 " clip-rule="nonzero"/></clipPath><clipPath id="7087b185c9"><path d="M 164.699219 162.085938 L 252.34375 124.742188 L 215 212.386719 L 127.355469 249.730469 Z M 164.699219 162.085938 " clip-rule="nonzero"/></clipPath><clipPath id="fd5db5436c"><path d="M 110.757812 108.503906 L 264.507812 108.503906 L 264.507812 266.753906 L 110.757812 266.753906 Z M 110.757812 108.503906 " clip-rule="nonzero"/></clipPath>
</defs>

<g clip-path="url(#5ca8d6c25f)"><path fill="#FFFFFFFF" d="M 187.542969 14.757812 C 92.121094 14.757812 14.757812 92.121094 14.757812 187.542969 C 14.757812 282.972656 92.121094 360.328125 187.542969 360.328125 C 282.972656 360.328125 360.328125 282.972656 360.328125 187.542969 C 360.328125 92.121094 282.972656 14.757812 187.542969 14.757812 Z M 187.542969 324.332031 C 111.996094 324.332031 50.753906 263.089844 50.753906 187.546875 C 50.753906 112 111.996094 50.757812 187.542969 50.757812 C 263.089844 50.757812 324.332031 112 324.332031 187.546875 C 324.332031 263.089844 263.089844 324.332031 187.542969 324.332031 Z M 187.542969 324.332031 " fill-opacity="1" fill-rule="nonzero"/></g>


<g clip-path="url(#662cc8266e)"><path fill="#0a3675" d="M 306.40625 68.488281 C 275.976562 38.046875 233.898438 19.210938 187.445312 19.210938 C 140.996094 19.210938 98.929688 38.046875 68.488281 68.476562 C 38.046875 98.917969 19.210938 140.984375 19.210938 187.445312 C 19.210938 233.898438 38.046875 275.964844 68.488281 306.40625 C 98.917969 336.847656 140.984375 355.679688 187.445312 355.679688 C 233.910156 355.679688 275.976562 336.847656 306.40625 306.40625 C 336.847656 275.964844 355.679688 233.898438 355.679688 187.445312 C 355.679688 140.984375 336.847656 98.917969 306.40625 68.488281 M 187.445312 39.660156 L 187.605469 39.660156 L 187.753906 39.671875 C 228.449219 39.753906 265.277344 56.273438 291.953125 82.949219 C 318.632812 109.628906 335.160156 146.457031 335.242188 187.152344 L 335.253906 187.300781 L 335.253906 187.605469 L 335.242188 187.753906 C 335.160156 228.449219 318.632812 265.277344 291.953125 291.953125 C 265.277344 318.632812 228.449219 335.160156 187.753906 335.242188 L 187.605469 335.253906 L 187.289062 335.253906 L 187.140625 335.242188 C 146.476562 335.160156 109.636719 318.632812 82.960938 291.945312 L 82.949219 291.953125 C 56.273438 265.277344 39.746094 228.449219 39.660156 187.753906 L 39.648438 187.605469 L 39.648438 187.289062 L 39.660156 187.140625 C 39.746094 146.445312 56.261719 109.617188 82.9375 82.9375 C 109.617188 56.261719 146.445312 39.746094 187.140625 39.660156 L 187.289062 39.648438 Z M 51.71875 181.46875 L 72.820312 181.46875 C 76.121094 181.46875 78.785156 184.148438 78.785156 187.4375 C 78.785156 190.726562 76.109375 193.402344 72.820312 193.402344 L 51.71875 193.402344 C 53.238281 228.542969 68.121094 260.226562 91.382812 283.5 L 91.371094 283.511719 L 91.382812 283.523438 C 114.632812 306.773438 146.316406 321.648438 181.46875 323.164062 L 181.46875 302.0625 C 181.46875 298.761719 184.148438 296.097656 187.4375 296.097656 C 190.734375 296.097656 193.402344 298.773438 193.402344 302.0625 L 193.402344 323.164062 C 228.542969 321.648438 260.226562 306.761719 283.5 283.5 C 306.761719 260.238281 321.648438 228.542969 323.164062 193.402344 L 302.0625 193.402344 C 298.761719 193.402344 296.097656 190.726562 296.097656 187.4375 C 296.097656 184.148438 298.773438 181.46875 302.0625 181.46875 L 323.164062 181.46875 C 321.648438 146.328125 306.761719 114.644531 283.5 91.371094 C 260.238281 68.109375 228.542969 53.234375 193.402344 51.71875 L 193.402344 72.820312 C 193.402344 76.121094 190.726562 78.785156 187.4375 78.785156 C 184.136719 78.785156 181.46875 76.109375 181.46875 72.820312 L 181.46875 51.71875 C 146.328125 53.234375 114.644531 68.109375 91.371094 91.371094 C 68.109375 114.644531 53.238281 146.328125 51.71875 181.46875 Z M 191.664062 183.25 L 209.359375 200.9375 L 225.507812 165.289062 L 238.695312 136.210938 L 209.59375 149.386719 L 173.945312 165.535156 M 173.945312 165.523438 L 191.632812 183.21875 M 170.191406 236.363281 L 126.703125 256.066406 C 125.195312 256.738281 123.425781 256.792969 121.8125 256.066406 C 118.820312 254.714844 117.480469 251.183594 118.828125 248.191406 L 138.527344 204.691406 L 158.230469 161.203125 L 158.238281 161.210938 L 158.269531 161.148438 L 158.28125 161.128906 L 158.300781 161.085938 L 158.335938 161.023438 L 158.34375 160.992188 L 158.367188 160.957031 L 158.398438 160.894531 L 158.417969 160.851562 L 158.429688 160.832031 L 158.460938 160.769531 L 158.480469 160.714844 L 158.492188 160.707031 L 158.523438 160.644531 L 158.554688 160.589844 L 158.554688 160.578125 L 158.585938 160.527344 L 158.617188 160.464844 L 158.628906 160.453125 L 158.660156 160.410156 L 158.691406 160.347656 L 158.714844 160.328125 L 158.734375 160.292969 L 158.765625 160.242188 L 158.789062 160.199219 L 158.796875 160.1875 L 158.808594 160.179688 L 158.851562 160.125 L 158.882812 160.074219 L 158.894531 160.0625 L 158.933594 160 L 158.976562 159.945312 L 159.019531 159.894531 L 159.0625 159.839844 L 159.070312 159.832031 L 159.105469 159.800781 L 159.15625 159.746094 L 159.175781 159.726562 L 159.199219 159.695312 L 159.25 159.640625 L 159.28125 159.609375 L 159.304688 159.589844 L 159.355469 159.535156 L 159.386719 159.492188 L 159.398438 159.484375 L 159.503906 159.378906 L 159.558594 159.335938 L 159.597656 159.28125 L 159.609375 159.273438 L 159.652344 159.242188 L 159.703125 159.1875 L 159.726562 159.167969 L 159.757812 159.144531 L 159.839844 159.0625 L 159.863281 159.050781 L 159.914062 159 L 159.96875 158.964844 L 159.96875 158.957031 L 160.019531 158.914062 L 160.074219 158.871094 L 160.082031 158.863281 L 160.125 158.828125 L 160.179688 158.789062 L 160.199219 158.765625 L 160.230469 158.746094 L 160.285156 158.714844 L 160.316406 158.691406 L 160.335938 158.671875 L 160.398438 158.640625 L 160.453125 158.609375 L 160.464844 158.597656 L 160.515625 158.566406 L 160.578125 158.535156 L 160.589844 158.523438 L 160.640625 158.492188 L 160.707031 158.460938 L 160.726562 158.449219 L 160.757812 158.429688 L 160.769531 158.417969 L 160.820312 158.398438 L 160.851562 158.375 L 160.875 158.367188 L 160.9375 158.335938 L 160.992188 158.3125 L 161 158.304688 L 161.0625 158.269531 L 161.117188 158.238281 L 161.128906 158.238281 L 161.179688 158.207031 L 161.242188 158.1875 L 161.304688 158.15625 L 161.304688 158.144531 L 161.390625 158.113281 L 204.796875 138.457031 L 248.296875 118.753906 C 251.289062 117.40625 254.820312 118.746094 256.167969 121.738281 C 256.898438 123.351562 256.84375 125.132812 256.167969 126.628906 L 236.460938 170.117188 L 216.792969 213.542969 L 216.757812 213.617188 L 216.726562 213.683594 L 216.695312 213.753906 L 216.675781 213.808594 L 216.613281 213.933594 L 216.558594 214.03125 L 216.539062 214.0625 L 216.476562 214.167969 L 216.464844 214.1875 L 216.402344 214.292969 L 216.378906 214.3125 L 216.316406 214.429688 L 216.304688 214.441406 L 216.234375 214.554688 L 216.222656 214.566406 L 216.148438 214.683594 L 216.136719 214.683594 L 216.054688 214.800781 L 215.96875 214.914062 L 215.875 215.03125 L 215.863281 215.03125 L 215.777344 215.136719 L 215.769531 215.148438 L 215.683594 215.253906 L 215.671875 215.261719 L 215.578125 215.367188 L 215.570312 215.378906 L 215.472656 215.472656 L 215.464844 215.484375 L 215.359375 215.578125 L 215.347656 215.589844 L 215.242188 215.675781 L 215.230469 215.683594 L 215.125 215.78125 L 215.125 215.789062 L 215.007812 215.882812 L 214.894531 215.96875 L 214.777344 216.054688 L 214.777344 216.0625 L 214.660156 216.136719 L 214.652344 216.148438 L 214.535156 216.222656 L 214.523438 216.234375 L 214.410156 216.296875 L 214.386719 216.316406 L 214.28125 216.378906 L 214.261719 216.390625 L 214.15625 216.453125 L 214.125 216.476562 L 214.03125 216.527344 L 213.988281 216.546875 L 213.902344 216.589844 L 213.851562 216.613281 L 213.777344 216.644531 L 213.714844 216.675781 L 213.640625 216.707031 Z M 136.210938 238.683594 L 165.300781 225.507812 L 200.949219 209.359375 L 183.25 191.664062 L 183.230469 191.640625 L 183.144531 191.558594 L 165.535156 173.945312 L 149.386719 209.59375 Z M 187.445312 7.28125 C 237.199219 7.28125 282.246094 27.453125 314.847656 60.046875 C 347.4375 92.648438 367.613281 137.6875 367.613281 187.445312 C 367.613281 237.199219 347.4375 282.246094 314.835938 314.847656 C 282.246094 347.449219 237.1875 367.625 187.4375 367.625 C 137.695312 367.625 92.636719 347.449219 60.046875 314.847656 C 27.453125 282.246094 7.28125 237.199219 7.28125 187.445312 C 7.28125 137.695312 27.453125 92.648438 60.046875 60.046875 C 92.648438 27.445312 137.6875 7.28125 187.445312 7.28125 Z M 187.445312 7.28125 " fill-opacity="1" fill-rule="nonzero"/></g>




<g clip-path="url(#75ef3897e9)"><g clip-path="url(#dd3b9ecfde)"><path fill="#0a3675" d="M 49.773438 49.773438 L 324.703125 49.773438 L 324.703125 324.703125 L 49.773438 324.703125 Z M 49.773438 49.773438 " fill-opacity="1" fill-rule="nonzero"/></g></g><g clip-path="url(#50e5df5044)"><g clip-path="url(#4134fb58e6)"><g clip-path="url(#7087b185c9)"><path fill="#ffde59" d="M 102.207031 224.578125 L 227.175781 99.609375 L 277.476562 149.914062 L 152.507812 274.882812 Z M 102.207031 224.578125 " fill-opacity="1" fill-rule="nonzero"/></g></g></g><g clip-path="url(#fd5db5436c)"><path fill="#ffde59" d="M 307.132812 68.863281 C 276.703125 38.421875 234.625 19.585938 188.171875 19.585938 C 141.722656 19.585938 99.65625 38.421875 69.214844 68.851562 C 38.773438 99.292969 19.9375 141.359375 19.9375 187.820312 C 19.9375 234.273438 38.773438 276.339844 69.214844 306.78125 C 99.644531 337.21875 141.710938 356.054688 188.171875 356.054688 C 234.632812 356.054688 276.703125 337.21875 307.132812 306.78125 C 337.570312 276.339844 356.40625 234.273438 356.40625 187.820312 C 356.40625 141.359375 337.570312 99.292969 307.132812 68.863281 M 188.171875 40.035156 L 188.332031 40.035156 L 188.476562 40.046875 C 229.175781 40.128906 266.003906 56.648438 292.679688 83.324219 C 319.359375 110.003906 335.886719 146.832031 335.96875 187.527344 L 335.980469 187.675781 L 335.980469 187.980469 L 335.96875 188.128906 C 335.886719 228.824219 319.359375 265.652344 292.679688 292.328125 C 266.003906 319.007812 229.175781 335.535156 188.476562 335.617188 L 188.332031 335.628906 L 188.015625 335.628906 L 187.867188 335.617188 C 147.203125 335.535156 110.363281 319.007812 83.6875 292.320312 L 83.675781 292.328125 C 56.996094 265.652344 40.46875 228.824219 40.386719 188.128906 L 40.375 187.980469 L 40.375 187.664062 L 40.386719 187.515625 C 40.46875 146.820312 56.988281 109.992188 83.664062 83.3125 C 110.34375 56.636719 147.171875 40.121094 187.867188 40.035156 L 188.015625 40.023438 Z M 52.445312 181.84375 L 73.546875 181.84375 C 76.84375 181.84375 79.511719 184.523438 79.511719 187.8125 C 79.511719 191.101562 76.835938 193.777344 73.546875 193.777344 L 52.445312 193.777344 C 53.960938 228.917969 68.84375 260.601562 92.109375 283.875 L 92.097656 283.886719 L 92.109375 283.898438 C 115.359375 307.148438 147.042969 322.019531 182.195312 323.539062 L 182.195312 302.4375 C 182.195312 299.136719 184.875 296.472656 188.164062 296.472656 C 191.460938 296.472656 194.128906 299.148438 194.128906 302.4375 L 194.128906 323.539062 C 229.269531 322.019531 260.953125 307.136719 284.226562 283.875 C 307.488281 260.613281 322.371094 228.917969 323.890625 193.777344 L 302.789062 193.777344 C 299.488281 193.777344 296.824219 191.097656 296.824219 187.8125 C 296.824219 184.523438 299.5 181.84375 302.789062 181.84375 L 323.890625 181.84375 C 322.371094 146.703125 307.488281 115.019531 284.226562 91.746094 C 260.964844 68.484375 229.269531 53.609375 194.128906 52.09375 L 194.128906 73.195312 C 194.128906 76.496094 191.449219 79.160156 188.164062 79.160156 C 184.863281 79.160156 182.195312 76.484375 182.195312 73.195312 L 182.195312 52.09375 C 147.054688 53.609375 115.371094 68.484375 92.097656 91.746094 C 68.835938 115.019531 53.960938 146.703125 52.445312 181.84375 Z M 192.390625 183.625 L 210.085938 201.3125 L 226.234375 165.664062 L 239.421875 136.585938 L 210.316406 149.761719 L 174.671875 165.90625 M 174.671875 165.898438 L 192.355469 183.59375 M 170.917969 236.738281 L 127.429688 256.4375 C 125.921875 257.113281 124.152344 257.167969 122.539062 256.4375 C 119.542969 255.089844 118.207031 251.558594 119.554688 248.566406 L 139.253906 205.066406 L 158.953125 161.574219 L 158.964844 161.585938 L 158.996094 161.523438 L 159.007812 161.503906 L 159.027344 161.460938 L 159.058594 161.398438 L 159.070312 161.367188 L 159.09375 161.332031 L 159.125 161.269531 L 159.144531 161.226562 L 159.15625 161.207031 L 159.1875 161.144531 L 159.207031 161.089844 L 159.21875 161.082031 L 159.25 161.015625 L 159.28125 160.964844 L 159.28125 160.953125 L 159.3125 160.902344 L 159.34375 160.839844 L 159.355469 160.828125 L 159.386719 160.785156 L 159.417969 160.722656 L 159.441406 160.703125 L 159.460938 160.667969 L 159.492188 160.617188 L 159.511719 160.574219 L 159.523438 160.5625 L 159.535156 160.554688 L 159.578125 160.5 L 159.609375 160.449219 L 159.617188 160.4375 L 159.660156 160.375 L 159.703125 160.320312 L 159.746094 160.269531 L 159.789062 160.214844 L 159.902344 160.101562 L 159.925781 160.070312 L 159.976562 160.015625 L 160.007812 159.984375 L 160.03125 159.964844 L 160.082031 159.910156 L 160.113281 159.867188 L 160.125 159.859375 L 160.175781 159.804688 L 160.230469 159.753906 L 160.28125 159.710938 L 160.324219 159.65625 L 160.335938 159.648438 L 160.378906 159.617188 L 160.429688 159.5625 L 160.453125 159.542969 L 160.484375 159.519531 L 160.566406 159.4375 L 160.589844 159.425781 L 160.640625 159.375 L 160.695312 159.339844 L 160.695312 159.332031 L 160.746094 159.289062 L 160.800781 159.246094 L 160.808594 159.234375 L 160.851562 159.203125 L 160.90625 159.164062 L 160.925781 159.140625 L 160.957031 159.121094 L 161.011719 159.089844 L 161.042969 159.066406 L 161.0625 159.046875 L 161.125 159.015625 L 161.179688 158.984375 L 161.1875 158.972656 L 161.242188 158.941406 L 161.304688 158.910156 L 161.316406 158.898438 L 161.367188 158.867188 L 161.433594 158.835938 L 161.453125 158.824219 L 161.484375 158.804688 L 161.496094 158.792969 L 161.546875 158.773438 L 161.578125 158.75 L 161.601562 158.742188 L 161.664062 158.710938 L 161.714844 158.6875 L 161.726562 158.675781 L 161.789062 158.644531 L 161.84375 158.613281 L 161.851562 158.613281 L 161.90625 158.582031 L 161.96875 158.5625 L 162.03125 158.53125 L 162.03125 158.519531 L 162.117188 158.488281 L 205.523438 138.828125 L 249.023438 119.128906 C 252.015625 117.78125 255.546875 119.121094 256.894531 122.113281 C 257.625 123.726562 257.570312 125.507812 256.894531 127.003906 L 237.183594 170.492188 L 217.515625 213.917969 L 217.484375 213.992188 L 217.453125 214.054688 L 217.421875 214.128906 L 217.402344 214.183594 L 217.359375 214.265625 L 217.335938 214.308594 L 217.285156 214.40625 L 217.265625 214.4375 L 217.199219 214.542969 L 217.191406 214.5625 L 217.128906 214.667969 L 217.105469 214.6875 L 217.042969 214.804688 L 217.03125 214.816406 L 216.957031 214.929688 L 216.949219 214.941406 L 216.875 215.058594 L 216.863281 215.058594 L 216.777344 215.175781 L 216.695312 215.289062 L 216.601562 215.40625 L 216.589844 215.40625 L 216.503906 215.511719 L 216.496094 215.523438 L 216.410156 215.628906 L 216.398438 215.636719 L 216.304688 215.742188 L 216.1875 215.859375 L 216.082031 215.953125 L 216.074219 215.964844 L 215.96875 216.046875 L 215.957031 216.058594 L 215.851562 216.152344 L 215.851562 216.164062 L 215.734375 216.257812 L 215.621094 216.34375 L 215.503906 216.429688 L 215.503906 216.4375 L 215.386719 216.511719 L 215.378906 216.523438 L 215.261719 216.597656 L 215.25 216.605469 L 215.136719 216.671875 L 215.113281 216.691406 L 215.007812 216.753906 L 214.988281 216.765625 L 214.882812 216.828125 L 214.851562 216.851562 L 214.753906 216.902344 L 214.628906 216.964844 L 214.578125 216.988281 L 214.503906 217.019531 L 214.4375 217.050781 L 214.367188 217.082031 Z M 136.9375 239.058594 L 166.027344 225.882812 L 201.675781 209.734375 L 183.976562 192.039062 L 183.957031 192.015625 L 183.871094 191.933594 L 166.257812 174.320312 L 150.113281 209.96875 Z M 188.171875 7.65625 C 237.921875 7.65625 282.972656 27.828125 315.574219 60.421875 C 348.164062 93.023438 368.339844 138.058594 368.339844 187.820312 C 368.339844 237.570312 348.164062 282.621094 315.5625 315.222656 C 282.972656 347.824219 237.914062 368 188.164062 368 C 138.421875 368 93.363281 347.824219 60.769531 315.222656 C 28.179688 282.621094 8.007812 237.570312 8.007812 187.820312 C 8.007812 138.070312 28.179688 93.023438 60.769531 60.421875 C 93.371094 27.820312 138.410156 7.65625 188.171875 7.65625 Z M 188.171875 7.65625 " fill-opacity="1" fill-rule="nonzero"/></g></svg>