<?xml version="1.0" encoding="UTF-8"?>
<!-- Generator: Adobe Illustrator 20.0.0, SVG Export Plug-In . SVG Version: 6.00 Build 0)  -->
<!DOCTYPE svg PUBLIC "-//W3C//DTD SVG 1.1//EN" "http://www.w3.org/Graphics/SVG/1.1/DTD/svg11.dtd">
<svg version="1.1" id="Layer_1" xmlns="http://www.w3.org/2000/svg" xmlns:xlink="http://www.w3.org/1999/xlink" x="0px" y="0px" width="342px" height="79.3px" viewBox="0 0 342 79.3" style="enable-background:new 0 0 342 79.3;" xml:space="preserve">
<style type="text/css">
	.st0{fill:#404041;}
	.st1{fill:#007FB2;}
	.st2{clip-path:url(#SVGID_2_);fill:url(#SVGID_3_);}
	.st3{clip-path:url(#SVGID_5_);fill:url(#SVGID_6_);}
	.st4{clip-path:url(#SVGID_8_);fill:url(#SVGID_9_);}
	.st5{clip-path:url(#SVGID_11_);fill:url(#SVGID_12_);}
</style>
<polygon class="st0" points="100.8,27.1 100.8,54.8 94.1,54.8 94.1,27.1 86.4,27.1 86.4,21.4 108.4,21.4 108.4,27.1 "/>
<path class="st0" d="M111.4,54.8V21.4h6v12.1c0,0.7,0,1.3-0.1,2c0,0.6-0.1,1.3-0.2,1.9c1.3-1.5,2.5-2.5,3.8-3.2c1.3-0.7,2.7-1,4.2-1  c1.6,0,3,0.3,4.1,0.8c1.1,0.6,2,1.4,2.6,2.5c0.3,0.6,0.5,1.2,0.7,2c0.1,0.7,0.2,1.9,0.2,3.4v0.7v12.2h-6.1V44.4  c0-2.6-0.3-4.3-0.9-5.1c-0.6-0.8-1.6-1.2-3.1-1.2c-0.8,0-1.6,0.2-2.3,0.5c-0.7,0.3-1.3,0.8-1.8,1.5c-0.4,0.5-0.6,1.1-0.8,1.7  c-0.2,0.6-0.2,1.6-0.2,2.9v0.8v9.2H111.4z"/>
<path class="st0" d="M143.4,39.2c0.6-2,1.5-3.6,2.6-4.6c1.1-1,2.6-1.5,4.3-1.5c0.4,0,1,0.1,1.9,0.2c0.2,0,0.3,0.1,0.4,0.1l-0.9,6.5  c-0.5-0.2-0.9-0.3-1.4-0.4c-0.5-0.1-1-0.1-1.5-0.1c-1.9,0-3.2,0.5-4,1.4c-0.8,0.9-1.2,2.5-1.2,4.8v9.2h-6.1V33.9h6L143.4,39.2z"/>
<path class="st0" d="M176.5,44.4c0,3.2-1.1,5.9-3.3,8c-2.2,2.1-5,3.2-8.4,3.2c-3.4,0-6.2-1.1-8.4-3.2c-2.2-2.1-3.3-4.8-3.3-8  c0-3.2,1.1-5.9,3.3-8c2.2-2.1,5-3.2,8.4-3.2c3.4,0,6.2,1.1,8.4,3.2C175.4,38.5,176.5,41.1,176.5,44.4 M170.3,44.4  c0-1.7-0.5-3.1-1.5-4.1c-1-1-2.3-1.5-4-1.5s-3,0.5-4,1.5c-1,1-1.5,2.4-1.5,4.1c0,1.7,0.5,3.1,1.5,4.1c1,1,2.3,1.5,4,1.5  c1.7,0,3-0.5,4-1.5C169.8,47.4,170.3,46.1,170.3,44.4z"/>
<path class="st0" d="M186.2,33.9v11c0,1.9,0.4,3.2,1.1,4c0.7,0.8,1.9,1.2,3.5,1.2c1.6,0,2.8-0.4,3.5-1.2c0.7-0.8,1.1-2.1,1.1-4v-11  h6.1v11c0,3.7-0.9,6.4-2.6,8.1c-1.7,1.7-4.4,2.6-8,2.6c-3.7,0-6.4-0.9-8.1-2.6c-1.7-1.7-2.6-4.5-2.6-8.2v-11H186.2z"/>
<path class="st0" d="M227.3,54.5c0,2.2-0.1,3.8-0.4,4.7c-0.3,0.9-0.7,1.7-1.4,2.3c-0.9,1-2.1,1.7-3.5,2.2c-1.4,0.5-3.2,0.7-5.2,0.7  c-3.4,0-6-0.5-7.7-1.6c-1.8-1.1-2.7-2.7-2.9-4.9h6.7c0.1,0.8,0.5,1.4,1.1,1.8c0.6,0.4,1.6,0.6,2.8,0.6c1.7,0,2.8-0.4,3.6-1.3  c0.7-0.9,1.1-2.3,1.1-4.3v-3c-0.8,1.3-1.8,2.3-2.9,2.9c-1.1,0.6-2.5,0.9-4.1,0.9c-2.9,0-5.2-1-6.9-3c-1.7-2-2.6-4.7-2.6-8.1  c0-3.5,0.8-6.2,2.5-8.2c1.7-2,4-2.9,7-2.9c1.5,0,2.9,0.4,4.1,1.1c1.2,0.7,2.2,1.7,3,3.1v-3.5h5.7V54.5z M221.8,44.3  c0-1.8-0.5-3.3-1.4-4.4c-0.9-1.1-2.2-1.6-3.8-1.6c-1.7,0-3,0.5-3.9,1.6c-0.9,1.1-1.4,2.5-1.4,4.4c0,1.9,0.5,3.3,1.4,4.4  c0.9,1,2.2,1.6,3.9,1.6c1.7,0,3-0.5,3.9-1.6C221.4,47.6,221.8,46.2,221.8,44.3z"/>
<path class="st0" d="M232.5,54.8V21.4h6v12.1c0,0.7,0,1.3-0.1,2c0,0.6-0.1,1.3-0.2,1.9c1.3-1.5,2.5-2.5,3.8-3.2c1.3-0.7,2.7-1,4.2-1  c1.6,0,3,0.3,4.1,0.8c1.1,0.6,2,1.4,2.6,2.5c0.3,0.6,0.5,1.2,0.7,2c0.1,0.7,0.2,1.9,0.2,3.4v0.7v12.2h-6.1V44.4  c0-2.6-0.3-4.3-0.9-5.1c-0.6-0.8-1.6-1.2-3.1-1.2c-0.8,0-1.6,0.2-2.3,0.5c-0.7,0.3-1.3,0.8-1.8,1.5c-0.4,0.5-0.6,1.1-0.8,1.7  c-0.2,0.6-0.2,1.6-0.2,2.9v0.8v9.2H232.5z"/>
<rect x="258.9" y="21.4" class="st1" width="6.1" height="33.4"/>
<path class="st1" d="M269.9,25c0-1,0.3-1.8,1-2.5c0.7-0.7,1.5-1,2.5-1c1,0,1.8,0.3,2.5,1c0.7,0.7,1.1,1.5,1.1,2.5  c0,1-0.4,1.8-1.1,2.5c-0.7,0.7-1.5,1-2.5,1c-1,0-1.8-0.4-2.5-1.1C270.3,26.8,269.9,25.9,269.9,25 M270.4,33.6h6.1v20.9h-6.1V33.6z"/>
<path class="st1" d="M282.6,54.8V38.6h-2.7v-4.8h2.7v-4.6c0-2.8,0.6-4.8,1.9-6.1c1.3-1.2,3.4-1.8,6.4-1.8c0.3,0,0.7,0,1.1,0.1  c0.4,0.1,1,0.2,1.7,0.4v4.8c-0.4-0.2-0.7-0.3-1.1-0.4c-0.3-0.1-0.7-0.1-1.1-0.1c-1.1,0-1.8,0.3-2.3,0.8c-0.5,0.6-0.7,1.5-0.7,2.9v4  h3.9v4.8h-3.9v16.2H282.6z"/>
<path class="st1" d="M315.9,45.8h-15.7c0.2,1.5,0.8,2.6,1.6,3.4c0.9,0.7,2,1.1,3.5,1.1c1.1,0,2.1-0.2,2.9-0.6c0.8-0.4,1.5-1.1,2-1.9  l4.9,2.5c-1.1,1.8-2.5,3.2-4.1,4.1c-1.6,0.9-3.6,1.3-5.8,1.3c-3.4,0-6.1-1-8-3c-2-2-3-4.7-3-8.2c0-3.3,1-6,3.1-8.1  c2.1-2.1,4.7-3.2,8-3.2c3.3,0,6,1,7.9,3c1.9,2,2.9,4.7,2.9,8.1c0,0.2,0,0.4,0,0.6C315.9,45.1,315.9,45.4,315.9,45.8 M309.8,42.2  c-0.2-1.3-0.7-2.3-1.4-3c-0.8-0.7-1.9-1-3.2-1c-1.4,0-2.5,0.3-3.3,1c-0.8,0.7-1.3,1.7-1.6,3H309.8z"/>
<polygon class="st1" points="235.6,58.4 231.4,58.4 231.4,60.9 235.4,60.9 235.4,62.3 231.4,62.3 231.4,66 229.7,66 229.7,57   235.6,57 "/>
<path class="st1" d="M238,66h-1.5v-6.3h1.5V66z M238,58.3h-1.5V57h1.5V58.3z"/>
<path class="st1" d="M245,66h-1.5v-3.9c0-0.5-0.1-0.8-0.2-1c-0.2-0.2-0.5-0.3-1-0.3c-1,0-1.5,0.5-1.5,1.4V66h-1.5v-6.3h1.4l0,1  c0.2-0.4,0.5-0.7,0.8-0.8c0.3-0.2,0.7-0.2,1.2-0.2c0.8,0,1.4,0.2,1.7,0.5c0.3,0.3,0.5,0.9,0.5,1.6V66z"/>
<path class="st1" d="M250.6,64.1c0-0.4-0.1-0.6-0.2-0.7c-0.2-0.2-0.6-0.2-1.2-0.2c-0.5,0-0.8,0.1-1,0.2c-0.2,0.1-0.3,0.4-0.3,0.7  c0,0.4,0.1,0.7,0.3,0.9c0.2,0.1,0.5,0.2,0.9,0.2c0.5,0,0.8,0,1-0.1C250.4,64.8,250.6,64.5,250.6,64.1 M252.1,66h-1.4v-0.8  c-0.2,0.4-0.5,0.6-0.9,0.7c-0.3,0.1-0.7,0.1-1.2,0.1c-0.7,0-1.3-0.1-1.6-0.4c-0.4-0.3-0.6-0.8-0.6-1.5c0-0.8,0.2-1.3,0.6-1.6  c0.4-0.3,0.9-0.4,1.7-0.4c0.6,0,1,0,1.3,0.1c0.3,0.1,0.5,0.3,0.6,0.5v-1c0-0.5-0.1-0.9-0.3-1c-0.2-0.2-0.5-0.3-1.1-0.3  c-0.5,0-0.8,0.1-1,0.2c-0.1,0.1-0.2,0.4-0.2,0.7h-1.5c0-0.8,0.3-1.4,0.8-1.6c0.3-0.2,1-0.3,1.9-0.3c1,0,1.7,0.1,2.1,0.4  c0.5,0.3,0.8,0.9,0.8,1.9V66z"/>
<path class="st1" d="M259.2,66h-1.5v-3.9c0-0.5-0.1-0.8-0.2-1c-0.2-0.2-0.5-0.3-1-0.3c-1,0-1.5,0.5-1.5,1.4V66h-1.5v-6.3h1.4l0,1  c0.2-0.4,0.5-0.7,0.8-0.8c0.3-0.2,0.7-0.2,1.2-0.2c0.8,0,1.4,0.2,1.7,0.5c0.3,0.3,0.5,0.9,0.5,1.6V66z"/>
<path class="st1" d="M266.2,63.6c0,1-0.2,1.6-0.6,2c-0.4,0.3-1.1,0.5-2.2,0.5c-1.1,0-1.9-0.2-2.3-0.7c-0.4-0.5-0.6-1.2-0.6-2.3  c0-1.3,0.2-2.1,0.5-2.6c0.4-0.6,1.2-0.9,2.4-0.9c1.1,0,1.8,0.2,2.2,0.5c0.4,0.3,0.6,0.9,0.6,1.8h-1.4c0-0.5-0.1-0.8-0.3-0.9  c-0.2-0.1-0.6-0.2-1.1-0.2c-0.6,0-1,0.1-1.1,0.4c-0.1,0.3-0.2,0.9-0.2,1.9c0,0.7,0,1.1,0.1,1.3c0.2,0.3,0.6,0.5,1.2,0.5  c0.6,0,1-0.1,1.1-0.2c0.2-0.2,0.3-0.5,0.3-1.1H266.2z"/>
<path class="st1" d="M268.6,66h-1.5v-6.3h1.5V66z M268.6,58.3h-1.5V57h1.5V58.3z"/>
<path class="st1" d="M274.1,64.1c0-0.4-0.1-0.6-0.2-0.7c-0.2-0.2-0.6-0.2-1.2-0.2c-0.5,0-0.8,0.1-1,0.2c-0.2,0.1-0.3,0.4-0.3,0.7  c0,0.4,0.1,0.7,0.3,0.9c0.2,0.1,0.5,0.2,0.9,0.2c0.5,0,0.8,0,1-0.1C273.9,64.8,274.1,64.5,274.1,64.1 M275.6,66h-1.4v-0.8  c-0.2,0.4-0.5,0.6-0.9,0.7c-0.3,0.1-0.7,0.1-1.2,0.1c-0.7,0-1.3-0.1-1.6-0.4c-0.4-0.3-0.6-0.8-0.6-1.5c0-0.8,0.2-1.3,0.6-1.6  c0.4-0.3,0.9-0.4,1.7-0.4c0.6,0,1,0,1.3,0.1c0.3,0.1,0.5,0.3,0.6,0.5v-1c0-0.5-0.1-0.9-0.3-1c-0.2-0.2-0.5-0.3-1.1-0.3  c-0.5,0-0.8,0.1-1,0.2c-0.1,0.1-0.2,0.4-0.2,0.7h-1.5c0-0.8,0.3-1.4,0.8-1.6c0.3-0.2,1-0.3,1.9-0.3c1,0,1.7,0.1,2.1,0.4  c0.5,0.3,0.8,0.9,0.8,1.9V66z"/>
<rect x="277.1" y="57" class="st1" width="1.5" height="9"/>
<path class="st1" d="M290.7,63.2c0,1.2-0.2,2-0.7,2.3c-0.5,0.3-1.4,0.5-3,0.5c-1.4,0-2.4-0.2-2.8-0.5c-0.5-0.4-0.7-1.2-0.7-2.4h1.6  c0,0.7,0.1,1.1,0.3,1.3c0.2,0.2,0.7,0.3,1.6,0.3c0.8,0,1.3-0.1,1.5-0.2c0.3-0.2,0.5-0.5,0.5-1.1c0-0.5-0.1-0.9-0.4-1  c-0.2-0.1-0.6-0.2-1.2-0.2h-0.6c-1.2,0-2-0.1-2.4-0.4c-0.6-0.4-0.9-1.1-0.9-2.3c0-1,0.3-1.7,0.8-2.1c0.5-0.3,1.4-0.4,2.8-0.4  c1.4,0,2.4,0.2,2.8,0.6c0.4,0.3,0.6,1.1,0.6,2.1h-1.6c0-0.5-0.1-0.9-0.3-1.1c-0.2-0.2-0.7-0.3-1.5-0.3c-0.8,0-1.2,0.1-1.5,0.2  c-0.2,0.2-0.4,0.5-0.4,1c0,0.5,0.1,0.8,0.3,1c0.2,0.2,0.5,0.3,1,0.3c0.1,0,0.3,0,0.4,0c0.2,0,0.3,0,0.5,0c1.1,0,1.9,0.1,2.3,0.4  C290.3,61.4,290.7,62.1,290.7,63.2"/>
<path class="st1" d="M296.1,62.7c0-0.8-0.1-1.3-0.3-1.5c-0.2-0.2-0.5-0.3-1.1-0.3c-0.7,0-1.1,0.1-1.2,0.3c-0.2,0.2-0.3,0.8-0.3,1.6  c0,1,0.1,1.6,0.2,1.9c0.1,0.2,0.6,0.4,1.2,0.4c0.6,0,1-0.1,1.2-0.3C296,64.3,296.1,63.7,296.1,62.7 M297.6,62.6  c0,1.4-0.2,2.3-0.5,2.7c-0.4,0.5-1.2,0.7-2.5,0.7c-1.2,0-2-0.3-2.4-0.8c-0.3-0.4-0.5-1.3-0.5-2.5c0-1.3,0.2-2.1,0.6-2.5  c0.4-0.4,1.2-0.6,2.5-0.6c1.1,0,1.8,0.2,2.2,0.6C297.3,60.6,297.6,61.4,297.6,62.6z"/>
<rect x="298.7" y="57" class="st1" width="1.5" height="9"/>
<path class="st1" d="M307.3,66h-1.4l0-1h0c-0.2,0.4-0.4,0.7-0.8,0.9c-0.3,0.2-0.7,0.2-1.2,0.2c-1.4,0-2.2-0.7-2.2-2.2v-4.2h1.5v3.9  c0,0.5,0.1,0.8,0.2,1c0.2,0.2,0.5,0.3,0.9,0.3c0.6,0,1-0.1,1.2-0.4c0.2-0.2,0.3-0.7,0.3-1.3v-3.5h1.5V66z"/>
<path class="st1" d="M313,63.6c0,0.9-0.1,1.5-0.4,1.9c-0.3,0.4-0.8,0.6-1.7,0.6c-0.8,0-1.3-0.1-1.6-0.4c-0.3-0.3-0.5-0.8-0.5-1.5  v-3.4h-0.8v-1.1h0.8v-1.4h1.5v1.4h2.4v1.1h-2.4V64c0,0.3,0,0.4,0,0.5c0.1,0.3,0.3,0.4,0.6,0.4c0.3,0,0.5-0.1,0.6-0.2  c0.1-0.2,0.2-0.4,0.2-0.7c0-0.1,0-0.1,0-0.2c0-0.1,0-0.1,0-0.2H313z"/>
<path class="st1" d="M315.3,66h-1.5v-6.3h1.5V66z M315.3,58.3h-1.5V57h1.5V58.3z"/>
<path class="st1" d="M320.9,62.7c0-0.8-0.1-1.3-0.3-1.5c-0.2-0.2-0.5-0.3-1.1-0.3c-0.7,0-1.1,0.1-1.2,0.3c-0.2,0.2-0.3,0.8-0.3,1.6  c0,1,0.1,1.6,0.2,1.9c0.1,0.2,0.6,0.4,1.2,0.4c0.6,0,1-0.1,1.2-0.3C320.8,64.3,320.9,63.7,320.9,62.7 M322.4,62.6  c0,1.4-0.2,2.3-0.5,2.7c-0.4,0.5-1.2,0.7-2.5,0.7c-1.2,0-2-0.3-2.4-0.8c-0.3-0.4-0.5-1.3-0.5-2.5c0-1.3,0.2-2.1,0.6-2.5  c0.4-0.4,1.2-0.6,2.5-0.6c1.1,0,1.8,0.2,2.2,0.6C322.2,60.6,322.4,61.4,322.4,62.6z"/>
<path class="st1" d="M329.2,66h-1.5v-3.9c0-0.5-0.1-0.8-0.2-1c-0.2-0.2-0.5-0.3-1-0.3c-1,0-1.5,0.5-1.5,1.4V66h-1.5v-6.3h1.4l0,1  c0.2-0.4,0.5-0.7,0.8-0.8c0.3-0.2,0.7-0.2,1.2-0.2c0.8,0,1.4,0.2,1.7,0.5c0.3,0.3,0.5,0.9,0.5,1.6V66z"/>
<path class="st1" d="M336.2,64c0,0.9-0.3,1.4-0.8,1.7c-0.4,0.2-1.1,0.4-2,0.4c-1.2,0-2-0.1-2.4-0.4c-0.4-0.3-0.6-0.8-0.6-1.6h1.5  c0,0.4,0.1,0.7,0.3,0.8s0.5,0.2,1,0.2c0.6,0,1,0,1.2-0.1c0.2-0.1,0.3-0.4,0.3-0.8c0-0.3-0.1-0.5-0.2-0.6c-0.1-0.1-0.4-0.1-0.7-0.1  h-0.7c-1.1,0-1.8-0.2-2.2-0.5c-0.3-0.3-0.5-0.8-0.5-1.5c0-0.6,0.2-1.1,0.5-1.3c0.4-0.3,1.1-0.5,2.2-0.5c1.1,0,1.9,0.1,2.3,0.4  c0.3,0.2,0.5,0.6,0.5,1.1c0,0.1,0,0.1,0,0.2c0,0.1,0,0.1,0,0.2h-1.5c0-0.3-0.1-0.6-0.4-0.7c-0.2-0.1-0.5-0.1-0.9-0.1  c-0.1,0-0.2,0-0.3,0c-0.4,0-0.7,0.1-0.8,0.2c-0.1,0.1-0.2,0.3-0.2,0.5c0,0.3,0.1,0.5,0.2,0.6c0.1,0.1,0.3,0.2,0.7,0.2h0.7  c1.1,0,1.8,0.2,2.2,0.5C336,62.9,336.2,63.4,336.2,64"/>
<g>
	<defs>
		<path id="SVGID_1_" d="M10.2,17.7c-3.1,4.6-5,9.7-5.8,14.7c0.1-0.3,0.2-0.5,0.4-0.8c8.6-16.8,27.9-24,43-16.3    c10,5.1,15.7,15.6,15.9,26.9c4.7-13.5,0.9-28.2-10.3-35.7c-4.6-3.1-9.9-4.6-15.2-4.6C27.7,2.1,16.9,7.7,10.2,17.7z"/>
	</defs>
	<clipPath id="SVGID_2_">
		<use xlink:href="#SVGID_1_" style="overflow:visible;"/>
	</clipPath>
	
		<linearGradient id="SVGID_3_" gradientUnits="userSpaceOnUse" x1="75.8193" y1="68.9177" x2="77.5368" y2="68.9177" gradientTransform="matrix(-58.7735 -1.000000e-05 0 -23.4609 4533.4092 1639.0881)">
		<stop offset="0" style="stop-color:#00649B"/>
		<stop offset="0.28" style="stop-color:#00ABD2"/>
		<stop offset="0.35" style="stop-color:#00A5CE"/>
		<stop offset="0.58" style="stop-color:#007FB3"/>
		<stop offset="0.72" style="stop-color:#007FB3"/>
		<stop offset="0.96" style="stop-color:#FFFFFF"/>
		<stop offset="1" style="stop-color:#FFFFFF"/>
	</linearGradient>
	<rect x="4.4" y="2.1" class="st2" width="63.9" height="40.3"/>
</g>
<g>
	<defs>
		<path id="SVGID_4_" d="M8.6,28.4c-9,13.6-4,32.9,11.3,43.1c4.6,3.1,9.7,5,14.8,5.7c-0.3-0.1-0.5-0.2-0.8-0.4    C17.1,68.3,9.7,49.1,17.4,33.9c5.1-10,15.5-15.7,26.8-16c-3.8-1.3-7.6-1.9-11.4-1.9C23.1,16,14,20.3,8.6,28.4z"/>
	</defs>
	<clipPath id="SVGID_5_">
		<use xlink:href="#SVGID_4_" style="overflow:visible;"/>
	</clipPath>
	
		<linearGradient id="SVGID_6_" gradientUnits="userSpaceOnUse" x1="75.8193" y1="68.4891" x2="77.5368" y2="68.4891" gradientTransform="matrix(-58.7733 -1.000000e-05 0 -35.6173 4533.3877 2486.0005)">
		<stop offset="0" style="stop-color:#00649B"/>
		<stop offset="0.28" style="stop-color:#00ABD2"/>
		<stop offset="0.35" style="stop-color:#00A5CE"/>
		<stop offset="0.58" style="stop-color:#007FB3"/>
		<stop offset="0.72" style="stop-color:#007FB3"/>
		<stop offset="0.96" style="stop-color:#FFFFFF"/>
		<stop offset="1" style="stop-color:#FFFFFF"/>
	</linearGradient>
	<rect x="-0.5" y="16" class="st3" width="44.7" height="61.2"/>
</g>
<g>
	<defs>
		<path id="SVGID_7_" d="M30.6,73c13.7,9,32.9,3.8,43-11.6c3.1-4.7,4.9-9.7,5.6-14.8c-0.1,0.3-0.2,0.5-0.4,0.8    c-8.5,16.8-27.6,24.3-42.8,16.7c-10-5-15.8-15.4-16.1-26.8C15.3,50.9,19.3,65.6,30.6,73z"/>
	</defs>
	<clipPath id="SVGID_8_">
		<use xlink:href="#SVGID_7_" style="overflow:visible;"/>
	</clipPath>
	
		<linearGradient id="SVGID_9_" gradientUnits="userSpaceOnUse" x1="75.7896" y1="68.2744" x2="77.5071" y2="68.2744" gradientTransform="matrix(-59.9329 -1.000000e-05 0 -25.9671 4621.521 1832.5782)">
		<stop offset="0" style="stop-color:#00649B"/>
		<stop offset="0.28" style="stop-color:#00ABD2"/>
		<stop offset="0.35" style="stop-color:#00A5CE"/>
		<stop offset="0.58" style="stop-color:#007FB3"/>
		<stop offset="0.72" style="stop-color:#007FB3"/>
		<stop offset="0.96" style="stop-color:#FFFFFF"/>
		<stop offset="1" style="stop-color:#FFFFFF"/>
	</linearGradient>
	<rect x="15.3" y="37.4" class="st4" width="63.9" height="44.6"/>
</g>
<g>
	<defs>
		<path id="SVGID_10_" d="M49.3,2.6C66.2,11,73.7,30.1,66.2,45.3c-5,10.1-15.4,15.9-26.7,16.3c13.6,4.5,28.2,0.5,35.6-10.8    C84,37,78.7,17.8,63.3,7.8c-4.7-3-9.8-4.9-14.8-5.6C48.7,2.4,49,2.5,49.3,2.6z"/>
	</defs>
	<clipPath id="SVGID_11_">
		<use xlink:href="#SVGID_10_" style="overflow:visible;"/>
	</clipPath>
	
		<linearGradient id="SVGID_12_" gradientUnits="userSpaceOnUse" x1="75.7231" y1="68.6289" x2="77.4406" y2="68.6289" gradientTransform="matrix(-62.6995 -1.000000e-05 0 -37.1815 4831.7837 2585.9207)">
		<stop offset="0" style="stop-color:#00649B"/>
		<stop offset="0.28" style="stop-color:#00ABD2"/>
		<stop offset="0.35" style="stop-color:#00A5CE"/>
		<stop offset="0.58" style="stop-color:#007FB3"/>
		<stop offset="0.72" style="stop-color:#007FB3"/>
		<stop offset="0.96" style="stop-color:#FFFFFF"/>
		<stop offset="1" style="stop-color:#FFFFFF"/>
	</linearGradient>
	<rect x="39.5" y="2.3" class="st5" width="44.5" height="63.9"/>
</g>
</svg>